<svg xmlns="http://www.w3.org/2000/svg" style="display:none">
  <!-- 51 icons exported from Figma node 2601:3955 (size=medium) -->
  <symbol id="icon-add" viewBox="0 0 47 48">
<path d="M21.9333 31.9739H25.0667V25.5791H31.3333V22.3817H25.0667V15.9869H21.9333V22.3817H15.6667V25.5791H21.9333V31.9739ZM23.5 39.9673C21.3328 39.9673 19.2961 39.5477 17.39 38.7084C15.4839 37.869 13.8258 36.73 12.4158 35.2911C11.0058 33.8523 9.88959 32.1604 9.06709 30.2153C8.24459 28.2702 7.83334 26.1919 7.83334 23.9804C7.83334 21.7689 8.24459 19.6906 9.06709 17.7455C9.88959 15.8004 11.0058 14.1085 12.4158 12.6696C13.8258 11.2308 15.4839 10.0918 17.39 9.25244C19.2961 8.41313 21.3328 7.99347 23.5 7.99347C25.6672 7.99347 27.7039 8.41313 29.61 9.25244C31.5161 10.0918 33.1742 11.2308 34.5842 12.6696C35.9942 14.1085 37.1104 15.8004 37.9329 17.7455C38.7554 19.6906 39.1667 21.7689 39.1667 23.9804C39.1667 26.1919 38.7554 28.2702 37.9329 30.2153C37.1104 32.1604 35.9942 33.8523 34.5842 35.2911C33.1742 36.73 31.5161 37.869 29.61 38.7084C27.7039 39.5477 25.6672 39.9673 23.5 39.9673Z"/>
  </symbol>
  <symbol id="icon-arrow-backwards" viewBox="0 0 47 48">
<path d="M15.65 25.9608L40 25.9608L40 21.9608L15.65 21.9608L26.85 10.7608L24 7.96078L8 23.9608L24 39.9608L26.85 37.1608L15.65 25.9608Z"/>
  </symbol>
  <symbol id="icon-arrow-drop-down" viewBox="0 0 47 48">
<path d="M23.5 31.9739L7.83334 15.9869H39.1667L23.5 31.9739Z"/>
  </symbol>
  <symbol id="icon-arrow-drop-up" viewBox="0 0 47 48">
<path d="M7.83334 31.9739L23.5 15.9869L39.1667 31.9739H7.83334Z"/>
  </symbol>
  <symbol id="icon-arrow-forward" viewBox="0 0 47 48">
<path d="M31.6761 25.9788H7.83334V21.982H31.6761L20.7094 10.7912L23.5 7.99347L39.1667 23.9804L23.5 39.9673L20.7094 37.1696L31.6761 25.9788Z"/>
  </symbol>
  <symbol id="icon-arrow-upward" viewBox="0 0 47 48">
<path d="M21.5417 39.9673V15.6372L10.575 26.8281L7.83334 23.9804L23.5 7.99347L39.1667 23.9804L36.425 26.8281L25.4583 15.6372V39.9673H21.5417Z"/>
  </symbol>
  <symbol id="icon-browse" viewBox="0 0 47 48">
<path d="M28.4136 28.4952L29.9803 26.9409L26.9894 23.8324C27.2505 23.413 27.4463 22.9689 27.5769 22.5001C27.7075 22.0314 27.7727 21.538 27.7727 21.0199C27.7727 19.5643 27.2802 18.3369 26.2951 17.3377C25.31 16.3385 24.1409 15.8389 22.7879 15.8389C21.4349 15.8389 20.2658 16.3385 19.2807 17.3377C18.2956 18.3369 17.803 19.5643 17.803 21.0199C17.803 22.4755 18.2956 23.7028 19.2807 24.702C20.2658 25.7012 21.4349 26.2008 22.7879 26.2008C23.2864 26.2008 23.7552 26.133 24.1943 25.9973C24.6335 25.8616 25.0667 25.658 25.4939 25.3867L28.4136 28.4952ZM22.7879 23.9804C22.0046 23.9804 21.334 23.6905 20.7761 23.1107C20.2183 22.531 19.9394 21.834 19.9394 21.0199C19.9394 20.2057 20.2183 19.5087 20.7761 18.929C21.334 18.3492 22.0046 18.0593 22.7879 18.0593C23.5475 18.0593 24.2121 18.3492 24.7818 18.929C25.3515 19.5087 25.6364 20.2057 25.6364 21.0199C25.6364 21.834 25.3575 22.531 24.7996 23.1107C24.2418 23.6905 23.5712 23.9804 22.7879 23.9804ZM12.1061 32.862C11.3227 32.862 10.6522 32.5721 10.0943 31.9924C9.5365 31.4126 9.25759 30.7156 9.25759 29.9015V13.6185C9.25759 12.8044 9.5365 12.1074 10.0943 11.5276C10.6522 10.9478 11.3227 10.658 12.1061 10.658H34.8939C35.6773 10.658 36.3479 10.9478 36.9057 11.5276C37.4635 12.1074 37.7424 12.8044 37.7424 13.6185V29.9015C37.7424 30.7156 37.4635 31.4126 36.9057 31.9924C36.3479 32.5721 35.6773 32.862 34.8939 32.862H12.1061ZM7.83334 37.3028V34.3423H39.1667V37.3028H7.83334Z"/>
  </symbol>
  <symbol id="icon-cancel" viewBox="0 0 47 48">
<path d="M17.86 31.9738L23.5 26.2185L29.14 31.9738L31.3333 29.7356L25.6933 23.9803L31.3333 18.225L29.14 15.9869L23.5 21.7422L17.86 15.9869L15.6667 18.225L21.3067 23.9803L15.6667 29.7356L17.86 31.9738ZM23.5 39.9673C21.3328 39.9673 19.2961 39.5476 17.39 38.7083C15.4839 37.869 13.8258 36.7299 12.4158 35.2911C11.0058 33.8523 9.88959 32.1603 9.06709 30.2152C8.24459 28.2702 7.83334 26.1919 7.83334 23.9803C7.83334 21.7688 8.24459 19.6905 9.06709 17.7454C9.88959 15.8004 11.0058 14.1084 12.4158 12.6696C13.8258 11.2308 15.4839 10.0917 17.39 9.25238C19.2961 8.41307 21.3328 7.99341 23.5 7.99341C25.6672 7.99341 27.7039 8.41307 29.61 9.25238C31.5161 10.0917 33.1742 11.2308 34.5842 12.6696C35.9942 14.1084 37.1104 15.8004 37.9329 17.7454C38.7554 19.6905 39.1667 21.7688 39.1667 23.9803C39.1667 26.1919 38.7554 28.2702 37.9329 30.2152C37.1104 32.1603 35.9942 33.8523 34.5842 35.2911C33.1742 36.7299 31.5161 37.869 29.61 38.7083C27.7039 39.5476 25.6672 39.9673 23.5 39.9673Z"/>
  </symbol>
  <symbol id="icon-check-box" viewBox="0 0 47 48">
<path d="M11.3148 39.9673C10.3574 39.9673 9.53782 39.6194 8.85603 38.9237C8.17424 38.2279 7.83334 37.3916 7.83334 36.4146V11.5461C7.83334 10.5691 8.17424 9.73273 8.85603 9.037C9.53782 8.34127 10.3574 7.99341 11.3148 7.99341H35.6852C36.6426 7.99341 37.4622 8.34127 38.144 9.037C38.8258 9.73273 39.1667 10.5691 39.1667 11.5461V36.4146C39.1667 37.3916 38.8258 38.2279 38.144 38.9237C37.4622 39.6194 36.6426 39.9673 35.6852 39.9673H11.3148ZM11.3148 36.4146H35.6852V11.5461H11.3148V36.4146Z"/>
  </symbol>
  <symbol id="icon-check-box-checked" viewBox="0 0 47 48">
<path d="M21.063 31.4409L33.3352 18.9178L30.8982 16.431L21.063 26.4672L16.1019 21.4047L13.6648 23.8915L21.063 31.4409ZM11.3148 39.9673C10.3574 39.9673 9.53782 39.6194 8.85603 38.9237C8.17424 38.2279 7.83334 37.3916 7.83334 36.4146V11.5461C7.83334 10.5691 8.17424 9.73273 8.85603 9.037C9.53782 8.34127 10.3574 7.99341 11.3148 7.99341H35.6852C36.6426 7.99341 37.4622 8.34127 38.144 9.037C38.8258 9.73273 39.1667 10.5691 39.1667 11.5461V36.4146C39.1667 37.3916 38.8258 38.2279 38.144 38.9237C37.4622 39.6194 36.6426 39.9673 35.6852 39.9673H11.3148Z"/>
  </symbol>
  <symbol id="icon-chevron-backward" viewBox="0 0 47 48">
<path d="M29.5867 40L13.7083 24L29.5867 8L33.2917 11.7333L21.1183 24L33.2917 36.2667L29.5867 40Z"/>
  </symbol>
  <symbol id="icon-chevron-forward" viewBox="0 0 47 48">
<path d="M25.8818 24L13.7083 11.7333L17.4133 8L33.2917 24L17.4133 40L13.7083 36.2667L25.8818 24Z"/>
  </symbol>
  <symbol id="icon-close" viewBox="0 0 47 48">
<path d="M10.9667 39.9673L7.83334 36.7699L20.3667 23.9803L7.83334 11.1908L10.9667 7.99341L23.5 20.783L36.0333 7.99341L39.1667 11.1908L26.6333 23.9803L39.1667 36.7699L36.0333 39.9673L23.5 27.1777L10.9667 39.9673Z"/>
  </symbol>
  <symbol id="icon-download" viewBox="0 0 47 48">
<path d="M23.5 31.9738L13.7083 21.982L16.45 19.0843L21.5417 24.2801V7.99341H25.4583V24.2801L30.55 19.0843L33.2917 21.982L23.5 31.9738ZM11.75 39.9673C10.6729 39.9673 9.75088 39.5759 8.98386 38.7932C8.21685 38.0105 7.83334 37.0696 7.83334 35.9705V29.9754H11.75V35.9705H35.25V29.9754H39.1667V35.9705C39.1667 37.0696 38.7832 38.0105 38.0162 38.7932C37.2491 39.5759 36.3271 39.9673 35.25 39.9673H11.75Z"/>
  </symbol>
  <symbol id="icon-drag-handle" viewBox="0 0 47 48">
<path d="M17.625 39.9673C16.5479 39.9673 15.6259 39.5759 14.8589 38.7932C14.0919 38.0105 13.7083 37.0696 13.7083 35.9705C13.7083 34.8714 14.0919 33.9305 14.8589 33.1478C15.6259 32.3651 16.5479 31.9738 17.625 31.9738C18.7021 31.9738 19.6241 32.3651 20.3912 33.1478C21.1582 33.9305 21.5417 34.8714 21.5417 35.9705C21.5417 37.0696 21.1582 38.0105 20.3912 38.7932C19.6241 39.5759 18.7021 39.9673 17.625 39.9673ZM29.375 39.9673C28.2979 39.9673 27.3759 39.5759 26.6089 38.7932C25.8419 38.0105 25.4583 37.0696 25.4583 35.9705C25.4583 34.8714 25.8419 33.9305 26.6089 33.1478C27.3759 32.3651 28.2979 31.9738 29.375 31.9738C30.4521 31.9738 31.3741 32.3651 32.1412 33.1478C32.9082 33.9305 33.2917 34.8714 33.2917 35.9705C33.2917 37.0696 32.9082 38.0105 32.1412 38.7932C31.3741 39.5759 30.4521 39.9673 29.375 39.9673ZM17.625 27.9771C16.5479 27.9771 15.6259 27.5857 14.8589 26.803C14.0919 26.0203 13.7083 25.0794 13.7083 23.9803C13.7083 22.8812 14.0919 21.9403 14.8589 21.1576C15.6259 20.375 16.5479 19.9836 17.625 19.9836C18.7021 19.9836 19.6241 20.375 20.3912 21.1576C21.1582 21.9403 21.5417 22.8812 21.5417 23.9803C21.5417 25.0794 21.1582 26.0203 20.3912 26.803C19.6241 27.5857 18.7021 27.9771 17.625 27.9771ZM29.375 27.9771C28.2979 27.9771 27.3759 27.5857 26.6089 26.803C25.8419 26.0203 25.4583 25.0794 25.4583 23.9803C25.4583 22.8812 25.8419 21.9403 26.6089 21.1576C27.3759 20.375 28.2979 19.9836 29.375 19.9836C30.4521 19.9836 31.3741 20.375 32.1412 21.1576C32.9082 21.9403 33.2917 22.8812 33.2917 23.9803C33.2917 25.0794 32.9082 26.0203 32.1412 26.803C31.3741 27.5857 30.4521 27.9771 29.375 27.9771ZM17.625 15.9869C16.5479 15.9869 15.6259 15.5955 14.8589 14.8128C14.0919 14.0301 13.7083 13.0892 13.7083 11.9901C13.7083 10.891 14.0919 9.95014 14.8589 9.16745C15.6259 8.38475 16.5479 7.99341 17.625 7.99341C18.7021 7.99341 19.6241 8.38475 20.3912 9.16745C21.1582 9.95014 21.5417 10.891 21.5417 11.9901C21.5417 13.0892 21.1582 14.0301 20.3912 14.8128C19.6241 15.5955 18.7021 15.9869 17.625 15.9869ZM29.375 15.9869C28.2979 15.9869 27.3759 15.5955 26.6089 14.8128C25.8419 14.0301 25.4583 13.0892 25.4583 11.9901C25.4583 10.891 25.8419 9.95014 26.6089 9.16745C27.3759 8.38475 28.2979 7.99341 29.375 7.99341C30.4521 7.99341 31.3741 8.38475 32.1412 9.16745C32.9082 9.95014 33.2917 10.891 33.2917 11.9901C33.2917 13.0892 32.9082 14.0301 32.1412 14.8128C31.3741 15.5955 30.4521 15.9869 29.375 15.9869Z"/>
  </symbol>
  <symbol id="icon-edit" viewBox="0 0 47 48">
<path d="M7.83334 39.9673V32.4179L30.8111 9.0148C31.1593 8.68914 31.5437 8.43749 31.9644 8.25986C32.385 8.08222 32.8275 7.99341 33.2917 7.99341C33.7559 7.99341 34.2056 8.08222 34.6408 8.25986C35.0759 8.43749 35.4531 8.70394 35.7722 9.0592L38.1658 11.5461C38.5139 11.8717 38.7678 12.2566 38.9273 12.7007C39.0869 13.1448 39.1667 13.5888 39.1667 14.0329C39.1667 14.5066 39.0869 14.9581 38.9273 15.3874C38.7678 15.8166 38.5139 16.2089 38.1658 16.5642L15.2315 39.9673H7.83334ZM33.2482 16.5198L35.6852 14.0329L33.2482 11.5461L30.8111 14.0329L33.2482 16.5198Z"/>
  </symbol>
  <symbol id="icon-email" viewBox="0 0 47 48">
<path d="M10.9667 36.6667C10.105 36.6667 9.36737 36.3566 8.75376 35.7365C8.14015 35.1164 7.83334 34.3709 7.83334 33.5V14.5C7.83334 13.6292 8.14015 12.8837 8.75376 12.2636C9.36737 11.6434 10.105 11.3334 10.9667 11.3334H36.0333C36.895 11.3334 37.6326 11.6434 38.2463 12.2636C38.8599 12.8837 39.1667 13.6292 39.1667 14.5V33.5C39.1667 34.3709 38.8599 35.1164 38.2463 35.7365C37.6326 36.3566 36.895 36.6667 36.0333 36.6667H10.9667ZM23.5 25.5834L10.9667 17.6667V33.5H36.0333V17.6667L23.5 25.5834ZM23.5 22.4167L36.0333 14.5H10.9667L23.5 22.4167ZM10.9667 17.6667V14.5V33.5V17.6667Z"/>
  </symbol>
  <symbol id="icon-error" viewBox="0 0 47 48">
<path d="M24.6163 31.5142C24.9165 31.2078 25.0667 30.8281 25.0667 30.3751C25.0667 29.9221 24.9165 29.5425 24.6163 29.236C24.316 28.9296 23.9439 28.7764 23.5 28.7764C23.0561 28.7764 22.684 28.9296 22.3838 29.236C22.0835 29.5425 21.9333 29.9221 21.9333 30.3751C21.9333 30.8281 22.0835 31.2078 22.3838 31.5142C22.684 31.8206 23.0561 31.9738 23.5 31.9738C23.9439 31.9738 24.316 31.8206 24.6163 31.5142ZM21.9333 25.579H25.0667V15.9869H21.9333V25.579ZM23.5 39.9673C21.3328 39.9673 19.2961 39.5476 17.39 38.7083C15.4839 37.869 13.8258 36.7299 12.4158 35.2911C11.0058 33.8523 9.88959 32.1603 9.06709 30.2152C8.24459 28.2702 7.83334 26.1919 7.83334 23.9803C7.83334 21.7688 8.24459 19.6905 9.06709 17.7454C9.88959 15.8004 11.0058 14.1084 12.4158 12.6696C13.8258 11.2308 15.4839 10.0917 17.39 9.25238C19.2961 8.41307 21.3328 7.99341 23.5 7.99341C25.6672 7.99341 27.7039 8.41307 29.61 9.25238C31.5161 10.0917 33.1742 11.2308 34.5842 12.6696C35.9942 14.1084 37.1104 15.8004 37.9329 17.7454C38.7554 19.6905 39.1667 21.7688 39.1667 23.9803C39.1667 26.1919 38.7554 28.2702 37.9329 30.2152C37.1104 32.1603 35.9942 33.8523 34.5842 35.2911C33.1742 36.7299 31.5161 37.869 29.61 38.7083C27.7039 39.5476 25.6672 39.9673 23.5 39.9673Z"/>
  </symbol>
  <symbol id="icon-explore" viewBox="0 0 47 48">
<path d="M17.39 38.74C15.4839 37.9 13.8258 36.76 12.4158 35.32C11.0058 33.88 9.88959 32.1867 9.06709 30.24C8.24459 28.2933 7.83334 26.2133 7.83334 24C7.83334 21.7867 8.24459 19.7067 9.06709 17.76C9.88959 15.8133 11.0058 14.12 12.4158 12.68C13.8258 11.24 15.4839 10.1 17.39 9.26C19.2961 8.42 21.3328 8 23.5 8C25.6672 8 27.7039 8.42 29.61 9.26C31.5161 10.1 33.1742 11.24 34.5842 12.68C35.9942 14.12 37.1104 15.8133 37.9329 17.76C38.7554 19.7067 39.1667 21.7867 39.1667 24C39.1667 26.2133 38.7554 28.2933 37.9329 30.24C37.1104 32.1867 35.9942 33.88 34.5842 35.32C33.1742 36.76 31.5161 37.9 29.61 38.74C27.7039 39.58 25.6672 40 23.5 40C21.3328 40 19.2961 39.58 17.39 38.74ZM23.5 32.8C24.675 31.6 25.7195 30.36 26.6333 29.08C27.4167 27.9867 28.1347 26.7867 28.7875 25.48C29.4403 24.1733 29.7667 22.88 29.7667 21.6C29.7667 19.84 29.1531 18.3333 27.9258 17.08C26.6986 15.8267 25.2233 15.2 23.5 15.2C21.7767 15.2 20.3014 15.8267 19.0742 17.08C17.847 18.3333 17.2333 19.84 17.2333 21.6C17.2333 22.88 17.5597 24.1733 18.2125 25.48C18.8653 26.7867 19.5833 27.9867 20.3667 29.08C21.2806 30.36 22.325 31.6 23.5 32.8ZM21.8354 23.3C21.3785 22.8333 21.15 22.2667 21.15 21.6C21.15 20.9333 21.3785 20.3667 21.8354 19.9C22.2924 19.4333 22.8472 19.2 23.5 19.2C24.1528 19.2 24.7076 19.4333 25.1646 19.9C25.6215 20.3667 25.85 20.9333 25.85 21.6C25.85 22.2667 25.6215 22.8333 25.1646 23.3C24.7076 23.7667 24.1528 24 23.5 24C22.8472 24 22.2924 23.7667 21.8354 23.3Z"/>
  </symbol>
  <symbol id="icon-export" viewBox="0 0 47 48">
<path d="M28.5133 35.9705L32.9 31.4942V35.1712H34.4667V28.7764H28.2V30.3751H31.8033L27.4167 34.8514L28.5133 35.9705ZM10.9667 36.7699C10.105 36.7699 9.36737 36.4568 8.75376 35.8306C8.14015 35.2045 7.83334 34.4518 7.83334 33.5725V11.1908C7.83334 10.3115 8.14015 9.55879 8.75376 8.93264C9.36737 8.30649 10.105 7.99341 10.9667 7.99341H32.9C33.7617 7.99341 34.4993 8.30649 35.1129 8.93264C35.7265 9.55879 36.0333 10.3115 36.0333 11.1908V21.902C35.5372 21.6622 35.0281 21.4557 34.5058 21.2825C33.9836 21.1094 33.4483 20.9828 32.9 20.9029V11.1908H10.9667V33.5725H20.445C20.5233 34.1587 20.6474 34.7182 20.8171 35.2511C20.9868 35.784 21.1892 36.2903 21.4242 36.7699H10.9667ZM10.9667 31.9738V33.5725V11.1908V20.9029V20.783V31.9738ZM14.1 30.3751H20.4842C20.5625 29.8156 20.6865 29.2693 20.8563 28.7364C21.026 28.2035 21.2153 27.684 21.4242 27.1777H14.1V30.3751ZM14.1 23.9803H23.6567C24.4922 23.181 25.4257 22.5149 26.4571 21.982C27.4885 21.4491 28.5917 21.0894 29.7667 20.9029V20.783H14.1V23.9803ZM14.1 17.5856H29.7667V14.3882H14.1V17.5856ZM31.3333 39.9673C29.1661 39.9673 27.3188 39.1879 25.7913 37.6292C24.2638 36.0704 23.5 34.1853 23.5 31.9738C23.5 29.7623 24.2638 27.8772 25.7913 26.3184C27.3188 24.7597 29.1661 23.9803 31.3333 23.9803C33.5006 23.9803 35.3479 24.7597 36.8754 26.3184C38.4029 27.8772 39.1667 29.7623 39.1667 31.9738C39.1667 34.1853 38.4029 36.0704 36.8754 37.6292C35.3479 39.1879 33.5006 39.9673 31.3333 39.9673Z"/>
  </symbol>
  <symbol id="icon-help" viewBox="0 0 47 48">
<path d="M24.8121 32.993C25.1907 32.6066 25.38 32.1337 25.38 31.5741C25.38 31.0146 25.1907 30.5416 24.8121 30.1553C24.4335 29.7689 23.97 29.5758 23.4217 29.5758C22.8733 29.5758 22.4099 29.7689 22.0313 30.1553C21.6526 30.5416 21.4633 31.0146 21.4633 31.5741C21.4633 32.1337 21.6526 32.6066 22.0313 32.993C22.4099 33.3793 22.8733 33.5725 23.4217 33.5725C23.97 33.5725 24.4335 33.3793 24.8121 32.993ZM22.0117 27.4175H24.91C24.91 26.5382 25.0079 25.8455 25.2038 25.3392C25.3996 24.833 25.9545 24.1402 26.8683 23.2609C27.5472 22.5682 28.0825 21.9087 28.4742 21.2825C28.8658 20.6564 29.0617 19.9037 29.0617 19.0244C29.0617 17.5323 28.5264 16.3865 27.4558 15.5872C26.3853 14.7879 25.1189 14.3882 23.6567 14.3882C22.1683 14.3882 20.9607 14.7879 20.0338 15.5872C19.1068 16.3865 18.4606 17.3458 18.095 18.4648L20.68 19.504C20.8106 19.0244 21.1043 18.5048 21.5613 17.9453C22.0182 17.3857 22.7167 17.106 23.6567 17.106C24.4922 17.106 25.1189 17.3391 25.5367 17.8054C25.9545 18.2717 26.1633 18.7846 26.1633 19.3441C26.1633 19.877 26.0067 20.3766 25.6933 20.8429C25.38 21.3092 24.9883 21.7422 24.5183 22.1418C23.3695 23.181 22.6645 23.967 22.4033 24.4999C22.1422 25.0328 22.0117 26.0053 22.0117 27.4175ZM23.5 39.9673C21.3328 39.9673 19.2961 39.5476 17.39 38.7083C15.4839 37.869 13.8258 36.7299 12.4158 35.2911C11.0058 33.8523 9.88959 32.1603 9.06709 30.2152C8.24459 28.2702 7.83334 26.1919 7.83334 23.9803C7.83334 21.7688 8.24459 19.6905 9.06709 17.7454C9.88959 15.8004 11.0058 14.1084 12.4158 12.6696C13.8258 11.2308 15.4839 10.0917 17.39 9.25238C19.2961 8.41307 21.3328 7.99341 23.5 7.99341C25.6672 7.99341 27.7039 8.41307 29.61 9.25238C31.5161 10.0917 33.1742 11.2308 34.5842 12.6696C35.9942 14.1084 37.1104 15.8004 37.9329 17.7454C38.7554 19.6905 39.1667 21.7688 39.1667 23.9803C39.1667 26.1919 38.7554 28.2702 37.9329 30.2152C37.1104 32.1603 35.9942 33.8523 34.5842 35.2911C33.1742 36.7299 31.5161 37.869 29.61 38.7083C27.7039 39.5476 25.6672 39.9673 23.5 39.9673ZM23.5 36.7699C26.9989 36.7699 29.9625 35.5309 32.3908 33.0529C34.8192 30.5749 36.0333 27.5508 36.0333 23.9803C36.0333 20.4099 34.8192 17.3857 32.3908 14.9078C29.9625 12.4298 26.9989 11.1908 23.5 11.1908C20.0011 11.1908 17.0375 12.4298 14.6092 14.9078C12.1808 17.3857 10.9667 20.4099 10.9667 23.9803C10.9667 27.5508 12.1808 30.5749 14.6092 33.0529C17.0375 35.5309 20.0011 36.7699 23.5 36.7699Z"/>
  </symbol>
  <symbol id="icon-info" viewBox="0 0 47 48">
<path d="M21.9333 31.9738H25.0667V22.3816H21.9333V31.9738ZM24.6163 18.7246C24.9165 18.4182 25.0667 18.0385 25.0667 17.5856C25.0667 17.1326 24.9165 16.7529 24.6163 16.4465C24.316 16.1401 23.9439 15.9869 23.5 15.9869C23.0561 15.9869 22.684 16.1401 22.3838 16.4465C22.0835 16.7529 21.9333 17.1326 21.9333 17.5856C21.9333 18.0385 22.0835 18.4182 22.3838 18.7246C22.684 19.031 23.0561 19.1843 23.5 19.1843C23.9439 19.1843 24.316 19.031 24.6163 18.7246ZM23.5 39.9673C21.3328 39.9673 19.2961 39.5476 17.39 38.7083C15.4839 37.869 13.8258 36.7299 12.4158 35.2911C11.0058 33.8523 9.88959 32.1603 9.06709 30.2152C8.24459 28.2702 7.83334 26.1919 7.83334 23.9803C7.83334 21.7688 8.24459 19.6905 9.06709 17.7454C9.88959 15.8004 11.0058 14.1084 12.4158 12.6696C13.8258 11.2308 15.4839 10.0917 17.39 9.25238C19.2961 8.41307 21.3328 7.99341 23.5 7.99341C25.6672 7.99341 27.7039 8.41307 29.61 9.25238C31.5161 10.0917 33.1742 11.2308 34.5842 12.6696C35.9942 14.1084 37.1104 15.8004 37.9329 17.7454C38.7554 19.6905 39.1667 21.7688 39.1667 23.9803C39.1667 26.1919 38.7554 28.2702 37.9329 30.2152C37.1104 32.1603 35.9942 33.8523 34.5842 35.2911C33.1742 36.7299 31.5161 37.869 29.61 38.7083C27.7039 39.5476 25.6672 39.9673 23.5 39.9673Z"/>
  </symbol>
  <symbol id="icon-instagram" viewBox="0 0 47 48">
<path d="M28.6048 7.99341C32.3492 8.00004 32.4951 8.03192 33.2269 8.13989C34.7372 8.36224 36.0049 8.97716 37.0413 9.98755C37.6221 10.5579 38.0219 11.1165 38.3821 11.8635C38.8211 12.776 39.0373 13.6393 39.136 14.9231C39.1572 15.1999 39.1663 19.5835 39.1663 23.97C39.1663 28.3537 39.1582 32.7434 39.137 33.0237C39.0394 34.2872 38.8231 35.1586 38.3978 36.054C37.5519 37.8347 35.9976 39.1338 34.1204 39.6282C33.4398 39.8077 32.8241 39.8917 31.764 39.9426C31.3857 39.9623 27.4288 39.967 23.472 39.967C19.5167 39.967 15.5639 39.955 15.1732 39.9377C14.2574 39.8935 13.5436 39.7998 12.8978 39.6301C11.0327 39.1381 9.44937 37.8199 8.62042 36.0637C8.18666 35.1462 7.98179 34.3071 7.87335 32.9739C7.84204 32.5942 7.83527 30.6425 7.83527 23.9739C7.83527 21.7265 7.83286 20.0507 7.83527 18.7776C7.84153 14.9584 7.87182 14.8056 7.97784 14.0579C8.19594 12.5179 8.79853 11.2223 9.7923 10.1692C10.3381 9.59164 10.8918 9.17893 11.5931 8.82349C12.5028 8.36122 13.338 8.14536 14.68 8.03149C15.0518 8.00001 16.9648 7.99341 23.5052 7.99341H28.6048ZM23.5052 12.0989C20.343 12.0989 19.9457 12.1125 18.7034 12.1702C17.4632 12.2281 16.616 12.4291 15.8753 12.7229C15.1093 13.0263 14.4592 13.4317 13.8118 14.092C13.1638 14.7523 12.7656 15.4155 12.4671 16.1965C12.1783 16.952 11.9819 17.8155 11.9261 19.0793C11.8705 20.3464 11.8558 20.7518 11.8558 23.9778C11.8558 27.204 11.8698 27.6081 11.9261 28.8752C11.9831 30.1398 12.1803 31.0028 12.4681 31.7581C12.7658 32.5393 13.1632 33.2023 13.8109 33.8625C14.4582 34.5233 15.1086 34.9302 15.8743 35.2336C16.6155 35.5274 17.4625 35.7275 18.7025 35.7854C19.945 35.843 20.3419 35.8577 23.5052 35.8577C26.6692 35.8577 27.0654 35.8431 28.3079 35.7854C29.5481 35.7275 30.3958 35.5274 31.137 35.2336C31.903 34.9302 32.5522 34.5233 33.1995 33.8625C33.8474 33.2023 34.2458 32.5391 34.5443 31.7581C34.8305 31.0026 35.027 30.1391 35.0853 28.8752C35.1411 27.6082 35.1556 27.2039 35.1556 23.9778C35.1556 20.7522 35.1411 20.347 35.0853 19.0803C35.027 17.8157 34.8306 16.9518 34.5443 16.1965C34.2457 15.4152 33.8475 14.7523 33.1995 14.092C32.5515 13.4313 31.903 13.0261 31.136 12.7229C30.3934 12.4291 29.5462 12.2281 28.306 12.1702C27.0639 12.1125 26.6679 12.0989 23.5052 12.0989ZM22.4622 14.2395C22.7723 14.239 23.1185 14.2395 23.5071 14.2395C26.6172 14.2395 26.986 14.251 28.2142 14.3079C29.35 14.3608 29.9666 14.5544 30.3773 14.717C30.9209 14.9324 31.3086 15.1899 31.7161 15.6057C32.1238 16.0214 32.3766 16.4176 32.5882 16.9719C32.7476 17.3902 32.9369 18.0192 32.9886 19.177C33.0444 20.429 33.0569 20.8059 33.0569 23.9758C33.0569 27.1453 33.0444 27.5218 32.9886 28.7737C32.9367 29.9315 32.7476 30.5605 32.5882 30.9788C32.377 31.5331 32.1239 31.9285 31.7161 32.344C31.3084 32.7597 30.9211 33.0174 30.3773 33.2327C29.9671 33.396 29.3498 33.5889 28.2142 33.6418C26.9863 33.6988 26.6172 33.7112 23.5071 33.7112C20.3964 33.7112 20.0272 33.6988 18.7991 33.6418C17.6634 33.5884 17.0469 33.3943 16.636 33.2317C16.0925 33.0164 15.7038 32.7596 15.2962 32.344C14.8885 31.9282 14.6368 31.5324 14.4251 30.9778C14.2657 30.5595 14.0754 29.9308 14.0237 28.7727C13.9679 27.5207 13.9564 27.1439 13.9564 23.9719C13.9564 20.8004 13.9679 20.4259 14.0237 19.1741C14.0757 18.0158 14.2657 17.3868 14.4251 16.968C14.6362 16.4138 14.8885 16.0175 15.2962 15.6018C15.7039 15.1861 16.0925 14.9289 16.636 14.7131C17.0467 14.5498 17.6634 14.3562 18.7991 14.303C19.8738 14.2535 20.291 14.2391 22.4622 14.2366V14.2395ZM23.5062 17.8772C20.2026 17.8776 17.5239 20.6091 17.5237 23.9778C17.5237 27.3468 20.2032 30.0774 23.5071 30.0774C26.8109 30.0772 29.4886 27.3467 29.4886 23.9778C29.4884 20.6089 26.81 17.8772 23.5062 17.8772ZM23.5071 20.0178C25.6515 20.018 27.3898 21.791 27.39 23.9778C27.39 26.1645 25.6515 27.9376 23.5071 27.9377C21.3624 27.9377 19.6234 26.1646 19.6234 23.9778C19.6235 21.7909 21.3625 20.0178 23.5071 20.0178ZM29.7259 16.2112C28.9541 16.2112 28.3275 16.8497 28.3275 17.637C28.3275 18.424 28.9541 19.0627 29.7259 19.0627C30.4975 19.0625 31.1234 18.4238 31.1234 17.637C31.1233 16.8501 30.4975 16.2114 29.7259 16.2112Z"/>
  </symbol>
  <symbol id="icon-left-panel-close" viewBox="0 0 47 48">
<path d="M31.3333 31.0856V16.875L24.3704 23.9803L31.3333 31.0856ZM11.3148 39.9673C10.3574 39.9673 9.53782 39.6194 8.85603 38.9237C8.17424 38.2279 7.83334 37.3916 7.83334 36.4146V11.5461C7.83334 10.5691 8.17424 9.73273 8.85603 9.037C9.53782 8.34127 10.3574 7.99341 11.3148 7.99341H35.6852C36.6426 7.99341 37.4622 8.34127 38.144 9.037C38.8258 9.73273 39.1667 10.5691 39.1667 11.5461V36.4146C39.1667 37.3916 38.8258 38.2279 38.144 38.9237C37.4622 39.6194 36.6426 39.9673 35.6852 39.9673H11.3148ZM16.537 36.4146V11.5461H11.3148V36.4146H16.537ZM20.0185 36.4146H35.6852V11.5461H20.0185V36.4146Z"/>
  </symbol>
  <symbol id="icon-left-panel-open" viewBox="0 0 47 48">
<path d="M24.3704 16.875V31.0856L31.3333 23.9803L24.3704 16.875ZM11.3148 39.9673C10.3574 39.9673 9.53782 39.6194 8.85603 38.9237C8.17424 38.2279 7.83334 37.3916 7.83334 36.4146V11.5461C7.83334 10.5691 8.17424 9.73273 8.85603 9.037C9.53782 8.34127 10.3574 7.99341 11.3148 7.99341H35.6852C36.6426 7.99341 37.4622 8.34127 38.144 9.037C38.8258 9.73273 39.1667 10.5691 39.1667 11.5461V36.4146C39.1667 37.3916 38.8258 38.2279 38.144 38.9237C37.4622 39.6194 36.6426 39.9673 35.6852 39.9673H11.3148ZM16.537 36.4146V11.5461H11.3148V36.4146H16.537ZM20.0185 36.4146H35.6852V11.5461H20.0185V36.4146Z"/>
  </symbol>
  <symbol id="icon-linkedin" viewBox="0 0 47 48">
<path fill-rule="evenodd" clip-rule="evenodd" d="M10.1442 8H36.848C38.1257 8 39.1658 9.03289 39.1658 10.3076V37.6907C39.1658 38.9653 38.1257 40 36.848 40H10.1442C8.86908 40 7.83334 38.9653 7.83334 37.6907V10.3076C7.83334 9.03289 8.86908 8 10.1442 8ZM12.1069 15.1573C12.1069 16.6773 13.3106 17.9102 14.8033 17.9102C16.2899 17.9102 17.4962 16.6773 17.4962 15.1573C17.4962 13.6382 16.2899 12.4053 14.8033 12.4053C13.3106 12.4053 12.1069 13.6382 12.1069 15.1573ZM29.8868 35.2676H34.5337V26.8924C34.5337 22.7796 33.6642 19.6178 28.9581 19.6178C26.6978 19.6178 25.1816 20.8836 24.5619 22.0844H24.4975V19.9964H20.0429V35.2676H24.6846V27.7147C24.6846 25.7218 25.0536 23.792 27.4724 23.792C29.8572 23.792 29.8868 26.0702 29.8868 27.8409V35.2676ZM12.4759 35.2676H17.128V19.9964H12.4759V35.2676Z"/>
  </symbol>
  <symbol id="icon-location" viewBox="0 0 47 48">
<path d="M25.6899 23.06C26.2971 22.4333 26.6007 21.68 26.6007 20.8C26.6007 19.92 26.2971 19.1667 25.6899 18.54C25.0827 17.9133 24.3527 17.6 23.5 17.6C22.6473 17.6 21.9174 17.9133 21.3101 18.54C20.7029 19.1667 20.3993 19.92 20.3993 20.8C20.3993 21.68 20.7029 22.4333 21.3101 23.06C21.9174 23.6867 22.6473 24 23.5 24C24.3527 24 25.0827 23.6867 25.6899 23.06ZM23.5 35.76C26.6524 32.7733 28.9908 30.06 30.5153 27.62C32.0398 25.18 32.8021 23.0133 32.8021 21.12C32.8021 18.2133 31.9042 15.8333 30.1084 13.98C28.3125 12.1267 26.1098 11.2 23.5 11.2C20.8903 11.2 18.6875 12.1267 16.8917 13.98C15.0958 15.8333 14.1979 18.2133 14.1979 21.12C14.1979 23.0133 14.9602 25.18 16.4847 27.62C18.0092 30.06 20.3476 32.7733 23.5 35.76ZM23.5 40C19.3399 36.3467 16.2328 32.9533 14.1785 29.82C12.1243 26.6867 11.0972 23.7867 11.0972 21.12C11.0972 17.12 12.344 13.9333 14.8374 11.56C17.3309 9.18667 20.2184 8 23.5 8C26.7816 8 29.6691 9.18667 32.1626 11.56C34.656 13.9333 35.9028 17.12 35.9028 21.12C35.9028 23.7867 34.8757 26.6867 32.8215 29.82C30.7673 32.9533 27.6601 36.3467 23.5 40Z"/>
  </symbol>
  <symbol id="icon-lock" viewBox="0 0 47 48">
<path d="M14.6875 39.9673C13.8797 39.9673 13.1882 39.6691 12.6129 39.0728C12.0376 38.4764 11.75 37.7595 11.75 36.9221V21.6965C11.75 20.8591 12.0376 20.1422 12.6129 19.5459C13.1882 18.9495 13.8797 18.6514 14.6875 18.6514H16.1562V15.6062C16.1562 13.5 16.8723 11.7047 18.3043 10.2202C19.7363 8.73566 21.4682 7.99341 23.5 7.99341C25.5318 7.99341 27.2637 8.73566 28.6957 10.2202C30.1277 11.7047 30.8438 13.5 30.8438 15.6062V18.6514H32.3125C33.1203 18.6514 33.8118 18.9495 34.3871 19.5459C34.9624 20.1422 35.25 20.8591 35.25 21.6965V36.9221C35.25 37.7595 34.9624 38.4764 34.3871 39.0728C33.8118 39.6691 33.1203 39.9673 32.3125 39.9673H14.6875ZM25.5746 31.4599C26.1499 30.8636 26.4375 30.1467 26.4375 29.3093C26.4375 28.4719 26.1499 27.755 25.5746 27.1587C24.9993 26.5624 24.3078 26.2642 23.5 26.2642C22.6922 26.2642 22.0007 26.5624 21.4254 27.1587C20.8501 27.755 20.5625 28.4719 20.5625 29.3093C20.5625 30.1467 20.8501 30.8636 21.4254 31.4599C22.0007 32.0563 22.6922 32.3544 23.5 32.3544C24.3078 32.3544 24.9993 32.0563 25.5746 31.4599ZM19.0938 18.6514H27.9062V15.6062C27.9062 14.3374 27.4779 13.2589 26.6211 12.3708C25.7643 11.4826 24.724 11.0385 23.5 11.0385C22.276 11.0385 21.2357 11.4826 20.3789 12.3708C19.5221 13.2589 19.0938 14.3374 19.0938 15.6062V18.6514Z"/>
  </symbol>
  <symbol id="icon-menu" viewBox="0 0 47 48">
<path d="M37.1683 31.9741C38.272 31.9741 39.1664 32.8685 39.1664 33.9722C39.1664 35.0758 38.272 35.9702 37.1683 35.9702H9.83139C8.72787 35.97 7.83334 35.0757 7.83334 33.9722C7.83334 32.8686 8.72787 31.9743 9.83139 31.9741H37.1683ZM37.1683 22.6479C38.2718 22.6479 39.1661 23.5425 39.1664 24.646C39.1664 25.7497 38.272 26.645 37.1683 26.645H9.83139C8.72787 26.6448 7.83334 25.7496 7.83334 24.646C7.83359 23.5426 8.72802 22.6481 9.83139 22.6479H37.1683ZM37.1683 13.3228C38.272 13.3228 39.1664 14.2171 39.1664 15.3208C39.1663 16.4244 38.2719 17.3188 37.1683 17.3188H9.83139C8.72792 17.3187 7.83341 16.4243 7.83334 15.3208C7.83334 14.2172 8.72787 13.3229 9.83139 13.3228H37.1683Z"/>
  </symbol>
  <symbol id="icon-menu-open" viewBox="0 0 47 48">
<path d="M7.83334 34.6382V31.0855H30.463V34.6382H7.83334ZM36.7296 32.8618L28.0259 23.9802L36.7296 15.0986L39.1667 17.5854L32.9 23.9802L39.1667 30.375L36.7296 32.8618ZM7.83334 25.7565V22.2039H25.2408V25.7565H7.83334ZM7.83334 16.8749V13.3223H30.463V16.8749H7.83334Z"/>
  </symbol>
  <symbol id="icon-metadata" viewBox="0 0 47 48">
<path d="M29.2445 21.7274L35.3806 15.3287L34.162 14.067L29.2445 19.1589L26.7639 16.5904L25.5454 17.8972L29.2445 21.7274ZM7.83334 39.3013V35.6964H28.7222V39.3013H7.83334ZM24.3051 24.0481C22.6079 22.2907 21.7593 20.1653 21.7593 17.6719C21.7593 15.1785 22.6079 13.0531 24.3051 11.2957C26.0023 9.53836 28.0549 8.65967 30.463 8.65967C32.871 8.65967 34.9236 9.53836 36.6208 11.2957C38.3181 13.0531 39.1667 15.1785 39.1667 17.6719C39.1667 20.1653 38.3181 22.2907 36.6208 24.0481C34.9236 25.8055 32.871 26.6841 30.463 26.6841C28.0549 26.6841 26.0023 25.8055 24.3051 24.0481ZM7.83334 24.8817V21.2768H18.8C19.0031 21.9377 19.2352 22.5686 19.4963 23.1694C19.7574 23.7702 20.0766 24.341 20.4537 24.8817H7.83334ZM7.83334 32.0915V28.4866H24.1963C24.8636 28.9072 25.5744 29.2601 26.3287 29.5455C27.083 29.8309 27.8809 30.0337 28.7222 30.1539V32.0915H7.83334Z"/>
  </symbol>
  <symbol id="icon-mobile" viewBox="0 0 47 48">
<path d="M15.8407 40C15.0748 40 14.4191 39.7152 13.8737 39.1455C13.3283 38.5758 13.0555 37.8909 13.0555 37.0909V10.9091C13.0555 10.1091 13.3283 9.42424 13.8737 8.85455C14.4191 8.28485 15.0748 8 15.8407 8H29.7667C30.5326 8 31.1883 8.28485 31.7337 8.85455C32.2791 9.42424 32.5518 10.1091 32.5518 10.9091V15.4182C32.9696 15.5879 33.3062 15.8545 33.5615 16.2182C33.8168 16.5818 33.9444 16.9939 33.9444 17.4545V20.3636C33.9444 20.8242 33.8168 21.2364 33.5615 21.6C33.3062 21.9636 32.9696 22.2303 32.5518 22.4V37.0909C32.5518 37.8909 32.2791 38.5758 31.7337 39.1455C31.1883 39.7152 30.5326 40 29.7667 40H15.8407ZM15.8407 37.0909H29.7667V10.9091H15.8407V37.0909ZM23.7959 14.8545C24.0628 14.5758 24.1963 14.2303 24.1963 13.8182C24.1963 13.4061 24.0628 13.0606 23.7959 12.7818C23.529 12.503 23.1983 12.3636 22.8037 12.3636C22.4091 12.3636 22.0784 12.503 21.8115 12.7818C21.5446 13.0606 21.4111 13.4061 21.4111 13.8182C21.4111 14.2303 21.5446 14.5758 21.8115 14.8545C22.0784 15.1333 22.4091 15.2727 22.8037 15.2727C23.1983 15.2727 23.529 15.1333 23.7959 14.8545Z"/>
  </symbol>
  <symbol id="icon-pause" viewBox="0 0 47 48">
<path d="M23.5003 7.99341C32.1526 7.99359 39.1664 15.1515 39.1664 23.9807C39.1662 32.8098 32.1525 39.9669 23.5003 39.967C14.848 39.967 7.83354 32.8099 7.83334 23.9807C7.83334 15.1514 14.8479 7.99341 23.5003 7.99341ZM17.6253 29.9758H21.5414V17.9856H17.6253V29.9758ZM25.4583 17.9856V29.9758H29.3753V17.9856H25.4583Z"/>
  </symbol>
  <symbol id="icon-play" viewBox="0 0 47 48">
<path d="M23.5003 7.99341C32.1527 7.99363 39.1664 15.1514 39.1664 23.9807C39.1661 32.8098 32.1525 39.9668 23.5003 39.967C14.8479 39.967 7.83359 32.8099 7.83334 23.9807C7.83334 15.1513 14.8478 7.99341 23.5003 7.99341ZM18.8558 31.1536L31.0326 23.9563L18.8558 16.759V31.1536Z"/>
  </symbol>
  <symbol id="icon-radio-button-checked" viewBox="0 0 47 48">
<path d="M28.1184 28.7167C29.3913 27.4167 30.0278 25.8445 30.0278 24.0001C30.0278 22.1556 29.3913 20.5834 28.1184 19.2834C26.8455 17.9834 25.306 17.3334 23.5 17.3334C21.694 17.3334 20.1545 17.9834 18.8816 19.2834C17.6087 20.5834 16.9722 22.1556 16.9722 24.0001C16.9722 25.8445 17.6087 27.4167 18.8816 28.7167C20.1545 30.0167 21.694 30.6667 23.5 30.6667C25.306 30.6667 26.8455 30.0167 28.1184 28.7167ZM23.5 37.3334C21.694 37.3334 19.9968 36.9834 18.4083 36.2834C16.8199 35.5834 15.4382 34.6334 14.2632 33.4334C13.0882 32.2334 12.158 30.8223 11.4726 29.2001C10.7872 27.5779 10.4445 25.8445 10.4445 24.0001C10.4445 22.1556 10.7872 20.4223 11.4726 18.8001C12.158 17.1779 13.0882 15.7667 14.2632 14.5667C15.4382 13.3667 16.8199 12.4167 18.4083 11.7167C19.9968 11.0167 21.694 10.6667 23.5 10.6667C25.306 10.6667 27.0033 11.0167 28.5917 11.7167C30.1801 12.4167 31.5618 13.3667 32.7368 14.5667C33.9118 15.7667 34.842 17.1779 35.5274 18.8001C36.2129 20.4223 36.5556 22.1556 36.5556 24.0001C36.5556 25.8445 36.2129 27.5779 35.5274 29.2001C34.842 30.8223 33.9118 32.2334 32.7368 33.4334C31.5618 34.6334 30.1801 35.5834 28.5917 36.2834C27.0033 36.9834 25.306 37.3334 23.5 37.3334ZM23.5 34.6667C26.4158 34.6667 28.8854 33.6334 30.909 31.5667C32.9327 29.5001 33.9445 26.9779 33.9445 24.0001C33.9445 21.0223 32.9327 18.5001 30.909 16.4334C28.8854 14.3667 26.4158 13.3334 23.5 13.3334C20.5843 13.3334 18.1146 14.3667 16.091 16.4334C14.0674 18.5001 13.0556 21.0223 13.0556 24.0001C13.0556 26.9779 14.0674 29.5001 16.091 31.5667C18.1146 33.6334 20.5843 34.6667 23.5 34.6667Z"/>
  </symbol>
  <symbol id="icon-radio-button-unchecked" viewBox="0 0 47 48">
<path d="M23.5 37.3334C21.694 37.3334 19.9968 36.9834 18.4083 36.2834C16.8199 35.5834 15.4382 34.6334 14.2632 33.4334C13.0882 32.2334 12.158 30.8223 11.4726 29.2001C10.7872 27.5779 10.4445 25.8445 10.4445 24.0001C10.4445 22.1556 10.7872 20.4223 11.4726 18.8001C12.158 17.1779 13.0882 15.7667 14.2632 14.5667C15.4382 13.3667 16.8199 12.4167 18.4083 11.7167C19.9968 11.0167 21.694 10.6667 23.5 10.6667C25.306 10.6667 27.0033 11.0167 28.5917 11.7167C30.1801 12.4167 31.5618 13.3667 32.7368 14.5667C33.9118 15.7667 34.842 17.1779 35.5274 18.8001C36.2129 20.4223 36.5556 22.1556 36.5556 24.0001C36.5556 25.8445 36.2129 27.5779 35.5274 29.2001C34.842 30.8223 33.9118 32.2334 32.7368 33.4334C31.5618 34.6334 30.1801 35.5834 28.5917 36.2834C27.0033 36.9834 25.306 37.3334 23.5 37.3334ZM23.5 34.6667C26.4158 34.6667 28.8854 33.6334 30.909 31.5667C32.9327 29.5001 33.9445 26.9779 33.9445 24.0001C33.9445 21.0223 32.9327 18.5001 30.909 16.4334C28.8854 14.3667 26.4158 13.3334 23.5 13.3334C20.5843 13.3334 18.1146 14.3667 16.091 16.4334C14.0674 18.5001 13.0556 21.0223 13.0556 24.0001C13.0556 26.9779 14.0674 29.5001 16.091 31.5667C18.1146 33.6334 20.5843 34.6667 23.5 34.6667Z"/>
  </symbol>
  <symbol id="icon-search" viewBox="0 0 47 48">
<path d="M36.7296 39.9673L25.763 28.7764C24.8926 29.4869 23.8917 30.0494 22.7602 30.4639C21.6287 30.8784 20.4247 31.0856 19.1482 31.0856C15.9858 31.0856 13.3094 29.968 11.119 27.7328C8.92856 25.4976 7.83334 22.7665 7.83334 19.5395C7.83334 16.3125 8.92856 13.5814 11.119 11.3462C13.3094 9.11101 15.9858 7.99341 19.1482 7.99341C22.3105 7.99341 24.9869 9.11101 27.1773 11.3462C29.3678 13.5814 30.463 16.3125 30.463 19.5395C30.463 20.8422 30.2599 22.0708 29.8537 23.2254C29.4475 24.38 28.8963 25.4014 28.2 26.2896L39.1667 37.4804L36.7296 39.9673ZM19.1482 27.533C21.3241 27.533 23.1736 26.7558 24.6968 25.2016C26.2199 23.6473 26.9815 21.7599 26.9815 19.5395C26.9815 17.3191 26.2199 15.4318 24.6968 13.8775C23.1736 12.3232 21.3241 11.5461 19.1482 11.5461C16.9722 11.5461 15.1227 12.3232 13.5995 13.8775C12.0764 15.4318 11.3148 17.3191 11.3148 19.5395C11.3148 21.7599 12.0764 23.6473 13.5995 25.2016C15.1227 26.7558 16.9722 27.533 19.1482 27.533Z"/>
  </symbol>
  <symbol id="icon-success" viewBox="0 0 47 48">
<path d="M21.3067 31.3343L32.3517 20.0635L30.1583 17.8254L21.3067 26.858L16.8417 22.3017L14.6483 24.5399L21.3067 31.3343ZM23.5 39.9673C21.3328 39.9673 19.2961 39.5476 17.39 38.7083C15.4839 37.869 13.8258 36.7299 12.4158 35.2911C11.0058 33.8523 9.88959 32.1603 9.06709 30.2152C8.24459 28.2702 7.83334 26.1919 7.83334 23.9803C7.83334 21.7688 8.24459 19.6905 9.06709 17.7454C9.88959 15.8004 11.0058 14.1084 12.4158 12.6696C13.8258 11.2308 15.4839 10.0917 17.39 9.25238C19.2961 8.41307 21.3328 7.99341 23.5 7.99341C25.6672 7.99341 27.7039 8.41307 29.61 9.25238C31.5161 10.0917 33.1742 11.2308 34.5842 12.6696C35.9942 14.1084 37.1104 15.8004 37.9329 17.7454C38.7554 19.6905 39.1667 21.7688 39.1667 23.9803C39.1667 26.1919 38.7554 28.2702 37.9329 30.2152C37.1104 32.1603 35.9942 33.8523 34.5842 35.2911C33.1742 36.7299 31.5161 37.869 29.61 38.7083C27.7039 39.5476 25.6672 39.9673 23.5 39.9673Z"/>
  </symbol>
  <symbol id="icon-success-filled" viewBox="0 0 47 48">
<path d="M21.3067 31.3343L32.3517 20.0635L30.1583 17.8254L21.3067 26.858L16.8417 22.3017L14.6483 24.5399L21.3067 31.3343ZM23.5 39.9673C21.3328 39.9673 19.2961 39.5476 17.39 38.7083C15.4839 37.869 13.8258 36.7299 12.4158 35.2911C11.0058 33.8523 9.88959 32.1603 9.06709 30.2152C8.24459 28.2702 7.83334 26.1919 7.83334 23.9803C7.83334 21.7688 8.24459 19.6905 9.06709 17.7454C9.88959 15.8004 11.0058 14.1084 12.4158 12.6696C13.8258 11.2308 15.4839 10.0917 17.39 9.25238C19.2961 8.41307 21.3328 7.99341 23.5 7.99341C25.6672 7.99341 27.7039 8.41307 29.61 9.25238C31.5161 10.0917 33.1742 11.2308 34.5842 12.6696C35.9942 14.1084 37.1104 15.8004 37.9329 17.7454C38.7554 19.6905 39.1667 21.7688 39.1667 23.9803C39.1667 26.1919 38.7554 28.2702 37.9329 30.2152C37.1104 32.1603 35.9942 33.8523 34.5842 35.2911C33.1742 36.7299 31.5161 37.869 29.61 38.7083C27.7039 39.5476 25.6672 39.9673 23.5 39.9673Z"/>
<path d="M21.3067 31.3343L32.3517 20.0635L30.1583 17.8254L21.3067 26.858L16.8417 22.3017L14.6483 24.5399L21.3067 31.3343Z"/>
  </symbol>
  <symbol id="icon-tag" viewBox="0 0 47 48">
<path d="M10.9667 36.6366C10.105 36.6366 9.36737 36.3268 8.75376 35.7072C8.14015 35.0875 7.83334 34.3427 7.83334 33.4725V14.4881C7.83334 13.6179 8.14015 12.8731 8.75376 12.2534C9.36737 11.6338 10.105 11.324 10.9667 11.324H28.2C28.6961 11.324 29.1661 11.436 29.61 11.6602C30.0539 11.8843 30.4195 12.1941 30.7067 12.5896L39.1667 23.9803L30.7067 35.371C30.4195 35.7665 30.0539 36.0763 29.61 36.3004C29.1661 36.5246 28.6961 36.6366 28.2 36.6366H10.9667Z"/>
  </symbol>
  <symbol id="icon-timeline-current" viewBox="0 0 47 48">
<path d="M23.5 40C21.3328 40 19.2961 39.58 17.39 38.74C15.4839 37.9 13.8258 36.76 12.4158 35.32C11.0058 33.88 9.88959 32.1867 9.06709 30.24C8.24459 28.2933 7.83334 26.2133 7.83334 24C7.83334 21.7867 8.24459 19.7067 9.06709 17.76C9.88959 15.8133 11.0058 14.12 12.4158 12.68C13.8258 11.24 15.4839 10.1 17.39 9.26C19.2961 8.42 21.3328 8 23.5 8C25.6672 8 27.7039 8.42 29.61 9.26C31.5161 10.1 33.1742 11.24 34.5842 12.68C35.9942 14.12 37.1104 15.8133 37.9329 17.76C38.7554 19.7067 39.1667 21.7867 39.1667 24C39.1667 26.2133 38.7554 28.2933 37.9329 30.24C37.1104 32.1867 35.9942 33.88 34.5842 35.32C33.1742 36.76 31.5161 37.9 29.61 38.74C27.7039 39.58 25.6672 40 23.5 40ZM23.5 36.8C26.9989 36.8 29.9625 35.56 32.3908 33.08C34.8192 30.6 36.0333 27.5733 36.0333 24C36.0333 20.4267 34.8192 17.4 32.3908 14.92C29.9625 12.44 26.9989 11.2 23.5 11.2C20.0011 11.2 17.0375 12.44 14.6092 14.92C12.1808 17.4 10.9667 20.4267 10.9667 24C10.9667 27.5733 12.1808 30.6 14.6092 33.08C17.0375 35.56 20.0011 36.8 23.5 36.8Z"/>
  </symbol>
  <symbol id="icon-timeline-past" viewBox="0 0 47 48">
<path d="M12.4158 35.32C13.8258 36.76 15.4839 37.9 17.39 38.74C19.2961 39.58 21.3328 40 23.5 40C25.6672 40 27.7039 39.58 29.61 38.74C31.5161 37.9 33.1742 36.76 34.5842 35.32C35.9942 33.88 37.1104 32.1867 37.9329 30.24C38.7554 28.2933 39.1667 26.2133 39.1667 24C39.1667 21.7867 38.7554 19.7067 37.9329 17.76C37.1104 15.8133 35.9942 14.12 34.5842 12.68C33.1742 11.24 31.5161 10.1 29.61 9.26C27.7039 8.42 25.6672 8 23.5 8C21.3328 8 19.2961 8.42 17.39 9.26C15.4839 10.1 13.8258 11.24 12.4158 12.68C11.0058 14.12 9.88959 15.8133 9.06709 17.76C8.24459 19.7067 7.83334 21.7867 7.83334 24C7.83334 26.2133 8.24459 28.2933 9.06709 30.24C9.88959 32.1867 11.0058 33.88 12.4158 35.32Z"/>
  </symbol>
  <symbol id="icon-top-panel-close" viewBox="0 0 47 48">
<path d="M23.5 24.8687L16.537 31.974H30.463L23.5 24.8687ZM11.3148 39.9675C10.3574 39.9675 9.53782 39.6196 8.85603 38.9239C8.17424 38.2282 7.83334 37.3918 7.83334 36.4149V11.5463C7.83334 10.5693 8.17424 9.73297 8.85603 9.03724C9.53782 8.34152 10.3574 7.99365 11.3148 7.99365H35.6852C36.6426 7.99365 37.4622 8.34152 38.144 9.03724C38.8258 9.73297 39.1667 10.5693 39.1667 11.5463V36.4149C39.1667 37.3918 38.8258 38.2282 38.144 38.9239C37.4622 39.6196 36.6426 39.9675 35.6852 39.9675H11.3148ZM35.6852 16.8753V11.5463H11.3148V16.8753H35.6852ZM11.3148 20.4279V36.4149H35.6852V20.4279H11.3148Z"/>
  </symbol>
  <symbol id="icon-top-panel-open" viewBox="0 0 47 48">
<path d="M23.5 31.974L30.463 24.8687H16.537L23.5 31.974ZM11.3148 39.9675C10.3574 39.9675 9.53782 39.6196 8.85603 38.9239C8.17424 38.2282 7.83334 37.3918 7.83334 36.4149V11.5463C7.83334 10.5693 8.17424 9.73297 8.85603 9.03724C9.53782 8.34152 10.3574 7.99365 11.3148 7.99365H35.6852C36.6426 7.99365 37.4622 8.34152 38.144 9.03724C38.8258 9.73297 39.1667 10.5693 39.1667 11.5463V36.4149C39.1667 37.3918 38.8258 38.2282 38.144 38.9239C37.4622 39.6196 36.6426 39.9675 35.6852 39.9675H11.3148ZM35.6852 16.8753V11.5463H11.3148V16.8753H35.6852ZM11.3148 20.4279V36.4149H35.6852V20.4279H11.3148Z"/>
  </symbol>
  <symbol id="icon-unlock" viewBox="0 0 47 48">
<path d="M14.6875 18.6516H27.9062V15.6065C27.9062 14.3377 27.4779 13.2592 26.6211 12.371C25.7643 11.4829 24.724 11.0388 23.5 11.0388C22.276 11.0388 21.2357 11.4829 20.3789 12.371C19.5221 13.2592 19.0937 14.3377 19.0937 15.6065H16.1562C16.1562 13.5003 16.8723 11.7049 18.3043 10.2204C19.7363 8.7359 21.4682 7.99365 23.5 7.99365C25.5318 7.99365 27.2637 8.7359 28.6957 10.2204C30.1277 11.7049 30.8437 13.5003 30.8437 15.6065V18.6516H32.3125C33.1203 18.6516 33.8118 18.9498 34.3871 19.5461C34.9624 20.1424 35.25 20.8593 35.25 21.6967V36.9224C35.25 37.7598 34.9624 38.4767 34.3871 39.073C33.8118 39.6693 33.1203 39.9675 32.3125 39.9675H14.6875C13.8797 39.9675 13.1882 39.6693 12.6129 39.073C12.0376 38.4767 11.75 37.7598 11.75 36.9224V21.6967C11.75 20.8593 12.0376 20.1424 12.6129 19.5461C13.1882 18.9498 13.8797 18.6516 14.6875 18.6516ZM25.5746 31.4602C26.1499 30.8638 26.4375 30.147 26.4375 29.3096C26.4375 28.4721 26.1499 27.7553 25.5746 27.1589C24.9993 26.5626 24.3078 26.2644 23.5 26.2644C22.6922 26.2644 22.0007 26.5626 21.4254 27.1589C20.8501 27.7553 20.5625 28.4721 20.5625 29.3096C20.5625 30.147 20.8501 30.8638 21.4254 31.4602C22.0007 32.0565 22.6922 32.3547 23.5 32.3547C24.3078 32.3547 24.9993 32.0565 25.5746 31.4602Z"/>
  </symbol>
  <symbol id="icon-upload" viewBox="0 0 47 48">
<path d="M21.5417 31.974V15.6874L16.45 20.8831L13.7083 17.9855L23.5 7.99365L33.2917 17.9855L30.55 20.8831L25.4583 15.6874V31.974H21.5417ZM11.75 39.9675C10.6729 39.9675 9.75088 39.5762 8.98386 38.7935C8.21685 38.0108 7.83334 37.0699 7.83334 35.9708V29.9757H11.75V35.9708H35.25V29.9757H39.1667V35.9708C39.1667 37.0699 38.7832 38.0108 38.0162 38.7935C37.2491 39.5762 36.3271 39.9675 35.25 39.9675H11.75Z"/>
  </symbol>
  <symbol id="icon-vertical-align-top" viewBox="0 0 47 48">
<path d="M9.79166 11.5556V8H37.2083V11.5556H9.79166ZM21.7864 40V21.8667L17.3312 26.4889L14.9323 24L23.5 15.1111L32.0677 24L29.6687 26.4889L25.2135 21.8667V40H21.7864Z"/>
  </symbol>
  <symbol id="icon-view-source" viewBox="0 0 47 48">
<path d="M10.8175 34.0073C9.99684 34.0073 9.29432 33.7052 8.70993 33.101C8.12554 32.4968 7.83334 31.7705 7.83334 30.9221V12.4109C7.83334 11.5625 8.12554 10.8361 8.70993 10.232C9.29432 9.62778 9.99684 9.32568 10.8175 9.32568H19.7699L22.754 12.4109H34.6905C35.5111 12.4109 36.2136 12.713 36.798 13.3172C37.3824 13.9213 37.6746 14.6476 37.6746 15.4961V24.8288C37.227 24.4689 36.7545 24.1732 36.2572 23.9418C35.7598 23.7104 35.2376 23.4662 34.6905 23.2091V15.4961H21.523L18.5389 12.4109H10.8175V30.9221H15.2937V34.0073H10.8175ZM28.7222 38.6351C26.4593 38.6351 24.3704 38.018 22.4556 36.7839C20.5408 35.5499 19.1482 33.853 18.2778 31.6934C19.1482 29.5337 20.5408 27.8369 22.4556 26.6028C24.3704 25.3687 26.4593 24.7517 28.7222 24.7517C30.9852 24.7517 33.0741 25.3687 34.9889 26.6028C36.9037 27.8369 38.2963 29.5337 39.1667 31.6934C38.2963 33.853 36.9037 35.5499 34.9889 36.7839C33.0741 38.018 30.9852 38.6351 28.7222 38.6351ZM32.7322 34.5472C33.988 33.8787 35.0138 32.9274 35.8095 31.6934C35.0138 30.4593 33.988 29.508 32.7322 28.8396C31.4763 28.1711 30.1397 27.8369 28.7222 27.8369C27.3048 27.8369 25.9681 28.1711 24.7123 28.8396C23.4565 29.508 22.4307 30.4593 21.6349 31.6934C22.4307 32.9274 23.4565 33.8787 24.7123 34.5472C25.9681 35.2156 27.3048 35.5499 28.7222 35.5499C30.1397 35.5499 31.4763 35.2156 32.7322 34.5472ZM27.1369 33.3324C26.7017 32.8824 26.4841 32.3361 26.4841 31.6934C26.4841 31.0506 26.7017 30.5043 27.1369 30.0544C27.5721 29.6044 28.1005 29.3795 28.7222 29.3795C29.3439 29.3795 29.8724 29.6044 30.3076 30.0544C30.7427 30.5043 30.9603 31.0506 30.9603 31.6934C30.9603 32.3361 30.7427 32.8824 30.3076 33.3324C29.8724 33.7823 29.3439 34.0073 28.7222 34.0073C28.1005 34.0073 27.5721 33.7823 27.1369 33.3324ZM10.8175 30.9221V12.4109V23.0934V21.6665V30.9221Z"/>
  </symbol>
  <symbol id="icon-visibility" viewBox="0 0 47 48">
<path d="M23.5 13.3335C16.3788 13.3335 10.2973 17.7566 7.83334 24.0002C10.2973 30.2437 16.3788 34.6668 23.5 34.6668C30.6212 34.6668 36.7027 30.2437 39.1667 24.0002C36.7027 17.7566 30.6212 13.3335 23.5 13.3335ZM23.5 31.1113C19.5691 31.1113 16.3788 27.9255 16.3788 24.0002C16.3788 20.0748 19.5691 16.8891 23.5 16.8891C27.4309 16.8891 30.6212 20.0748 30.6212 24.0002C30.6212 27.9255 27.4309 31.1113 23.5 31.1113ZM23.5 19.7335C21.1358 19.7335 19.2273 21.6393 19.2273 24.0002C19.2273 26.3611 21.1358 28.2668 23.5 28.2668C25.8643 28.2668 27.7727 26.3611 27.7727 24.0002C27.7727 21.6393 25.8643 19.7335 23.5 19.7335Z"/>
  </symbol>
  <symbol id="icon-visibility-off" viewBox="0 0 47 48">
<path d="M23.5071 15.8947C27.4398 15.8947 30.6316 19.1958 30.6316 23.2632C30.6316 24.2211 30.4463 25.12 30.1186 25.96L34.2793 30.2632C36.4309 28.4063 38.1265 26.0042 39.1667 23.2632C36.7016 16.7937 30.6173 12.2105 23.4929 12.2105C21.498 12.2105 19.5887 12.5789 17.8218 13.2421L20.8996 16.4253C21.7118 16.0863 22.581 15.8947 23.5071 15.8947ZM9.25823 11.8716L12.507 15.2316L13.1624 15.9095C10.7971 17.8105 8.94476 20.3453 7.83334 23.2632C10.2984 29.7326 16.3827 34.3158 23.5071 34.3158C25.7157 34.3158 27.8246 33.8737 29.7482 33.0779L30.3466 33.6968L34.5215 38L36.3311 36.1284L11.0678 10L9.25823 11.8716ZM17.1379 20.0211L19.3465 22.3053C19.2752 22.6147 19.2325 22.9389 19.2325 23.2632C19.2325 25.7095 21.1418 27.6842 23.5071 27.6842C23.8206 27.6842 24.1341 27.64 24.4333 27.5663L26.6419 29.8505C25.6872 30.3368 24.6328 30.6316 23.5071 30.6316C19.5744 30.6316 16.3827 27.3305 16.3827 23.2632C16.3827 22.0989 16.6677 21.0084 17.1379 20.0211ZM23.2792 18.8716L27.7676 23.5137L27.7961 23.2779C27.7961 20.8316 25.8867 18.8568 23.5214 18.8568L23.2792 18.8716Z"/>
  </symbol>
  <symbol id="icon-warning" viewBox="0 0 47 48">
<path d="M7.83334 37.9688L23.5 9.9917L39.1667 37.9688H7.83334ZM24.5148 33.128C24.7878 32.8458 24.9243 32.4961 24.9243 32.0789C24.9243 31.6617 24.7878 31.312 24.5148 31.0298C24.2418 30.7475 23.9035 30.6064 23.5 30.6064C23.0965 30.6064 22.7582 30.7475 22.4852 31.0298C22.2123 31.312 22.0758 31.6617 22.0758 32.0789C22.0758 32.4961 22.2123 32.8458 22.4852 33.128C22.7582 33.4103 23.0965 33.5514 23.5 33.5514C23.9035 33.5514 24.2418 33.4103 24.5148 33.128ZM22.0758 29.1339H24.9243V21.7715H22.0758V29.1339Z"/>
  </symbol>
</svg>
