<svg xmlns="http://www.w3.org/2000/svg" style="display:none" aria-hidden="true">
  <symbol id="icon-beatport" viewBox="0 0 49 48">
    <path d="M43.5124 34.0426C43.5124 41.7589 37.3848 48 29.555 48C21.8387 48 15.711 41.9291 15.711 34.0426C15.711 30.3546 17.1295 27.0638 19.3422 24.6241L9.92378 34.0426L4.98761 29.0496L15.5975 18.5532C17.016 17.1348 17.7536 15.2624 17.7536 13.1631V0H24.7323V13.2199C24.7323 17.2482 23.3139 20.7092 20.477 23.4894L20.1933 23.7731C22.633 21.5035 25.9805 20.1418 29.555 20.1418C37.4982 20.1418 43.5124 26.4397 43.5124 34.0426ZM37.2146 34.0426C37.2146 29.9007 33.8103 26.5532 29.6117 26.5532C25.3564 26.5532 22.0089 30.0709 22.0089 34.0426C22.0089 38.1277 25.3564 41.5887 29.555 41.5887C33.9238 41.5887 37.2146 38.0142 37.2146 34.0426Z"/>
  </symbol>
  <symbol id="icon-spotify" viewBox="0 0 48 48">
    <path d="M24 0C37.2484 1.70603e-05 48 10.7516 48 24C47.9999 37.2483 37.2483 48 24 48C10.7517 48 7.90714e-05 37.2483 0 24C0 10.7516 10.7516 0 24 0ZM34.2773 32.2256C27.3677 28.0934 19.2676 27.9388 11.3418 29.6904C10.6161 29.8453 10.0254 30.3197 10.0254 31.3164C10.0256 32.1001 10.6162 32.8447 11.5547 32.8447C11.8352 32.8447 12.3287 32.6905 12.7061 32.5938C19.6448 31.1712 26.6713 31.3261 32.71 34.9648C33.0871 35.1873 33.3388 35.3125 33.7451 35.3125C34.529 35.3125 35.2158 34.7029 35.2158 33.8223C35.2158 32.9417 34.8676 32.603 34.2773 32.2256ZM20.0029 20.7676C15.9774 20.7676 13.2292 21.3292 10.5391 22.084C9.5423 22.3646 9.03907 23.0515 9.03906 24.0869C9.03906 25.1224 9.88057 25.9648 10.916 25.9648C11.3514 25.9648 11.6031 25.8387 12.0674 25.7129C20.09 23.5355 29.1098 24.977 35.1582 28.5576C35.5066 28.7415 35.8454 28.9648 36.3486 28.9648C37.4033 28.9647 38.2159 28.1222 38.2256 27.0771C38.2256 26.2353 37.9157 25.6354 37.1318 25.1709C32.3512 22.3258 26.2835 20.7676 20.0029 20.7676ZM20.4678 12.5225C16.3162 12.5225 12.5031 12.9964 9.09668 13.9932C8.22571 14.2448 7.41309 14.9905 7.41309 16.3066C7.41325 17.5936 8.39066 18.5898 9.66797 18.5898C10.1323 18.5898 10.5677 18.4356 10.916 18.3389C18.8901 16.1131 31.2092 17.1001 38.0996 21.2129C38.5351 21.4645 38.8454 21.5898 39.3486 21.5898C40.5292 21.5897 41.5938 20.651 41.5938 19.335C41.5936 18.1836 41.0995 17.5839 40.3447 17.1484C34.9351 13.9937 27.5322 12.5225 20.4678 12.5225Z"/>
  </symbol>
  <symbol id="icon-linkedin" viewBox="0 0 48 48">
    <path fill-rule="evenodd" clip-rule="evenodd" d="M3.54 0H44.448C46.4053 0 47.9987 1.54933 47.9987 3.46133V44.536C47.9987 46.448 46.4053 48 44.448 48H3.54C1.58667 48 0 46.448 0 44.536V3.46133C0 1.54933 1.58667 0 3.54 0ZM6.54667 10.736C6.54667 13.016 8.39067 14.8653 10.6773 14.8653C12.9547 14.8653 14.8027 13.016 14.8027 10.736C14.8027 8.45733 12.9547 6.608 10.6773 6.608C8.39067 6.608 6.54667 8.45733 6.54667 10.736ZM33.784 40.9013H40.9027V28.3387C40.9027 22.1693 39.5707 17.4267 32.3613 17.4267C28.8987 17.4267 26.576 19.3253 25.6267 21.1267H25.528V17.9947H18.704V40.9013H25.8147V29.572C25.8147 26.5827 26.38 23.688 30.0853 23.688C33.7387 23.688 33.784 27.1053 33.784 29.7613V40.9013ZM7.112 40.9013H14.2387V17.9947H7.112V40.9013Z"/>
  </symbol>
  <symbol id="icon-dribble" viewBox="0 0 48 48">
    <path fill-rule="evenodd" clip-rule="evenodd" d="M24 0C10.7506 0 0 10.7506 0 24C0 37.2494 10.7506 48 24 48C37.2235 48 48 37.2494 48 24C48 10.7506 37.2235 0 24 0ZM39.8525 11.063C42.7157 14.5507 44.4341 19.0022 44.4859 23.8176L44.4169 23.8042C43.4391 23.6138 36.8547 22.3315 30.2213 23.1672C30.1302 22.9696 30.0478 22.763 29.9639 22.5528C29.9041 22.4029 29.8436 22.2513 29.7787 22.0997C29.3621 21.1104 28.8936 20.0957 28.4251 19.1323C35.9741 16.0608 39.4099 11.6357 39.8525 11.063ZM37.5878 8.69424C33.9696 5.49216 29.2061 3.54 24 3.54C22.3339 3.54 20.7202 3.7224 19.1842 4.08672L19.2119 4.12454C19.8679 5.01871 23.5293 10.0099 26.8373 16.0867C34.1256 13.3536 37.2235 9.21456 37.5878 8.69424ZM15.2798 5.46624C15.8266 6.19536 19.4707 11.2714 22.8806 17.3102C13.4654 19.8172 5.13203 19.8101 3.98418 19.8092L3.93072 19.8091C5.25792 13.4578 9.55296 8.17344 15.2798 5.46624ZM3.48816 23.4014V24.0259C3.48816 29.2843 5.49264 34.0997 8.74608 37.7179C9.21456 36.937 14.8373 27.6182 25.4054 24.2083C25.5358 24.1692 25.6724 24.1302 25.8091 24.0912C25.9458 24.0522 26.0825 24.0132 26.2128 23.9741C25.692 22.8024 25.1453 21.6312 24.5467 20.4859C14.3165 23.5574 4.37328 23.4274 3.48816 23.4014ZM24 44.5118C19.2624 44.5118 14.8896 42.8981 11.4274 40.1909C11.7917 39.4358 15.9566 31.4189 27.5141 27.384C27.5398 27.3713 27.5591 27.3648 27.5782 27.3584C27.5981 27.3517 27.6178 27.3451 27.6442 27.3317C30.5338 34.8024 31.705 41.076 32.0174 42.8722C29.5445 43.9392 26.8373 44.5118 24 44.5118ZM31.4448 26.3947C34.1256 33.7613 35.219 39.7483 35.4274 40.9978C40.0349 37.9003 43.3147 32.9803 44.1994 27.2798C43.4966 27.0456 37.8744 25.3795 31.4448 26.3947Z"/>
  </symbol>
  <symbol id="icon-youtube" viewBox="0 0 49 48">
    <path d="M24.2263 7.0166C24.2263 7.0166 39.3746 7.01648 43.1384 8.04297C44.1663 8.32119 45.1031 8.86421 45.8562 9.61719C46.6093 10.3703 47.1522 11.3079 47.4304 12.3359C49.0322 18.784 48.6624 28.9681 47.4616 35.665C47.1834 36.693 46.6404 37.6298 45.8874 38.3828C45.1343 39.1359 44.1968 39.6788 43.1687 39.957C39.4113 40.9815 24.3126 40.9834 24.2575 40.9834C24.2575 40.9834 9.10939 40.9835 5.34542 39.957C4.31734 39.6788 3.37976 39.1359 2.62667 38.3828C1.87376 37.6298 1.33064 36.6929 1.05245 35.665C-0.558869 29.2452 -0.117215 19.0547 1.0212 12.3672C1.29935 11.3391 1.84238 10.4016 2.59542 9.64844C3.34851 8.89527 4.28607 8.35248 5.31417 8.07422C9.06998 7.05001 24.1605 7.01674 24.2263 7.0166ZM19.405 31.2783L31.9714 24L19.405 16.7217V31.2783Z"/>
  </symbol>
  <symbol id="icon-apple-music" viewBox="0 0 49 48">
    <path d="M32.9932 0C33.5508 1.67702e-10 34.1085 0.000265076 34.6661 0.00292969C35.1357 0.00559635 35.6056 0.0110811 36.0753 0.0244141C37.0989 0.0524146 38.1317 0.115087 39.1436 0.301758C40.1697 0.492423 41.126 0.801116 42.0587 1.28906C42.9759 1.76907 43.8152 2.39652 44.543 3.14453C45.2707 3.8925 45.8807 4.7537 46.3477 5.69629C46.8225 6.65626 47.1244 7.63935 47.3087 8.69531C47.4902 9.73513 47.5519 10.7949 47.5792 11.8467C47.5921 12.3294 47.5971 12.8123 47.5997 13.2949C47.6023 13.8682 47.6026 14.4414 47.6026 15.0146L47.6006 32.9844C47.6006 33.5577 47.6026 34.1317 47.5987 34.7051C47.5961 35.1875 47.5902 35.6699 47.5772 36.1523C47.55 37.203 47.4893 38.2647 47.3077 39.3047C47.1235 40.3607 46.8216 41.3437 46.3467 42.3037C45.8797 43.2463 45.2698 44.1075 44.5421 44.8555C43.8143 45.6034 42.9748 46.23 42.0577 46.71C41.125 47.1979 40.17 47.5089 39.1426 47.6982C38.1308 47.8849 37.0978 47.9476 36.0743 47.9756C35.6046 47.9889 35.1347 47.9944 34.6651 47.9971C34.1072 48 33.5491 48 32.9913 48H15.5069C14.9493 48 14.3917 48.0011 13.834 47.9971C13.3645 47.9944 12.8944 47.9889 12.4249 47.9756C11.4013 47.9476 10.3684 47.8849 9.35651 47.6982C8.33031 47.5076 7.37426 47.198 6.44147 46.71C5.52427 46.23 4.68489 45.6035 3.95709 44.8555C3.22933 44.1075 2.61944 43.2463 2.1524 42.3037C1.67758 41.3437 1.37569 40.3607 1.19147 39.3047C1.00984 38.2647 0.948203 37.2044 0.920959 36.1523C0.907997 35.6699 0.903046 35.1875 0.900452 34.7051C0.897857 34.1317 0.897522 33.5577 0.897522 32.9844V15.0146C0.897522 14.4414 0.897857 13.8678 0.900452 13.2959C0.903046 12.8135 0.907997 12.3311 0.920959 11.8486C0.948203 10.798 1.00984 9.7363 1.19147 8.69629C1.37569 7.64027 1.67758 6.65729 2.1524 5.69727C2.61944 4.75465 3.22933 3.89348 3.95709 3.14551C4.68489 2.39751 5.52427 1.77102 6.44147 1.29102C7.37426 0.803006 8.32901 0.492072 9.35651 0.302734C10.3684 0.114733 11.4013 0.0537478 12.4249 0.0244141C12.8945 0.0110837 13.3645 0.00559612 13.834 0.00292969C14.3917 0.000265484 14.9493 0 15.5069 0H32.9932ZM33.67 6.55176C33.5546 6.5625 32.5327 6.74489 32.4083 6.77051L18.2383 9.65527L18.2325 9.65723C17.8632 9.73604 17.5734 9.86801 17.3497 10.0576C17.0795 10.2861 16.9291 10.6095 16.8721 10.9863C16.8602 11.0665 16.8409 11.2294 16.8409 11.4697C16.8409 11.4697 16.8409 26.078 16.8409 29.3652C16.8409 29.7835 16.8081 30.1901 16.5274 30.5361C16.2467 30.8822 15.8988 30.9865 15.4922 31.0693C15.184 31.1321 14.8757 31.1951 14.5674 31.2578C13.3968 31.4957 12.6344 31.6568 11.9444 31.9268C11.2851 32.1846 10.7917 32.5139 10.3985 32.9307C9.61849 33.7551 9.30162 34.8733 9.41022 35.9209C9.50292 36.8147 9.90148 37.6697 10.586 38.3018C11.0482 38.7294 11.626 39.0547 12.3067 39.1924C13.0124 39.3353 13.7646 39.2859 14.8633 39.0615C15.4485 38.9426 15.997 38.7565 16.5186 38.4453C17.0351 38.138 17.4777 37.7273 17.8233 37.2275C18.1702 36.7265 18.3945 36.1691 18.5176 35.5771C18.6447 34.9666 18.6749 34.4148 18.6749 33.8057V18.2852C18.6749 17.454 18.9085 17.2343 19.5733 17.0713C19.6647 17.0527 31.3488 14.6751 31.9005 14.5664C32.6672 14.4181 33.0293 14.6383 33.0294 15.4492V26.0449C33.0294 26.4644 33.0246 26.889 32.7413 27.2363C32.4605 27.5824 32.1136 27.6867 31.7071 27.7695C31.3986 27.8323 31.0898 27.8952 30.7813 27.958C29.6108 28.1958 28.8491 28.358 28.1592 28.6279C27.4999 28.8858 27.0056 29.214 26.6124 29.6309C25.8324 30.4553 25.4882 31.5745 25.5967 32.6221C25.6895 33.5159 26.1163 34.371 26.8008 35.0029C27.263 35.4305 27.8409 35.7458 28.5215 35.8848C29.2272 36.0276 29.9793 35.977 31.0782 35.7539C31.6635 35.635 32.2117 35.4568 32.7335 35.1455C33.2499 34.8382 33.6925 34.4284 34.0381 33.9287C34.3851 33.4276 34.6093 32.8703 34.7325 32.2783C34.8596 31.6678 34.8643 31.116 34.8643 30.5068V7.81543C34.867 6.9923 34.4368 6.48494 33.67 6.55176Z"/>
  </symbol>
  <symbol id="icon-amazon-music" viewBox="0 0 49 48">
    <g clip-path="url(#clip0_2601_3974)">
<path d="M36.9513 9.974C36.5795 9.974 36.3117 10.0873 36.099 10.31C35.8866 10.5324 35.7825 10.8089 35.7825 11.1428C35.7825 11.4768 35.8866 11.8088 36.099 11.9757C36.3117 12.1984 36.5795 12.3117 36.9513 12.3117C37.3232 12.3117 37.5909 12.1984 37.8036 11.9757C38.016 11.7533 38.1201 11.4768 38.1201 11.1428C38.1201 10.8089 38.065 10.4769 37.8523 10.31C37.6398 10.0873 37.3232 9.974 36.9513 9.974ZM6.07469 13.7143C4.88436 13.7143 3.69495 14.1421 2.50493 14.9464L2.39288 14.3571C2.39288 14.1963 2.34036 14.1428 2.2322 14.0892C2.17812 14.0356 2.07246 14.0356 1.96431 14.0356H1.09734C0.826954 14.0358 0.717552 14.1428 0.717552 14.4109V23.3135C0.717552 23.5815 0.826799 23.6884 1.0975 23.6884H2.23205C2.5029 23.6884 2.61199 23.5817 2.61199 23.3135V16.0716C3.53194 15.5353 4.45314 15.2144 5.42701 15.2144C5.96779 15.2144 6.3454 15.3749 6.56171 15.6966C6.77817 16.0184 6.94166 16.4509 6.94166 17.0944V23.2599C6.94166 23.5279 7.04607 23.6348 7.31662 23.6348H8.45615C8.72669 23.6348 8.83127 23.5281 8.83127 23.2599V16.0716C9.80529 15.4817 10.7263 15.2144 11.6461 15.2144C12.1872 15.2144 12.5645 15.3749 12.7808 15.6966C12.9974 16.0184 13.1608 16.4509 13.1608 17.0944V23.2599C13.1608 23.5279 13.27 23.6348 13.5406 23.6348H14.6753C14.946 23.6348 15.0552 23.5281 15.0552 23.2599V16.5586C15.0552 15.6469 14.8408 14.9471 14.3539 14.4643C13.8669 13.9817 13.2138 13.7143 12.2938 13.7143C11.0494 13.7143 9.75418 14.1421 8.50976 15.0536C8.07698 14.1419 7.26503 13.7143 6.07469 13.7143ZM31.1608 13.7143C30.1436 13.7143 29.2902 13.9845 28.6478 14.4692C28.0054 14.9538 27.6834 15.6533 27.6834 16.461C27.6834 17.6997 28.3808 18.6156 29.7728 19.1542L31.3751 19.7436C31.9104 19.9591 32.2324 20.1223 32.4465 20.3376C32.6606 20.553 32.7144 20.7695 32.7142 21.0925C32.7142 21.5235 32.5536 21.8998 32.2322 22.1152C31.911 22.3306 31.4329 22.4903 30.8441 22.4902C29.934 22.4902 29.0757 22.3846 28.2192 22.1152C28.0051 22.0614 27.8441 22.0081 27.737 22.0081C27.5765 22.0081 27.5227 22.1139 27.5227 22.3295V22.8701C27.5227 23.0317 27.5765 23.1372 27.63 23.2451C27.6834 23.2988 27.7906 23.4054 27.9513 23.4593C28.8078 23.8362 29.7736 24 30.8441 24C31.9684 24 32.8221 23.7299 33.5179 23.1915C34.2141 22.6527 34.5357 21.9544 34.5357 21.0389C34.5357 20.3926 34.3749 19.9064 34.0536 19.4757C33.7325 19.0987 33.1959 18.7222 32.4465 18.4529L30.9513 17.8588C30.3624 17.6432 29.9333 17.4313 29.7728 17.2159C29.5585 17.0005 29.4513 16.7844 29.4513 16.4074C29.4513 15.5997 30.0365 15.1705 31.2678 15.1705C31.9637 15.1705 32.6612 15.2764 33.3036 15.4918C33.5178 15.5457 33.6787 15.599 33.7322 15.599C33.8927 15.599 34.0001 15.4931 33.9999 15.2775V14.7369C33.9999 14.5756 33.9463 14.4696 33.8929 14.3619C33.8393 14.2541 33.732 14.1968 33.5714 14.1428C32.7683 13.8737 31.9635 13.7143 31.1608 13.7143ZM44.7339 13.7143C43.2245 13.7143 42.0946 14.1472 41.2322 15.0632C40.4237 15.9254 39.9903 17.2164 39.9903 18.8328C39.9903 20.4492 40.3652 21.6865 41.1738 22.5488C41.9823 23.4109 43.1174 23.8441 44.6266 23.8441C45.4352 23.8441 46.1912 23.7386 46.7841 23.4692C46.9459 23.4152 47.0517 23.3576 47.1055 23.25C47.1594 23.196 47.1591 23.0365 47.1591 22.8749V22.3343C47.1591 22.065 47.053 21.9593 46.8912 21.9593C46.8374 21.9593 46.7263 21.959 46.6185 22.013C46.0257 22.1746 45.4334 22.2809 44.8945 22.2809C43.8703 22.2809 43.115 22.0112 42.63 21.4723C42.1448 20.9336 41.9287 20.0713 41.9287 18.9399V18.672C41.9826 17.4866 42.1984 16.6248 42.6834 16.0861C43.1686 15.5471 43.9236 15.2775 45.0016 15.2775C45.5408 15.2775 46.08 15.33 46.565 15.4918C46.7268 15.5456 46.7834 15.5454 46.8912 15.5454C47.0528 15.5454 47.1591 15.4399 47.1591 15.1705V14.6298C47.1591 14.4681 47.106 14.3086 47.0519 14.2549C46.998 14.201 46.8872 14.0897 46.7792 14.0358C46.0786 13.874 45.3806 13.7143 44.7339 13.7143ZM17.7728 14.0259C17.5027 14.0259 17.3929 14.1361 17.3929 14.4059V21.0876C17.3929 22.0042 17.6084 22.7598 18.0942 23.2451C18.5801 23.7302 19.2803 24 20.1981 24C21.4397 24 22.6824 23.5672 23.8701 22.7046L23.9773 23.3523C23.9773 23.5139 24.0348 23.5709 24.1428 23.625C24.1969 23.6788 24.3024 23.6786 24.4643 23.6786H25.2727C25.5427 23.6786 25.6526 23.5681 25.6526 23.2987V14.4057C25.6526 14.1361 25.5427 14.0259 25.2727 14.0259H24.1428C23.8188 14.0259 23.7094 14.1901 23.7094 14.4059V21.5747C22.7915 22.1679 21.8756 22.4902 20.9578 22.4902C20.364 22.4902 19.9322 22.3267 19.6623 22.0033C19.3924 21.6796 19.2825 21.1942 19.2825 20.4935V14.4057C19.2825 14.1361 19.1726 14.0259 18.9027 14.0259H17.7728ZM36.4691 14.0259C36.202 14.0259 36.0942 14.1325 36.0942 14.4009V23.3133C36.0942 23.5817 36.202 23.6883 36.4691 23.6883H37.5893C37.8565 23.6883 37.9643 23.5817 37.9643 23.3133V14.4009C37.9643 14.1862 37.8565 14.0259 37.5893 14.0259H36.4691ZM44.8751 27.2727C43.1466 27.2727 41.094 27.6512 39.5276 28.7337C39.0413 29.0585 39.1486 29.4939 39.6348 29.4399C41.3093 29.2232 45.0886 28.7881 45.7906 29.6542C46.439 30.52 45.0362 34.0943 44.388 35.664C44.226 36.1511 44.6031 36.3101 45.0893 35.9853C47.8981 33.6039 48.6543 28.6781 48.06 27.9204C47.79 27.5956 46.4955 27.2727 44.8751 27.2727ZM0.663942 28.2078C0.286175 28.2078 0.0717337 28.6357 0.449656 29.0113C6.71038 34.6444 15.0211 38.0259 24.1964 38.0259C30.7811 38.0259 38.3882 35.9863 43.6233 32.1233C44.5411 31.4796 43.7862 30.5157 42.8686 30.8912C36.9854 33.3592 30.5661 34.5925 24.737 34.5925C16.1014 34.5925 7.7321 32.2315 0.985448 28.315C0.877448 28.2612 0.771941 28.2078 0.663942 28.2078Z"/>
</g>
<defs>
<clipPath id="clip0_2601_3974">
<rect width="48" height="48" transform="translate(0.25)"/>
</clipPath>
</defs>
  </symbol>
  <symbol id="icon-soundcloud" viewBox="0 0 49 48">
    <path d="M41.0498 0C45.0263 0 48.25 3.22374 48.25 7.2002V40.7998C48.25 44.7763 45.0263 48 41.0498 48H7.4502C3.47374 48 0.25 44.7763 0.25 40.7998V7.2002C0.25 3.22374 3.47374 0 7.4502 0H41.0498ZM13.5625 21.1875C13.5625 20.7188 13 20.7188 13 21.1875L12.7188 27.375L12.9062 31.125C12.9062 31.875 13.5625 31.875 13.5625 31.125L13.9375 27.375L13.5625 21.1875ZM15.1562 19.7812C15.1562 19.2188 14.5 19.2188 14.5 19.7812L14.2188 27.375L14.4062 31.125C14.4062 31.875 15.1562 31.875 15.1562 31.125L15.4375 27.375L15.1562 19.7812ZM16.6562 19.125C16.6562 18.5625 16 18.5625 16 19.125L15.7188 27.375L15.9062 31.125C15.9062 31.875 16.6562 31.875 16.6562 31.125L16.9375 27.375L16.6562 19.125ZM18.25 18.8438C18.25 18.2813 17.5 18.2813 17.5 18.8438L17.2188 27.375L17.5 31.125C17.5 31.875 18.25 31.875 18.25 31.125L18.5312 27.375L18.25 18.8438ZM19.8438 19.0312C19.8437 18.4688 19 18.4688 19 19.0312L18.8125 27.375L19 31.125C19 31.875 19.8438 31.875 19.8438 31.125L20.125 27.375L19.8438 19.0312ZM21.4375 19.4062C21.4375 18.75 20.5938 18.75 20.5938 19.4062L20.4062 27.375L20.5 31.125C20.5 31.875 21.4375 31.875 21.4375 31.125L21.625 27.375L21.4375 19.4062ZM23.0312 17.8125C23.0312 17.1563 22.0938 17.1563 22.0938 17.8125L21.9062 27.375L22.0938 31.125C22.0938 31.875 23.0312 31.875 23.0312 31.125L23.2188 27.375L23.0312 17.8125ZM24.625 16.9688C24.625 16.3125 23.6875 16.3125 23.6875 16.9688L23.4062 27.375L23.6875 31.125C23.6875 31.875 24.625 31.875 24.625 31.125L24.9062 27.375L24.625 16.9688ZM36.625 22.7812C36.1562 17.4375 30.625 13.9688 25.5625 15.9375C25.1875 16.125 25.0938 16.2188 25.0938 16.5V31.125C25.0938 31.4062 25.2812 31.6875 25.5625 31.6875H38.4062C40.9375 31.6875 43 29.625 43 27.0938C43 23.625 39.7188 21.75 36.625 22.7812ZM12.0625 23.5312C12.0625 23.25 11.5 23.25 11.5 23.5312L11.2188 27.375L11.5 31.125C11.5 31.7812 12.0625 31.7812 12.0625 31.125L12.3438 27.375L12.0625 23.5312ZM10.4688 23.25C10.4687 22.9688 10.0938 22.9688 10.0938 23.25L9.71875 27.375L10 31.125C10 31.6875 10.4688 31.6875 10.4688 31.125L10.8438 27.375L10.4688 23.25ZM8.96875 23.3438C8.96875 23.0625 8.59375 23.0625 8.59375 23.3438L8.21875 27.375L8.59375 31.125C8.59375 31.5 8.96875 31.5 8.96875 31.125L9.34375 27.375L8.96875 23.3438ZM7.46875 24C7.46875 23.7188 7.1875 23.7188 7.1875 24L6.71875 27.375L7.09375 30.6562C7.09375 30.9375 7.46875 30.9375 7.46875 30.6562L7.84375 27.375L7.46875 24ZM6.0625 25.3125C6.0625 25.0313 5.78125 25.0313 5.78125 25.3125L5.5 27.375L5.78125 29.4375C5.78125 29.625 6.0625 29.625 6.0625 29.4375L6.34375 27.375L6.0625 25.3125Z"/>
  </symbol>
  <symbol id="icon-deezer" viewBox="0 0 49 48">
    <path d="M37.46 11.45C37.82 9.35902 38.35 8.04402 38.936 8.04102C40.03 8.04502 40.917 12.606 40.917 18.237C40.917 23.868 40.03 28.432 38.935 28.432C38.486 28.432 38.072 27.657 37.739 26.358C37.212 31.113 36.118 34.381 34.852 34.381C33.872 34.381 32.993 32.418 32.403 29.321C32 35.21 30.986 39.388 29.801 39.388C29.057 39.388 28.378 37.732 27.876 35.037C27.272 40.601 25.877 44.5 24.251 44.5C22.625 44.5 21.226 40.602 20.625 35.037C20.126 37.732 19.448 39.387 18.701 39.387C17.515 39.387 16.503 35.21 16.098 29.322C15.508 32.418 14.631 34.382 13.649 34.382C12.384 34.382 11.289 31.114 10.762 26.358C10.432 27.661 10.015 28.432 9.566 28.432C8.471 28.432 7.583 23.868 7.583 18.237C7.583 12.606 8.471 8.04002 9.566 8.04002C10.154 8.04002 10.679 9.35902 11.044 11.45C11.628 7.84302 12.577 5.49902 13.649 5.49902C14.922 5.49902 16.026 8.81402 16.548 13.627C17.058 10.124 17.834 7.89102 18.702 7.89102C19.918 7.89102 20.952 12.283 21.335 18.411C22.055 15.269 23.099 13.298 24.253 13.298C25.407 13.298 26.45 15.27 27.169 18.41C27.554 12.283 28.587 7.89002 29.803 7.89002C30.67 7.89002 31.443 10.124 31.957 13.627C32.477 8.81402 33.581 5.49902 34.855 5.49902C35.923 5.49902 36.875 7.84502 37.46 11.45ZM4.75 17.234C4.75 14.717 5.386 12.676 6.171 12.676C6.956 12.676 7.593 14.716 7.593 17.234C7.593 19.752 6.957 21.792 6.171 21.792C5.385 21.792 4.75 19.752 4.75 17.234ZM40.919 17.234C40.919 14.717 41.553 12.676 42.335 12.676C43.117 12.676 43.751 14.716 43.751 17.234C43.751 19.752 43.117 21.792 42.335 21.792C41.553 21.792 40.919 19.752 40.919 17.234Z"/>
  </symbol>
  <symbol id="icon-facebook" viewBox="0 0 49 48">
    <g clip-path="url(#clip0_2601_3985)">
<mask id="mask0_2601_3985" style="mask-type:luminance" maskUnits="userSpaceOnUse" x="-10" y="-10" width="68" height="68">
<path d="M-9.34998 -9.59998H57.85V57.6H-9.34998V-9.59998Z"/>
</mask>
<g mask="url(#mask0_2601_3985)">
<path d="M27.7123 47.7506C39.3264 46.0723 48.2504 36.0785 48.2504 23.9996C48.2501 10.7452 37.5049 -0.000164032 24.2504 -0.000366211C10.9957 -0.000366211 0.250605 10.745 0.250366 23.9996C0.250366 35.2551 7.99899 44.7 18.4525 47.2936V31.3346H13.5033V23.9996H18.4525V20.8395C18.4526 17.0107 19.2646 14.1448 20.9535 12.1803C21.0661 12.0493 21.1827 11.9224 21.3031 11.7994C21.6643 11.4305 22.0604 11.0971 22.4926 10.7994C22.6367 10.7002 22.7848 10.6047 22.9369 10.5133C23.3171 10.2848 23.7223 10.0808 24.1527 9.901C24.4108 9.79321 24.6782 9.69458 24.9545 9.60413C26.2445 9.18185 27.7338 8.94804 29.4291 8.89612C29.6713 8.8887 29.9177 8.8844 30.1683 8.8844C30.3584 8.8844 30.5662 8.88934 30.7855 8.89807C32.3209 8.95921 34.447 9.22018 35.3861 9.48108V16.1295C35.2446 16.1146 35.077 16.1016 34.8861 16.0905C34.5041 16.0681 34.0289 16.053 33.4828 16.0455C33.2098 16.0418 32.9192 16.0397 32.6136 16.0397C32.4906 16.0397 32.3697 16.0416 32.2513 16.0446C28.703 16.1328 27.2525 17.5553 27.1625 21.0494C27.1595 21.1659 27.1576 21.2847 27.1576 21.4059V23.9996H34.9965L33.6498 31.3346H27.1576V47.8239L27.7123 47.7506Z"/>
</g>
</g>
<defs>
<clipPath id="clip0_2601_3985">
<rect width="48" height="48" transform="translate(0.25)"/>
</clipPath>
</defs>
  </symbol>
  <symbol id="icon-instagram" viewBox="0 0 49 48">
    <path d="M32.0695 0C37.806 0.00996087 38.0294 0.0576146 39.1506 0.219727C41.4645 0.553536 43.4066 1.4772 44.9943 2.99414C45.8838 3.85034 46.4962 4.68823 47.048 5.80957C47.7206 7.17948 48.051 8.47585 48.2023 10.4033C48.2348 10.8212 48.2502 17.4006 48.2502 23.9844C48.2502 30.5694 48.2367 37.1636 48.2043 37.5771C48.0547 39.4739 47.724 40.781 47.0724 42.125C45.7767 44.7984 43.3955 46.748 40.5197 47.4902C39.4768 47.7598 38.5336 47.8864 36.9094 47.9629C36.3298 47.9924 30.2679 48 24.2062 48C18.1447 48 12.0867 47.9819 11.4924 47.9561C10.0898 47.8896 8.99722 47.7489 8.00798 47.4941C5.15066 46.7556 2.72517 44.7762 1.45525 42.1396C0.790783 40.7623 0.476842 39.5033 0.310719 37.502C0.262716 36.9333 0.251149 34.0046 0.251149 23.9902C0.251148 20.6165 0.247466 18.1007 0.251149 16.1895C0.260747 10.456 0.308457 10.227 0.470875 9.10449C0.804965 6.79226 1.7275 4.84677 3.25017 3.26562C4.08622 2.39871 4.93394 1.78063 6.00798 1.24707C7.40196 0.552877 8.68223 0.228585 10.7385 0.0576172C11.3092 0.0103913 14.241 0 24.258 0H32.0695ZM24.257 6.16309C19.4126 6.16309 18.8039 6.18493 16.9006 6.27148C15.0009 6.35844 13.7042 6.65864 12.5695 7.09961C11.3957 7.55509 10.3994 8.16464 9.4074 9.15625C8.41495 10.1473 7.80508 11.1421 7.34783 12.3145C6.90537 13.4487 6.60423 14.7458 6.51873 16.6436C6.4336 18.5454 6.4113 19.1542 6.4113 23.9971C6.41131 28.8402 6.43346 29.4464 6.5197 31.3486C6.60711 33.247 6.90788 34.5429 7.3488 35.6768C7.80499 36.8496 8.41418 37.8448 9.40642 38.8359C10.398 39.8279 11.3945 40.439 12.5676 40.8945C13.7029 41.3354 15.0003 41.6357 16.8996 41.7227C18.803 41.8092 19.4111 41.8301 24.257 41.8301C29.1039 41.8301 29.7111 41.8092 31.6144 41.7227C33.5142 41.6357 34.813 41.3355 35.9484 40.8945C37.1218 40.4391 38.1161 39.8278 39.1076 38.8359C40.1003 37.8447 40.7108 36.8493 41.1681 35.6768C41.6068 34.5426 41.908 33.2462 41.9972 31.3486C42.0827 29.4465 42.1047 28.8401 42.1047 23.9971C42.1047 19.1538 42.0827 18.5457 41.9972 16.6436C41.908 14.7452 41.6068 13.4492 41.1681 12.3154C40.7108 11.1425 40.1003 10.1475 39.1076 9.15625C38.1149 8.16426 37.1223 7.55473 35.9474 7.09961C34.8098 6.65863 33.5122 6.35844 31.6125 6.27148C29.7092 6.18493 29.1027 6.16309 24.257 6.16309ZM22.6584 9.37695C23.1336 9.37621 23.6643 9.37695 24.2599 9.37695C29.0245 9.37695 29.5895 9.39406 31.4709 9.47949C33.2106 9.55899 34.1553 9.84969 34.7844 10.0938C35.6172 10.417 36.2119 10.8036 36.8361 11.4277C37.4606 12.0518 37.8469 12.6464 38.1711 13.4785C38.4153 14.1064 38.7071 15.0503 38.7863 16.7891C38.8718 18.6687 38.8898 19.2341 38.8898 23.9932C38.8898 28.7517 38.8718 29.3168 38.7863 31.1963C38.7067 32.9349 38.4153 33.879 38.1711 34.5068C37.8476 35.339 37.4606 35.932 36.8361 36.5557C36.2115 37.1798 35.6176 37.5664 34.7844 37.8896C34.156 38.1348 33.2105 38.4244 31.4709 38.5039C29.5899 38.5893 29.0245 38.6084 24.2599 38.6084C19.4945 38.6084 18.9294 38.5894 17.048 38.5039C15.3082 38.4237 14.364 38.1328 13.7345 37.8887C12.9018 37.5655 12.3064 37.1797 11.6818 36.5557C11.0572 35.9315 10.6701 35.3384 10.3459 34.5059C10.1016 33.878 9.81081 32.934 9.73162 31.1953C9.6461 29.3154 9.62908 28.7506 9.62908 23.9883C9.62908 19.226 9.6461 18.6641 9.73162 16.7842C9.81117 15.0459 10.1016 14.1022 10.3459 13.4736C10.6693 12.6415 11.0573 12.0469 11.6818 11.4229C12.3064 10.7987 12.9017 10.4119 13.7345 10.0879C14.3636 9.8427 15.3083 9.55255 17.048 9.47266C18.6943 9.39835 19.3325 9.37679 22.6584 9.37305V9.37695ZM24.259 14.8389C19.1979 14.8393 15.0949 18.9397 15.0949 23.9971C15.095 29.0546 19.1986 33.1533 24.2599 33.1533C29.3212 33.1532 33.4229 29.0545 33.423 23.9971C33.423 18.9394 29.3204 14.8389 24.259 14.8389ZM24.2599 18.0527C27.5451 18.0529 30.2082 20.7139 30.2082 23.9971C30.2081 27.2797 27.545 29.9413 24.2599 29.9414C20.9744 29.9414 18.3108 27.2798 18.3107 23.9971C18.3107 20.7139 20.9743 18.0527 24.2599 18.0527ZM33.5676 12.3496C32.4878 12.459 31.6447 13.3695 31.6447 14.4775C31.6448 15.659 32.604 16.6172 33.7863 16.6172C34.9685 16.6171 35.9279 15.6589 35.9279 14.4775C35.9279 13.2961 34.9686 12.338 33.7863 12.3379L33.5676 12.3496Z"/>
  </symbol>
  <symbol id="icon-phone-square" viewBox="0 0 49 48">
    <path d="M44.25 0C46.4591 0 48.25 1.79086 48.25 4V44C48.25 46.2091 46.4591 48 44.25 48H4.25C2.04086 48 0.25 46.2091 0.25 44V4C0.25 1.79086 2.04086 6.44256e-08 4.25 0H44.25ZM16.375 7.5C15.7537 7.5 15.25 8.00368 15.25 8.625V39.375C15.25 39.9963 15.7537 40.5 16.375 40.5H32.9824C33.6036 40.4999 34.1074 39.9962 34.1074 39.375V8.625C34.1074 8.00377 33.6036 7.50015 32.9824 7.5H16.375ZM24.6787 36.375C25.2572 36.3751 25.7266 36.8368 25.7266 37.4062C25.7266 37.9757 25.2572 38.4374 24.6787 38.4375C24.1001 38.4375 23.6309 37.9758 23.6309 37.4062C23.6309 36.8367 24.1001 36.375 24.6787 36.375ZM32.0117 13.6875V34.3125H17.3457V13.6875H32.0117ZM25.4453 10.0781C25.6005 10.0783 25.7266 10.2042 25.7266 10.3594V10.8281C25.7266 10.9833 25.6005 11.1092 25.4453 11.1094H19.7217C19.5664 11.1094 19.4404 10.9834 19.4404 10.8281V10.3594C19.4404 10.2041 19.5664 10.0781 19.7217 10.0781H25.4453ZM29.3926 10.0781C29.6819 10.0781 29.917 10.309 29.917 10.5938C29.917 10.8785 29.6819 11.1094 29.3926 11.1094C29.1034 11.1092 28.8691 10.8784 28.8691 10.5938C28.8691 10.3091 29.1034 10.0783 29.3926 10.0781Z"/>
  </symbol>
  <symbol id="icon-menu" viewBox="0 0 49 48">
    <path d="M44.25 0C46.4591 0 48.25 1.79086 48.25 4V44C48.25 46.2091 46.4591 48 44.25 48H4.25C2.04086 48 0.25 46.2091 0.25 44V4C0.25 1.79086 2.04086 6.44256e-08 4.25 0H44.25ZM7.75 31.5C6.92157 31.5 6.25 32.1716 6.25 33C6.25 33.8284 6.92157 34.5 7.75 34.5H40.75C41.5784 34.5 42.25 33.8284 42.25 33C42.25 32.1716 41.5784 31.5 40.75 31.5H7.75ZM7.75 22.5C6.92157 22.5 6.25 23.1716 6.25 24C6.25 24.8284 6.92157 25.5 7.75 25.5H40.75C41.5784 25.5 42.25 24.8284 42.25 24C42.25 23.1716 41.5784 22.5 40.75 22.5H7.75ZM7.75 13.5C6.92157 13.5 6.25 14.1716 6.25 15C6.25 15.8284 6.92157 16.5 7.75 16.5H40.75C41.5784 16.5 42.25 15.8284 42.25 15C42.25 14.1716 41.5784 13.5 40.75 13.5H7.75Z"/>
  </symbol>
  <symbol id="icon-close-square" viewBox="0 0 49 48">
    <path d="M44.25 0C46.4591 0 48.25 1.79086 48.25 4V44C48.25 46.2091 46.4591 48 44.25 48H4.25C2.04086 48 0.25 46.2091 0.25 44V4C0.25 1.79086 2.04086 6.44256e-08 4.25 0H44.25ZM16.957 15.707C16.5665 15.3166 15.9335 15.3166 15.543 15.707C15.1525 16.0975 15.1525 16.7306 15.543 17.1211L22.8359 24.4141L15.957 31.293C15.5666 31.6835 15.5666 32.3165 15.957 32.707C16.3475 33.0975 16.9806 33.0975 17.3711 32.707L24.25 25.8281L31.0996 32.6777C31.4902 33.068 32.1232 33.0682 32.5137 32.6777C32.904 32.2873 32.904 31.6542 32.5137 31.2637L25.6641 24.4141L32.9277 17.1504C33.318 16.7598 33.3182 16.1268 32.9277 15.7363C32.5373 15.346 31.9042 15.346 31.5137 15.7363L24.25 23L16.957 15.707Z"/>
  </symbol>
  <symbol id="icon-close" viewBox="0 0 49 48">
    <path d="M4.85 48L0 43.2L19.4 24L0 4.8L4.85 0L24.25 19.2L43.65 0L48.5 4.8L29.1 24L48.5 43.2L43.65 48L24.25 28.8L4.85 48Z"/>
  </symbol>
  <symbol id="icon-logo-iconic" viewBox="0 0 49 48">
    <path d="M13.8545 6.57324C12.8453 6.57326 11.9262 6.67811 11.0967 6.88574C10.2809 7.07959 9.64477 7.4187 9.18848 7.90332C8.74609 8.38787 8.5589 9.05205 8.62793 9.89648L9.49902 18.4131C9.62342 19.576 9.55466 20.5383 9.29199 21.2998C9.02933 22.0612 8.58686 22.6567 7.96484 23.0859C7.35654 23.5151 6.57499 23.82 5.62109 24C6.58875 24.1662 7.38374 24.4568 8.00586 24.8721C8.62808 25.2736 9.06361 25.8556 9.3125 26.6172C9.56133 27.3649 9.62343 28.3547 9.49902 29.5869L8.62793 38.1025C8.55879 38.961 8.74601 39.6335 9.18848 40.1182C9.63092 40.6026 10.2673 40.9419 11.0967 41.1357C11.9261 41.3295 12.8454 41.4258 13.8545 41.4258V44.168C12.6932 44.168 11.5802 44.0641 10.5156 43.8564C9.45094 43.6626 8.51013 43.3235 7.69434 42.8389C6.87864 42.3542 6.26341 41.6893 5.84863 40.8447C5.43383 40.0139 5.29533 38.9614 5.43359 37.6875L6.26367 29.7949C6.37428 28.8396 6.28443 28.0365 5.99414 27.3857C5.71762 26.735 5.10908 26.2435 4.16895 25.9111C3.24253 25.565 1.85282 25.3916 0 25.3916V22.6084C1.85278 22.6084 3.24253 22.4427 4.16895 22.1104C5.10918 21.778 5.7176 21.2856 5.99414 20.6348C6.28432 19.9841 6.37418 19.1883 6.26367 18.2471L5.43359 10.3125C5.29533 9.03863 5.43385 7.98607 5.84863 7.15527C6.26344 6.31063 6.87188 5.64577 7.67383 5.16113C8.48962 4.67649 9.43044 4.33741 10.4951 4.14355C11.5734 3.93591 12.6932 3.83204 13.8545 3.83203V6.57324ZM34.6455 3.83203C35.8068 3.83204 36.9198 3.93589 37.9844 4.14355C39.0491 4.33741 39.9899 4.67649 40.8057 5.16113C41.6214 5.64576 42.2366 6.31069 42.6514 7.15527C43.08 7.98607 43.2185 9.03863 43.0664 10.3125L42.2363 18.2471C42.1258 19.1883 42.2434 19.9841 42.5889 20.6348C42.9483 21.2855 43.598 21.778 44.5381 22.1104C45.4783 22.4427 46.7993 22.6084 48.5 22.6084V25.3916C46.8131 25.3916 45.4922 25.565 44.5381 25.9111C43.5981 26.2435 42.9483 26.7351 42.5889 27.3857C42.2433 28.0365 42.1257 28.8396 42.2363 29.7949L43.0664 37.6875C43.2047 38.9614 43.0662 40.0139 42.6514 40.8447C42.2366 41.6893 41.6214 42.3542 40.8057 42.8389C40.0037 43.3235 39.0629 43.6626 37.9844 43.8564C36.9198 44.0641 35.8068 44.168 34.6455 44.168V41.4258C35.6547 41.4258 36.5671 41.3295 37.3828 41.1357C38.2122 40.9419 38.8553 40.6026 39.3115 40.1182C39.7678 39.6335 39.955 38.961 39.8721 38.1025L39.001 29.5869C38.8766 28.3548 38.9454 27.3648 39.208 26.6172C39.4707 25.8557 39.9408 25.2736 40.6182 24.8721C41.3095 24.4705 42.2159 24.1943 43.3359 24.042C42.2574 23.862 41.372 23.5495 40.6807 23.1064C40.0033 22.6634 39.5265 22.0612 39.25 21.2998C38.9735 20.5383 38.8904 19.5761 39.001 18.4131L39.8721 9.89648C39.9549 9.05205 39.7677 8.38787 39.3115 7.90332C38.8552 7.4187 38.2191 7.07959 37.4033 6.88574C36.5877 6.67811 35.6685 6.57326 34.6455 6.57324V3.83203ZM24.2295 20.3809C24.9346 20.3809 25.5641 20.5466 26.1172 20.8789C26.6702 21.1974 27.1058 21.6337 27.4238 22.1875C27.7418 22.7275 27.9004 23.3371 27.9004 24.0156C27.9004 24.694 27.7418 25.3171 27.4238 25.8848C27.1059 26.4385 26.6701 26.8816 26.1172 27.2139C25.5641 27.5323 24.9346 27.6914 24.2295 27.6914C23.5381 27.6914 22.9154 27.5323 22.3623 27.2139C21.8233 26.8816 21.3951 26.4384 21.0771 25.8848C20.7591 25.3171 20.5996 24.6941 20.5996 24.0156C20.5996 23.3371 20.7591 22.7275 21.0771 22.1875C21.3951 21.6338 21.8232 21.1973 22.3623 20.8789C22.9154 20.5466 23.5381 20.3809 24.2295 20.3809Z"/>
  </symbol>
  <symbol id="icon-play" viewBox="0 0 49 48">
    <path d="M24.25 0C37.6428 0 48.5 10.746 48.5 24.001C48.4999 37.2558 37.6427 48.001 24.25 48.001C10.8574 48.0008 0.000133319 37.2558 0 24.001C0 10.7461 10.8573 0.00012855 24.25 0ZM17.0605 34.7705L35.9092 23.9658L17.0605 13.1611V34.7705Z"/>
  </symbol>
  <symbol id="icon-pause" viewBox="0 0 49 48">
    <path d="M24.25 0C37.5048 0 48.25 10.7452 48.25 24C48.25 37.2548 37.5048 48 24.25 48C10.9952 48 0.25 37.2548 0.25 24C0.25 10.7452 10.9952 0 24.25 0ZM15.25 33H21.25V15H15.25V33ZM27.25 15V33H33.25V15H27.25Z"/>
  </symbol>
  <symbol id="icon-warning" viewBox="0 0 49 48">
    <path d="M0 44.9432L24.25 3.05688L48.5 44.9432H0ZM25.8207 37.6958C26.2433 37.2733 26.4545 36.7497 26.4545 36.1251C26.4545 35.5004 26.2433 34.9769 25.8207 34.5543C25.3982 34.1318 24.8746 33.9205 24.25 33.9205C23.6254 33.9205 23.1018 34.1318 22.6793 34.5543C22.2567 34.9769 22.0455 35.5004 22.0455 36.1251C22.0455 36.7497 22.2567 37.2733 22.6793 37.6958C23.1018 38.1183 23.6254 38.3296 24.25 38.3296C24.8746 38.3296 25.3982 38.1183 25.8207 37.6958ZM22.0455 31.716H26.4545V20.6932H22.0455V31.716Z"/>
  </symbol>
  <symbol id="icon-success" viewBox="0 0 49 49">
    <path d="M20.855 35.405L37.9513 18.3088L34.5563 14.9138L20.855 28.615L13.9438 21.7038L10.5487 25.0988L20.855 35.405ZM24.25 48.5C20.8954 48.5 17.7429 47.8634 14.7925 46.5903C11.8421 45.3172 9.27563 43.5894 7.09313 41.4069C4.91062 39.2244 3.18281 36.6579 1.90969 33.7075C0.636563 30.7571 0 27.6046 0 24.25C0 20.8954 0.636563 17.7429 1.90969 14.7925C3.18281 11.8421 4.91062 9.27563 7.09313 7.09313C9.27563 4.91062 11.8421 3.18281 14.7925 1.90969C17.7429 0.636563 20.8954 0 24.25 0C27.6046 0 30.7571 0.636563 33.7075 1.90969C36.6579 3.18281 39.2244 4.91062 41.4069 7.09313C43.5894 9.27563 45.3172 11.8421 46.5903 14.7925C47.8634 17.7429 48.5 20.8954 48.5 24.25C48.5 27.6046 47.8634 30.7571 46.5903 33.7075C45.3172 36.6579 43.5894 39.2244 41.4069 41.4069C39.2244 43.5894 36.6579 45.3172 33.7075 46.5903C30.7571 47.8634 27.6046 48.5 24.25 48.5Z"/>
  </symbol>
  <symbol id="icon-success-filled" viewBox="0 0 49 49">
    <path d="M20.855 35.405L37.9513 18.3088L34.5563 14.9138L20.855 28.615L13.9438 21.7038L10.5487 25.0988L20.855 35.405ZM24.25 48.5C20.8954 48.5 17.7429 47.8634 14.7925 46.5903C11.8421 45.3172 9.27563 43.5894 7.09313 41.4069C4.91063 39.2244 3.18281 36.6579 1.90969 33.7075C0.636562 30.7571 0 27.6046 0 24.25C0 20.8954 0.636562 17.7429 1.90969 14.7925C3.18281 11.8421 4.91063 9.27563 7.09313 7.09313C9.27563 4.91063 11.8421 3.18281 14.7925 1.90969C17.7429 0.636562 20.8954 0 24.25 0C27.6046 0 30.7571 0.636562 33.7075 1.90969C36.6579 3.18281 39.2244 4.91063 41.4069 7.09313C43.5894 9.27563 45.3172 11.8421 46.5903 14.7925C47.8634 17.7429 48.5 20.8954 48.5 24.25C48.5 27.6046 47.8634 30.7571 46.5903 33.7075C45.3172 36.6579 43.5894 39.2244 41.4069 41.4069C39.2244 43.5894 36.6579 45.3172 33.7075 46.5903C30.7571 47.8634 27.6046 48.5 24.25 48.5Z"/>
<path d="M20.855 35.405L37.9513 18.3088L34.5563 14.9138L20.855 28.615L13.9438 21.7038L10.5487 25.0988L20.855 35.405Z"/>
  </symbol>
  <symbol id="icon-error" viewBox="0 0 49 49">
    <path d="M25.9778 35.6778C26.4426 35.213 26.675 34.6371 26.675 33.95C26.675 33.2629 26.4426 32.687 25.9778 32.2222C25.513 31.7574 24.9371 31.525 24.25 31.525C23.5629 31.525 22.987 31.7574 22.5222 32.2222C22.0574 32.687 21.825 33.2629 21.825 33.95C21.825 34.6371 22.0574 35.213 22.5222 35.6778C22.987 36.1426 23.5629 36.375 24.25 36.375C24.9371 36.375 25.513 36.1426 25.9778 35.6778ZM21.825 26.675H26.675V12.125H21.825V26.675ZM24.25 48.5C20.8954 48.5 17.7429 47.8634 14.7925 46.5903C11.8421 45.3172 9.27563 43.5894 7.09313 41.4069C4.91062 39.2244 3.18281 36.6579 1.90969 33.7075C0.636563 30.7571 0 27.6046 0 24.25C0 20.8954 0.636563 17.7429 1.90969 14.7925C3.18281 11.8421 4.91062 9.27563 7.09313 7.09313C9.27563 4.91062 11.8421 3.18281 14.7925 1.90969C17.7429 0.636563 20.8954 0 24.25 0C27.6046 0 30.7571 0.636563 33.7075 1.90969C36.6579 3.18281 39.2244 4.91062 41.4069 7.09313C43.5894 9.27563 45.3172 11.8421 46.5903 14.7925C47.8634 17.7429 48.5 20.8954 48.5 24.25C48.5 27.6046 47.8634 30.7571 46.5903 33.7075C45.3172 36.6579 43.5894 39.2244 41.4069 41.4069C39.2244 43.5894 36.6579 45.3172 33.7075 46.5903C30.7571 47.8634 27.6046 48.5 24.25 48.5Z"/>
  </symbol>
  <symbol id="icon-info" viewBox="0 0 49 49">
    <path d="M21.825 36.375H26.675V21.825H21.825V36.375ZM25.9778 16.2778C26.4426 15.813 26.675 15.2371 26.675 14.55C26.675 13.8629 26.4426 13.287 25.9778 12.8222C25.513 12.3574 24.9371 12.125 24.25 12.125C23.5629 12.125 22.987 12.3574 22.5222 12.8222C22.0574 13.287 21.825 13.8629 21.825 14.55C21.825 15.2371 22.0574 15.813 22.5222 16.2778C22.987 16.7426 23.5629 16.975 24.25 16.975C24.9371 16.975 25.513 16.7426 25.9778 16.2778ZM24.25 48.5C20.8954 48.5 17.7429 47.8634 14.7925 46.5903C11.8421 45.3172 9.27563 43.5894 7.09313 41.4069C4.91062 39.2244 3.18281 36.6579 1.90969 33.7075C0.636563 30.7571 0 27.6046 0 24.25C0 20.8954 0.636563 17.7429 1.90969 14.7925C3.18281 11.8421 4.91062 9.27563 7.09313 7.09313C9.27563 4.91062 11.8421 3.18281 14.7925 1.90969C17.7429 0.636563 20.8954 0 24.25 0C27.6046 0 30.7571 0.636563 33.7075 1.90969C36.6579 3.18281 39.2244 4.91062 41.4069 7.09313C43.5894 9.27563 45.3172 11.8421 46.5903 14.7925C47.8634 17.7429 48.5 20.8954 48.5 24.25C48.5 27.6046 47.8634 30.7571 46.5903 33.7075C45.3172 36.6579 43.5894 39.2244 41.4069 41.4069C39.2244 43.5894 36.6579 45.3172 33.7075 46.5903C30.7571 47.8634 27.6046 48.5 24.25 48.5Z"/>
  </symbol>
  <symbol id="icon-lock" viewBox="0 0 49 48">
    <path d="M10.5357 48C9.27858 48 8.20239 47.5524 7.30715 46.6571C6.41191 45.7619 5.96429 44.6857 5.96429 43.4286V20.5714C5.96429 19.3143 6.41191 18.2381 7.30715 17.3429C8.20239 16.4476 9.27858 16 10.5357 16H12.8214V11.4286C12.8214 8.26667 13.9357 5.57143 16.1643 3.34286C18.3929 1.11429 21.0881 0 24.25 0C27.4119 0 30.1072 1.11429 32.3357 3.34286C34.5643 5.57143 35.6786 8.26667 35.6786 11.4286V16H37.9643C39.2214 16 40.2976 16.4476 41.1929 17.3429C42.0881 18.2381 42.5357 19.3143 42.5357 20.5714V43.4286C42.5357 44.6857 42.0881 45.7619 41.1929 46.6571C40.2976 47.5524 39.2214 48 37.9643 48H10.5357ZM27.4786 35.2286C28.3738 34.3333 28.8214 33.2571 28.8214 32C28.8214 30.7429 28.3738 29.6667 27.4786 28.7714C26.5833 27.8762 25.5072 27.4286 24.25 27.4286C22.9929 27.4286 21.9167 27.8762 21.0214 28.7714C20.1262 29.6667 19.6786 30.7429 19.6786 32C19.6786 33.2571 20.1262 34.3333 21.0214 35.2286C21.9167 36.1238 22.9929 36.5714 24.25 36.5714C25.5072 36.5714 26.5833 36.1238 27.4786 35.2286ZM17.3929 16H31.1072V11.4286C31.1072 9.52381 30.4405 7.90476 29.1072 6.57143C27.7738 5.2381 26.1548 4.57143 24.25 4.57143C22.3452 4.57143 20.7262 5.2381 19.3929 6.57143C18.0595 7.90476 17.3929 9.52381 17.3929 11.4286V16Z"/>
  </symbol>
  <symbol id="icon-unlock" viewBox="0 0 49 48">
    <path d="M10.5357 16H31.1072V11.4286C31.1072 9.52381 30.4405 7.90476 29.1072 6.57143C27.7738 5.2381 26.1548 4.57143 24.25 4.57143C22.3452 4.57143 20.7262 5.2381 19.3929 6.57143C18.0595 7.90476 17.3929 9.52381 17.3929 11.4286H12.8214C12.8214 8.26667 13.9357 5.57143 16.1643 3.34286C18.3929 1.11429 21.0881 0 24.25 0C27.4119 0 30.1072 1.11429 32.3357 3.34286C34.5643 5.57143 35.6786 8.26667 35.6786 11.4286V16H37.9643C39.2214 16 40.2976 16.4476 41.1929 17.3429C42.0881 18.2381 42.5357 19.3143 42.5357 20.5714V43.4286C42.5357 44.6857 42.0881 45.7619 41.1929 46.6571C40.2976 47.5524 39.2214 48 37.9643 48H10.5357C9.27858 48 8.20239 47.5524 7.30715 46.6571C6.41191 45.7619 5.96429 44.6857 5.96429 43.4286V20.5714C5.96429 19.3143 6.41191 18.2381 7.30715 17.3429C8.20239 16.4476 9.27858 16 10.5357 16ZM27.4786 35.2286C28.3738 34.3333 28.8214 33.2571 28.8214 32C28.8214 30.7429 28.3738 29.6667 27.4786 28.7714C26.5833 27.8762 25.5072 27.4286 24.25 27.4286C22.9929 27.4286 21.9167 27.8762 21.0214 28.7714C20.1262 29.6667 19.6786 30.7429 19.6786 32C19.6786 33.2571 20.1262 34.3333 21.0214 35.2286C21.9167 36.1238 22.9929 36.5714 24.25 36.5714C25.5072 36.5714 26.5833 36.1238 27.4786 35.2286Z"/>
  </symbol>
  <symbol id="icon-arrow-forward" viewBox="0 0 49 48">
    <path d="M36.775 27H0.25V21H36.775L19.975 4.2L24.25 0L48.25 24L24.25 48L19.975 43.8L36.775 27Z"/>
  </symbol>
  <symbol id="icon-arrow-upward" viewBox="0 0 49 48">
    <path d="M21.25 48V11.475L4.45 28.275L0.25 24L24.25 0L48.25 24L44.05 28.275L27.25 11.475V48H21.25Z"/>
  </symbol>
  <symbol id="icon-export" viewBox="0 0 49 48">
    <path d="M31.93 42L38.65 35.28V40.8H41.05V31.2H31.45V33.6H36.97L30.25 40.32L31.93 42ZM5.05 43.2C3.73 43.2 2.6 42.73 1.66 41.79C0.72 40.85 0.25 39.72 0.25 38.4V4.8C0.25 3.48 0.72 2.35 1.66 1.41C2.6 0.47 3.73 0 5.05 0H38.65C39.97 0 41.1 0.47 42.04 1.41C42.98 2.35 43.45 3.48 43.45 4.8V20.88C42.69 20.52 41.91 20.21 41.11 19.95C40.31 19.69 39.49 19.5 38.65 19.38V4.8H5.05V38.4H19.57C19.69 39.28 19.88 40.12 20.14 40.92C20.4 41.72 20.71 42.48 21.07 43.2H5.05ZM5.05 36V38.4V4.8V19.38V19.2V36ZM9.85 33.6H19.63C19.75 32.76 19.94 31.94 20.2 31.14C20.46 30.34 20.75 29.56 21.07 28.8H9.85V33.6ZM9.85 24H24.49C25.77 22.8 27.2 21.8 28.78 21C30.36 20.2 32.05 19.66 33.85 19.38V19.2H9.85V24ZM9.85 14.4H33.85V9.6H9.85V14.4ZM36.25 48C32.93 48 30.1 46.83 27.76 44.49C25.42 42.15 24.25 39.32 24.25 36C24.25 32.68 25.42 29.85 27.76 27.51C30.1 25.17 32.93 24 36.25 24C39.57 24 42.4 25.17 44.74 27.51C47.08 29.85 48.25 32.68 48.25 36C48.25 39.32 47.08 42.15 44.74 44.49C42.4 46.83 39.57 48 36.25 48Z"/>
  </symbol>
  <symbol id="icon-download" viewBox="0 0 49 49">
    <path d="M24.25 36.375L9.09375 21.2188L13.3375 16.8234L21.2188 24.7047V0H27.2812V24.7047L35.1625 16.8234L39.4062 21.2188L24.25 36.375ZM6.0625 48.5C4.39531 48.5 2.9681 47.9064 1.78086 46.7191C0.59362 45.5319 0 44.1047 0 42.4375V33.3438H6.0625V42.4375H42.4375V33.3438H48.5V42.4375C48.5 44.1047 47.9064 45.5319 46.7191 46.7191C45.5319 47.9064 44.1047 48.5 42.4375 48.5H6.0625Z"/>
  </symbol>
  <symbol id="icon-metadata" viewBox="0 0 48 48">
    <path d="M32.8 20.6176L42.2 11.0118L40.3333 9.11765L32.8 16.7618L29 12.9059L27.1333 14.8676L32.8 20.6176ZM0 47V41.5882H32V47H0ZM25.2333 24.1015C22.6333 21.4632 21.3333 18.2726 21.3333 14.5294C21.3333 10.7863 22.6333 7.59559 25.2333 4.95735C27.8333 2.31912 30.9778 1 34.6667 1C38.3556 1 41.5 2.31912 44.1 4.95735C46.7 7.59559 48 10.7863 48 14.5294C48 18.2726 46.7 21.4632 44.1 24.1015C41.5 26.7397 38.3556 28.0588 34.6667 28.0588C30.9778 28.0588 27.8333 26.7397 25.2333 24.1015ZM0 25.3529V19.9412H16.8C17.1111 20.9333 17.4667 21.8804 17.8667 22.7824C18.2667 23.6843 18.7556 24.5412 19.3333 25.3529H0ZM0 36.1765V30.7647H25.0667C26.0889 31.3961 27.1778 31.926 28.3333 32.3544C29.4889 32.7828 30.7111 33.0873 32 33.2676V36.1765H0Z"/>
  </symbol>
  <symbol id="icon-search" viewBox="0 0 49 48">
    <path d="M44.5167 48L27.7167 31.2C26.3833 32.2667 24.85 33.1111 23.1167 33.7333C21.3833 34.3556 19.5389 34.6667 17.5833 34.6667C12.7389 34.6667 8.63889 32.9889 5.28333 29.6333C1.92778 26.2778 0.25 22.1778 0.25 17.3333C0.25 12.4889 1.92778 8.38889 5.28333 5.03333C8.63889 1.67778 12.7389 0 17.5833 0C22.4278 0 26.5278 1.67778 29.8833 5.03333C33.2389 8.38889 34.9167 12.4889 34.9167 17.3333C34.9167 19.2889 34.6056 21.1333 33.9833 22.8667C33.3611 24.6 32.5167 26.1333 31.45 27.4667L48.25 44.2667L44.5167 48ZM17.5833 29.3333C20.9167 29.3333 23.75 28.1667 26.0833 25.8333C28.4167 23.5 29.5833 20.6667 29.5833 17.3333C29.5833 14 28.4167 11.1667 26.0833 8.83333C23.75 6.5 20.9167 5.33333 17.5833 5.33333C14.25 5.33333 11.4167 6.5 9.08333 8.83333C6.75 11.1667 5.58333 14 5.58333 17.3333C5.58333 20.6667 6.75 23.5 9.08333 25.8333C11.4167 28.1667 14.25 29.3333 17.5833 29.3333Z"/>
  </symbol>
  <symbol id="icon-add" viewBox="0 0 49 48">
    <path d="M21.85 36H26.65V26.4H36.25V21.6H26.65V12H21.85V21.6H12.25V26.4H21.85V36ZM24.25 48C20.93 48 17.81 47.37 14.89 46.11C11.97 44.85 9.43 43.14 7.27 40.98C5.11 38.82 3.4 36.28 2.14 33.36C0.88 30.44 0.25 27.32 0.25 24C0.25 20.68 0.88 17.56 2.14 14.64C3.4 11.72 5.11 9.18 7.27 7.02C9.43 4.86 11.97 3.15 14.89 1.89C17.81 0.63 20.93 0 24.25 0C27.57 0 30.69 0.63 33.61 1.89C36.53 3.15 39.07 4.86 41.23 7.02C43.39 9.18 45.1 11.72 46.36 14.64C47.62 17.56 48.25 20.68 48.25 24C48.25 27.32 47.62 30.44 46.36 33.36C45.1 36.28 43.39 38.82 41.23 40.98C39.07 43.14 36.53 44.85 33.61 46.11C30.69 47.37 27.57 48 24.25 48Z"/>
  </symbol>
  <symbol id="icon-upload" viewBox="0 0 49 48">
    <path d="M21.25 36V11.55L13.45 19.35L9.25 15L24.25 0L39.25 15L35.05 19.35L27.25 11.55V36H21.25ZM6.25 48C4.6 48 3.1875 47.4125 2.0125 46.2375C0.8375 45.0625 0.25 43.65 0.25 42V33H6.25V42H42.25V33H48.25V42C48.25 43.65 47.6625 45.0625 46.4875 46.2375C45.3125 47.4125 43.9 48 42.25 48H6.25Z"/>
  </symbol>
  <symbol id="icon-ams" viewBox="0 0 49 48">
    <path d="M26.5716 48C29.6268 47.6784 32.4711 46.8442 35.1042 45.4975C37.7374 44.1508 40.0389 42.402 42.0087 40.2513C43.9786 38.1005 45.5263 35.6382 46.652 32.8643C47.7776 30.0905 48.3404 27.1357 48.3404 24C48.3404 17.6884 46.2399 12.2613 42.0389 7.71859C37.8379 3.17588 32.6821 0.603015 26.5716 0V4.88442C31.3555 5.48744 35.3756 7.58794 38.6319 11.1859C41.8881 14.7839 43.5163 19.0553 43.5163 24C43.5163 28.9447 41.8881 33.2161 38.6319 36.8141C35.3756 40.4121 31.3555 42.5126 26.5716 43.1156V48ZM21.7474 48V43.1156C19.9786 42.9146 18.3002 42.4724 16.7123 41.7889C15.1243 41.1055 13.667 40.2412 12.3404 39.196L8.90321 42.6935C10.7123 44.1407 12.7022 45.3266 14.8731 46.2513C17.0439 47.1759 19.3354 47.7588 21.7474 48ZM12.4007 8.80402C13.7273 7.75879 15.1746 6.89447 16.7424 6.21106C18.3102 5.52764 19.9786 5.08543 21.7474 4.88442V0C19.3354 0.241206 17.0439 0.824121 14.8731 1.74874C12.7022 2.67337 10.7123 3.8593 8.90321 5.30653L12.4007 8.80402ZM5.52633 39.2563L8.96352 35.8191C7.91829 34.4925 7.05397 33.0352 6.37055 31.4472C5.68713 29.8593 5.24492 28.1809 5.04391 26.4121H0.159492C0.4007 28.8241 0.993664 31.1156 1.93839 33.2864C2.88311 35.4573 4.07909 37.4472 5.52633 39.2563ZM5.04391 21.5879C5.24492 19.8191 5.68713 18.1407 6.37055 16.5528C7.05397 14.9648 7.91829 13.5075 8.96352 12.1809L5.52633 8.74372C4.07909 10.5528 2.88311 12.5427 1.93839 14.7136C0.993664 16.8844 0.4007 19.1759 0.159492 21.5879H5.04391Z"/>
<path d="M12.5667 34.4333C11.5222 33.3889 11 32.1333 11 30.6667C11 29.2 11.5222 27.9444 12.5667 26.9C13.6111 25.8556 14.8667 25.3333 16.3333 25.3333C16.8444 25.3333 17.3167 25.3944 17.75 25.5167C18.1833 25.6389 18.6 25.8222 19 26.0667V14.6667L35 12V28C35 29.4667 34.4778 30.7222 33.4333 31.7667C32.3889 32.8111 31.1333 33.3333 29.6667 33.3333C28.2 33.3333 26.9444 32.8111 25.9 31.7667C24.8556 30.7222 24.3333 29.4667 24.3333 28C24.3333 26.5333 24.8556 25.2778 25.9 24.2333C26.9444 23.1889 28.2 22.6667 29.6667 22.6667C30.1778 22.6667 30.65 22.7278 31.0833 22.85C31.5167 22.9722 31.9333 23.1556 32.3333 23.4V17.9L21.6667 20V30.6667C21.6667 32.1333 21.1444 33.3889 20.1 34.4333C19.0556 35.4778 17.8 36 16.3333 36C14.8667 36 13.6111 35.4778 12.5667 34.4333Z"/>
  </symbol>
  <symbol id="icon-browse" viewBox="0 0 49 48">
    <path d="M31.8557 30.724L34.2807 28.4092L29.6511 23.7796C30.0553 23.155 30.3584 22.4937 30.5605 21.7955C30.7626 21.0974 30.8636 20.3626 30.8636 19.591C30.8636 17.4232 30.1012 15.5953 28.5764 14.1072C27.0516 12.6191 25.242 11.8751 23.1477 11.8751C21.0534 11.8751 19.2438 12.6191 17.719 14.1072C16.1942 15.5953 15.4318 17.4232 15.4318 19.591C15.4318 21.7588 16.1942 23.5867 17.719 25.0748C19.2438 26.5629 21.0534 27.3069 23.1477 27.3069C23.9193 27.3069 24.645 27.2059 25.3247 27.0038C26.0044 26.8017 26.675 26.4986 27.3364 26.0944L31.8557 30.724ZM23.1477 24.0001C21.9352 24.0001 20.8973 23.5684 20.0338 22.7049C19.1704 21.8415 18.7386 20.8035 18.7386 19.591C18.7386 18.3785 19.1704 17.3405 20.0338 16.4771C20.8973 15.6136 21.9352 15.1819 23.1477 15.1819C24.3235 15.1819 25.3523 15.6136 26.2341 16.4771C27.1159 17.3405 27.5568 18.3785 27.5568 19.591C27.5568 20.8035 27.1251 21.8415 26.2616 22.7049C25.3982 23.5684 24.3602 24.0001 23.1477 24.0001ZM6.61364 37.2274C5.40114 37.2274 4.36316 36.7956 3.49972 35.9322C2.63627 35.0687 2.20455 34.0308 2.20455 32.8183V8.56827C2.20455 7.35577 2.63627 6.3178 3.49972 5.45435C4.36316 4.5909 5.40114 4.15918 6.61364 4.15918H41.8864C43.0989 4.15918 44.1368 4.5909 45.0003 5.45435C45.8637 6.3178 46.2955 7.35577 46.2955 8.56827V32.8183C46.2955 34.0308 45.8637 35.0687 45.0003 35.9322C44.1368 36.7956 43.0989 37.2274 41.8864 37.2274H6.61364ZM0 43.841V39.4319H48.5V43.841H0Z"/>
  </symbol>
  <symbol id="icon-check-box-checked" viewBox="0 0 49 48">
    <path d="M20.5167 35.2L39.3167 16.4L35.5833 12.6667L20.5167 27.7333L12.9167 20.1333L9.18333 23.8667L20.5167 35.2ZM5.58333 48C4.11667 48 2.86111 47.4778 1.81667 46.4333C0.772222 45.3889 0.25 44.1333 0.25 42.6667V5.33333C0.25 3.86667 0.772222 2.61111 1.81667 1.56667C2.86111 0.522222 4.11667 0 5.58333 0H42.9167C44.3833 0 45.6389 0.522222 46.6833 1.56667C47.7278 2.61111 48.25 3.86667 48.25 5.33333V42.6667C48.25 44.1333 47.7278 45.3889 46.6833 46.4333C45.6389 47.4778 44.3833 48 42.9167 48H5.58333Z"/>
  </symbol>
  <symbol id="icon-check-box" viewBox="0 0 49 48">
    <path d="M5.58333 48C4.11667 48 2.86111 47.4778 1.81667 46.4333C0.772222 45.3889 0.25 44.1333 0.25 42.6667V5.33333C0.25 3.86667 0.772222 2.61111 1.81667 1.56667C2.86111 0.522222 4.11667 0 5.58333 0H42.9167C44.3833 0 45.6389 0.522222 46.6833 1.56667C47.7278 2.61111 48.25 3.86667 48.25 5.33333V42.6667C48.25 44.1333 47.7278 45.3889 46.6833 46.4333C45.6389 47.4778 44.3833 48 42.9167 48H5.58333ZM5.58333 42.6667H42.9167V5.33333H5.58333V42.6667Z"/>
  </symbol>
  <symbol id="icon-cancel" viewBox="0 0 49 48">
    <path d="M15.61 36L24.25 27.36L32.89 36L36.25 32.64L27.61 24L36.25 15.36L32.89 12L24.25 20.64L15.61 12L12.25 15.36L20.89 24L12.25 32.64L15.61 36ZM24.25 48C20.93 48 17.81 47.37 14.89 46.11C11.97 44.85 9.43 43.14 7.27 40.98C5.11 38.82 3.4 36.28 2.14 33.36C0.88 30.44 0.25 27.32 0.25 24C0.25 20.68 0.88 17.56 2.14 14.64C3.4 11.72 5.11 9.18 7.27 7.02C9.43 4.86 11.97 3.15 14.89 1.89C17.81 0.63 20.93 0 24.25 0C27.57 0 30.69 0.63 33.61 1.89C36.53 3.15 39.07 4.86 41.23 7.02C43.39 9.18 45.1 11.72 46.36 14.64C47.62 17.56 48.25 20.68 48.25 24C48.25 27.32 47.62 30.44 46.36 33.36C45.1 36.28 43.39 38.82 41.23 40.98C39.07 43.14 36.53 44.85 33.61 46.11C30.69 47.37 27.57 48 24.25 48Z"/>
  </symbol>
  <symbol id="icon-timer-80" viewBox="0 0 49 48">
    <path d="M14.89 46.11C11.97 44.85 9.43 43.14 7.27 40.98C5.11 38.82 3.4 36.28 2.14 33.36C0.88 30.44 0.25 27.32 0.25 24C0.25 20.68 0.88 17.56 2.14 14.64C3.4 11.72 5.11 9.18 7.27 7.02C9.43 4.86 11.97 3.15 14.89 1.89C17.81 0.63 20.93 0 24.25 0C27.57 0 30.69 0.63 33.61 1.89C36.53 3.15 39.07 4.86 41.23 7.02C43.39 9.18 45.1 11.72 46.36 14.64C47.62 17.56 48.25 20.68 48.25 24C48.25 27.32 47.62 30.44 46.36 33.36C45.1 36.28 43.39 38.82 41.23 40.98C39.07 43.14 36.53 44.85 33.61 46.11C30.69 47.37 27.57 48 24.25 48C20.93 48 17.81 47.37 14.89 46.11ZM5.05 24H24.25V4.8C18.89 4.8 14.35 6.66 10.63 10.38C6.91 14.1 5.05 18.64 5.05 24Z"/>
  </symbol>
  <symbol id="icon-timer-0" viewBox="0 0 49 48">
    <path d="M24.25 48C20.93 48 17.81 47.37 14.89 46.11C11.97 44.85 9.43 43.14 7.27 40.98C5.11 38.82 3.4 36.28 2.14 33.36C0.88 30.44 0.25 27.32 0.25 24C0.25 20.68 0.88 17.56 2.14 14.64C3.4 11.72 5.11 9.18 7.27 7.02C9.43 4.86 11.97 3.15 14.89 1.89C17.81 0.63 20.93 0 24.25 0C27.57 0 30.69 0.63 33.61 1.89C36.53 3.15 39.07 4.86 41.23 7.02C43.39 9.18 45.1 11.72 46.36 14.64C47.62 17.56 48.25 20.68 48.25 24C48.25 27.32 47.62 30.44 46.36 33.36C45.1 36.28 43.39 38.82 41.23 40.98C39.07 43.14 36.53 44.85 33.61 46.11C30.69 47.37 27.57 48 24.25 48ZM24.25 43.2C29.61 43.2 34.15 41.34 37.87 37.62C41.59 33.9 43.45 29.36 43.45 24C43.45 18.64 41.59 14.1 37.87 10.38C34.15 6.66 29.61 4.8 24.25 4.8C18.89 4.8 14.35 6.66 10.63 10.38C6.91 14.1 5.05 18.64 5.05 24C5.05 29.36 6.91 33.9 10.63 37.62C14.35 41.34 18.89 43.2 24.25 43.2Z"/>
  </symbol>
  <symbol id="icon-album" viewBox="0 0 49 48">
    <path d="M24.25 34.8C27.25 34.8 29.8 33.75 31.9 31.65C34 29.55 35.05 27 35.05 24C35.05 21 34 18.45 31.9 16.35C29.8 14.25 27.25 13.2 24.25 13.2C21.25 13.2 18.7 14.25 16.6 16.35C14.5 18.45 13.45 21 13.45 24C13.45 27 14.5 29.55 16.6 31.65C18.7 33.75 21.25 34.8 24.25 34.8ZM22.54 25.71C22.08 25.25 21.85 24.68 21.85 24C21.85 23.32 22.08 22.75 22.54 22.29C23 21.83 23.57 21.6 24.25 21.6C24.93 21.6 25.5 21.83 25.96 22.29C26.42 22.75 26.65 23.32 26.65 24C26.65 24.68 26.42 25.25 25.96 25.71C25.5 26.17 24.93 26.4 24.25 26.4C23.57 26.4 23 26.17 22.54 25.71ZM24.25 48C20.93 48 17.81 47.37 14.89 46.11C11.97 44.85 9.43 43.14 7.27 40.98C5.11 38.82 3.4 36.28 2.14 33.36C0.88 30.44 0.25 27.32 0.25 24C0.25 20.68 0.88 17.56 2.14 14.64C3.4 11.72 5.11 9.18 7.27 7.02C9.43 4.86 11.97 3.15 14.89 1.89C17.81 0.63 20.93 0 24.25 0C27.57 0 30.69 0.63 33.61 1.89C36.53 3.15 39.07 4.86 41.23 7.02C43.39 9.18 45.1 11.72 46.36 14.64C47.62 17.56 48.25 20.68 48.25 24C48.25 27.32 47.62 30.44 46.36 33.36C45.1 36.28 43.39 38.82 41.23 40.98C39.07 43.14 36.53 44.85 33.61 46.11C30.69 47.37 27.57 48 24.25 48ZM24.25 43.2C29.61 43.2 34.15 41.34 37.87 37.62C41.59 33.9 43.45 29.36 43.45 24C43.45 18.64 41.59 14.1 37.87 10.38C34.15 6.66 29.61 4.8 24.25 4.8C18.89 4.8 14.35 6.66 10.63 10.38C6.91 14.1 5.05 18.64 5.05 24C5.05 29.36 6.91 33.9 10.63 37.62C14.35 41.34 18.89 43.2 24.25 43.2Z"/>
  </symbol>
  <symbol id="icon-tag" viewBox="0 0 49 48">
    <path d="M4.85 43.4001C3.51625 43.4001 2.37448 42.9252 1.42469 41.9754C0.474896 41.0256 0 39.8838 0 38.5501V9.4501C0 8.11635 0.474896 6.97458 1.42469 6.02479C2.37448 5.07499 3.51625 4.6001 4.85 4.6001H31.525C32.2929 4.6001 33.0204 4.77187 33.7075 5.11541C34.3946 5.45895 34.9604 5.93385 35.405 6.5401L48.5 24.0001L35.405 41.4601C34.9604 42.0663 34.3946 42.5412 33.7075 42.8848C33.0204 43.2283 32.2929 43.4001 31.525 43.4001H4.85Z"/>
  </symbol>
  <symbol id="icon-arrow-drop-down" viewBox="0 0 49 48">
    <path d="M24.25 37.125L0 12.875H48.5L24.25 37.125Z"/>
  </symbol>
  <symbol id="icon-edit" viewBox="0 0 49 48">
    <path d="M0.25 48V36.6667L35.45 1.53333C35.9833 1.04444 36.5722 0.666667 37.2167 0.4C37.8611 0.133333 38.5389 0 39.25 0C39.9611 0 40.65 0.133333 41.3167 0.4C41.9833 0.666667 42.5611 1.06667 43.05 1.6L46.7167 5.33333C47.25 5.82222 47.6389 6.4 47.8833 7.06667C48.1278 7.73333 48.25 8.4 48.25 9.06667C48.25 9.77778 48.1278 10.4556 47.8833 11.1C47.6389 11.7444 47.25 12.3333 46.7167 12.8667L11.5833 48H0.25ZM39.1833 12.8L42.9167 9.06667L39.1833 5.33333L35.45 9.06667L39.1833 12.8Z"/>
  </symbol>
  <symbol id="icon-view-source" viewBox="0 0 49 48">
    <path d="M4.61905 39.0119C3.34881 39.0119 2.26141 38.5597 1.35685 37.6551C0.452282 36.7505 0 35.6631 0 34.3929V6.67862C0 5.40838 0.452282 4.32098 1.35685 3.41642C2.26141 2.51185 3.34881 2.05957 4.61905 2.05957H18.4762L23.0952 6.67862H41.5714C42.8417 6.67862 43.9291 7.1309 44.8336 8.03546C45.7382 8.94003 46.1905 10.0274 46.1905 11.2977V25.2703C45.4976 24.7314 44.7663 24.2887 43.9964 23.9423C43.2266 23.5959 42.4183 23.2302 41.5714 22.8453V11.2977H21.1899L16.5708 6.67862H4.61905V34.3929H11.5476V39.0119H4.61905ZM32.3333 45.9405C28.8306 45.9405 25.5972 45.0167 22.6333 43.1691C19.6694 41.3215 17.5139 38.781 16.1667 35.5477C17.5139 32.3143 19.6694 29.7739 22.6333 27.9262C25.5972 26.0786 28.8306 25.1548 32.3333 25.1548C35.8361 25.1548 39.0694 26.0786 42.0333 27.9262C44.9972 29.7739 47.1528 32.3143 48.5 35.5477C47.1528 38.781 44.9972 41.3215 42.0333 43.1691C39.0694 45.0167 35.8361 45.9405 32.3333 45.9405ZM38.5402 39.8203C40.484 38.8195 42.0718 37.3953 43.3036 35.5477C42.0718 33.7 40.484 32.2758 38.5402 31.275C36.5963 30.2743 34.5274 29.7739 32.3333 29.7739C30.1393 29.7739 28.0703 30.2743 26.1265 31.275C24.1826 32.2758 22.5948 33.7 21.3631 35.5477C22.5948 37.3953 24.1826 38.8195 26.1265 39.8203C28.0703 40.8211 30.1393 41.3215 32.3333 41.3215C34.5274 41.3215 36.5963 40.8211 38.5402 39.8203ZM29.8795 38.0015C29.2059 37.3279 28.869 36.51 28.869 35.5477C28.869 34.5854 29.2059 33.7674 29.8795 33.0938C30.5531 32.4202 31.371 32.0834 32.3333 32.0834C33.2956 32.0834 34.1136 32.4202 34.7872 33.0938C35.4608 33.7674 35.7976 34.5854 35.7976 35.5477C35.7976 36.51 35.4608 37.3279 34.7872 38.0015C34.1136 38.6751 33.2956 39.0119 32.3333 39.0119C31.371 39.0119 30.5531 38.6751 29.8795 38.0015ZM4.61905 34.3929V6.67862V22.6721V20.5358V34.3929Z"/>
  </symbol>
  <symbol id="icon-arrow-drop-up" viewBox="0 0 49 48">
    <path d="M0 36.125L24.25 11.875L48.5 36.125H0Z"/>
  </symbol>
  <symbol id="icon-drag-handle" viewBox="0 0 49 48">
    <path d="M15.25 48C13.6 48 12.1875 47.4125 11.0125 46.2375C9.8375 45.0625 9.25 43.65 9.25 42C9.25 40.35 9.8375 38.9375 11.0125 37.7625C12.1875 36.5875 13.6 36 15.25 36C16.9 36 18.3125 36.5875 19.4875 37.7625C20.6625 38.9375 21.25 40.35 21.25 42C21.25 43.65 20.6625 45.0625 19.4875 46.2375C18.3125 47.4125 16.9 48 15.25 48ZM33.25 48C31.6 48 30.1875 47.4125 29.0125 46.2375C27.8375 45.0625 27.25 43.65 27.25 42C27.25 40.35 27.8375 38.9375 29.0125 37.7625C30.1875 36.5875 31.6 36 33.25 36C34.9 36 36.3125 36.5875 37.4875 37.7625C38.6625 38.9375 39.25 40.35 39.25 42C39.25 43.65 38.6625 45.0625 37.4875 46.2375C36.3125 47.4125 34.9 48 33.25 48ZM15.25 30C13.6 30 12.1875 29.4125 11.0125 28.2375C9.8375 27.0625 9.25 25.65 9.25 24C9.25 22.35 9.8375 20.9375 11.0125 19.7625C12.1875 18.5875 13.6 18 15.25 18C16.9 18 18.3125 18.5875 19.4875 19.7625C20.6625 20.9375 21.25 22.35 21.25 24C21.25 25.65 20.6625 27.0625 19.4875 28.2375C18.3125 29.4125 16.9 30 15.25 30ZM33.25 30C31.6 30 30.1875 29.4125 29.0125 28.2375C27.8375 27.0625 27.25 25.65 27.25 24C27.25 22.35 27.8375 20.9375 29.0125 19.7625C30.1875 18.5875 31.6 18 33.25 18C34.9 18 36.3125 18.5875 37.4875 19.7625C38.6625 20.9375 39.25 22.35 39.25 24C39.25 25.65 38.6625 27.0625 37.4875 28.2375C36.3125 29.4125 34.9 30 33.25 30ZM15.25 12C13.6 12 12.1875 11.4125 11.0125 10.2375C9.8375 9.0625 9.25 7.65 9.25 6C9.25 4.35 9.8375 2.9375 11.0125 1.7625C12.1875 0.5875 13.6 0 15.25 0C16.9 0 18.3125 0.5875 19.4875 1.7625C20.6625 2.9375 21.25 4.35 21.25 6C21.25 7.65 20.6625 9.0625 19.4875 10.2375C18.3125 11.4125 16.9 12 15.25 12ZM33.25 12C31.6 12 30.1875 11.4125 29.0125 10.2375C27.8375 9.0625 27.25 7.65 27.25 6C27.25 4.35 27.8375 2.9375 29.0125 1.7625C30.1875 0.5875 31.6 0 33.25 0C34.9 0 36.3125 0.5875 37.4875 1.7625C38.6625 2.9375 39.25 4.35 39.25 6C39.25 7.65 38.6625 9.0625 37.4875 10.2375C36.3125 11.4125 34.9 12 33.25 12Z"/>
  </symbol>
  <symbol id="icon-chevron-forward" viewBox="0 0 49 48">
    <path d="M27.85 24L9.45001 5.6L15.05 0L39.05 24L15.05 48L9.45001 42.4L27.85 24Z"/>
  </symbol>
  <symbol id="icon-help" viewBox="0 0 49 48">
    <path d="M26.26 37.53C26.84 36.95 27.13 36.24 27.13 35.4C27.13 34.56 26.84 33.85 26.26 33.27C25.68 32.69 24.97 32.4 24.13 32.4C23.29 32.4 22.58 32.69 22 33.27C21.42 33.85 21.13 34.56 21.13 35.4C21.13 36.24 21.42 36.95 22 37.53C22.58 38.11 23.29 38.4 24.13 38.4C24.97 38.4 25.68 38.11 26.26 37.53ZM21.97 29.16H26.41C26.41 27.84 26.56 26.8 26.86 26.04C27.16 25.28 28.01 24.24 29.41 22.92C30.45 21.88 31.27 20.89 31.87 19.95C32.47 19.01 32.77 17.88 32.77 16.56C32.77 14.32 31.95 12.6 30.31 11.4C28.67 10.2 26.73 9.6 24.49 9.6C22.21 9.6 20.36 10.2 18.94 11.4C17.52 12.6 16.53 14.04 15.97 15.72L19.93 17.28C20.13 16.56 20.58 15.78 21.28 14.94C21.98 14.1 23.05 13.68 24.49 13.68C25.77 13.68 26.73 14.03 27.37 14.73C28.01 15.43 28.33 16.2 28.33 17.04C28.33 17.84 28.09 18.59 27.61 19.29C27.13 19.99 26.53 20.64 25.81 21.24C24.05 22.8 22.97 23.98 22.57 24.78C22.17 25.58 21.97 27.04 21.97 29.16ZM24.25 48C20.93 48 17.81 47.37 14.89 46.11C11.97 44.85 9.43 43.14 7.27 40.98C5.11 38.82 3.4 36.28 2.14 33.36C0.88 30.44 0.25 27.32 0.25 24C0.25 20.68 0.88 17.56 2.14 14.64C3.4 11.72 5.11 9.18 7.27 7.02C9.43 4.86 11.97 3.15 14.89 1.89C17.81 0.63 20.93 0 24.25 0C27.57 0 30.69 0.63 33.61 1.89C36.53 3.15 39.07 4.86 41.23 7.02C43.39 9.18 45.1 11.72 46.36 14.64C47.62 17.56 48.25 20.68 48.25 24C48.25 27.32 47.62 30.44 46.36 33.36C45.1 36.28 43.39 38.82 41.23 40.98C39.07 43.14 36.53 44.85 33.61 46.11C30.69 47.37 27.57 48 24.25 48ZM24.25 43.2C29.61 43.2 34.15 41.34 37.87 37.62C41.59 33.9 43.45 29.36 43.45 24C43.45 18.64 41.59 14.1 37.87 10.38C34.15 6.66 29.61 4.8 24.25 4.8C18.89 4.8 14.35 6.66 10.63 10.38C6.91 14.1 5.05 18.64 5.05 24C5.05 29.36 6.91 33.9 10.63 37.62C14.35 41.34 18.89 43.2 24.25 43.2Z"/>
  </symbol>
  <symbol id="icon-email" viewBox="0 0 49 48">
    <path d="M4.85 43.4001C3.51625 43.4001 2.37448 42.9252 1.42469 41.9754C0.474896 41.0256 0 39.8838 0 38.5501V9.4501C0 8.11635 0.474896 6.97458 1.42469 6.02479C2.37448 5.07499 3.51625 4.6001 4.85 4.6001H43.65C44.9838 4.6001 46.1255 5.07499 47.0753 6.02479C48.0251 6.97458 48.5 8.11635 48.5 9.4501V38.5501C48.5 39.8838 48.0251 41.0256 47.0753 41.9754C46.1255 42.9252 44.9838 43.4001 43.65 43.4001H4.85ZM24.25 26.4251L4.85 14.3001V38.5501H43.65V14.3001L24.25 26.4251ZM24.25 21.5751L43.65 9.4501H4.85L24.25 21.5751ZM4.85 14.3001V9.4501V38.5501V14.3001Z"/>
  </symbol>
  <symbol id="icon-chevron-backward" viewBox="0 0 49 48">
    <path d="M33.45 48L9.45001 24L33.45 0L39.05 5.6L20.65 24L39.05 42.4L33.45 48Z"/>
  </symbol>
  <symbol id="icon-vertical-align-top" viewBox="0 0 49 48">
    <path d="M2.91669 5.33333V0H45.5834V5.33333H2.91669ZM21.5834 48V20.8L14.65 27.7333L10.9167 24L24.25 10.6667L37.5834 24L33.85 27.7333L26.9167 20.8V48H21.5834Z"/>
  </symbol>
  <symbol id="icon-mobile" viewBox="0 0 49 48">
    <path d="M12.25 48C11.05 48 10.0227 47.5727 9.16817 46.7182C8.31363 45.8636 7.88635 44.8364 7.88635 43.6364V4.36364C7.88635 3.16364 8.31363 2.13636 9.16817 1.28182C10.0227 0.427273 11.05 0 12.25 0H34.0682C35.2682 0 36.2954 0.427273 37.15 1.28182C38.0045 2.13636 38.4318 3.16364 38.4318 4.36364V11.1273C39.0864 11.3818 39.6136 11.7818 40.0136 12.3273C40.4136 12.8727 40.6136 13.4909 40.6136 14.1818V18.5455C40.6136 19.2364 40.4136 19.8545 40.0136 20.4C39.6136 20.9455 39.0864 21.3455 38.4318 21.6V43.6364C38.4318 44.8364 38.0045 45.8636 37.15 46.7182C36.2954 47.5727 35.2682 48 34.0682 48H12.25ZM12.25 43.6364H34.0682V4.36364H12.25V43.6364ZM24.7136 10.2818C25.1318 9.86364 25.3409 9.34546 25.3409 8.72727C25.3409 8.10909 25.1318 7.59091 24.7136 7.17273C24.2954 6.75455 23.7773 6.54545 23.1591 6.54545C22.5409 6.54545 22.0227 6.75455 21.6045 7.17273C21.1864 7.59091 20.9773 8.10909 20.9773 8.72727C20.9773 9.34546 21.1864 9.86364 21.6045 10.2818C22.0227 10.7 22.5409 10.9091 23.1591 10.9091C23.7773 10.9091 24.2954 10.7 24.7136 10.2818Z"/>
  </symbol>
  <symbol id="icon-location" viewBox="0 0 49 48">
    <path d="M27.64 22.59C28.58 21.65 29.05 20.52 29.05 19.2C29.05 17.88 28.58 16.75 27.64 15.81C26.7 14.87 25.57 14.4 24.25 14.4C22.93 14.4 21.8 14.87 20.86 15.81C19.92 16.75 19.45 17.88 19.45 19.2C19.45 20.52 19.92 21.65 20.86 22.59C21.8 23.53 22.93 24 24.25 24C25.57 24 26.7 23.53 27.64 22.59ZM24.25 41.64C29.13 37.16 32.75 33.09 35.11 29.43C37.47 25.77 38.65 22.52 38.65 19.68C38.65 15.32 37.26 11.75 34.48 8.97C31.7 6.19 28.29 4.8 24.25 4.8C20.21 4.8 16.8 6.19 14.02 8.97C11.24 11.75 9.84999 15.32 9.84999 19.68C9.84999 22.52 11.03 25.77 13.39 29.43C15.75 33.09 19.37 37.16 24.25 41.64ZM24.25 48C17.81 42.52 13 37.43 9.81999 32.73C6.63999 28.03 5.04999 23.68 5.04999 19.68C5.04999 13.68 6.97999 8.9 10.84 5.34C14.7 1.78 19.17 0 24.25 0C29.33 0 33.8 1.78 37.66 5.34C41.52 8.9 43.45 13.68 43.45 19.68C43.45 23.68 41.86 28.03 38.68 32.73C35.5 37.43 30.69 42.52 24.25 48Z"/>
  </symbol>
</svg>