<svg xmlns="http://www.w3.org/2000/svg" style="display:none" aria-hidden="true">
  <symbol id="icon-beatport" viewBox="0 0 16 16">
    <path d="M38.5248 34.0426C38.5248 41.7589 32.3972 48 24.5674 48C16.8511 48 10.7234 41.9291 10.7234 34.0426C10.7234 30.3546 12.1418 27.0638 14.3546 24.6241L4.93617 34.0426L0 29.0496L10.6099 18.5532C12.0284 17.1348 12.766 15.2624 12.766 13.1631V0H19.7447V13.2199C19.7447 17.2482 18.3262 20.7092 15.4894 23.4894L15.2057 23.7731C17.6454 21.5035 20.9929 20.1418 24.5674 20.1418C32.5106 20.1418 38.5248 26.4397 38.5248 34.0426ZM32.227 34.0426C32.227 29.9007 28.8227 26.5532 24.6241 26.5532C20.3688 26.5532 17.0213 30.0709 17.0213 34.0426C17.0213 38.1277 20.3688 41.5887 24.5674 41.5887C28.9362 41.5887 32.227 38.0142 32.227 34.0426Z"/>
  </symbol>
  <symbol id="icon-spotify" viewBox="0 0 16 16">
    <path d="M24 0C37.2484 1.70603e-05 48 10.7516 48 24C47.9999 37.2483 37.2483 48 24 48C10.7517 48 7.90714e-05 37.2483 0 24C0 10.7516 10.7516 0 24 0ZM34.2773 32.2256C27.3677 28.0934 19.2676 27.9388 11.3418 29.6904C10.6161 29.8453 10.0254 30.3197 10.0254 31.3164C10.0256 32.1001 10.6162 32.8447 11.5547 32.8447C11.8352 32.8447 12.3287 32.6905 12.7061 32.5938C19.6448 31.1712 26.6713 31.3261 32.71 34.9648C33.0871 35.1873 33.3388 35.3125 33.7451 35.3125C34.529 35.3125 35.2158 34.7029 35.2158 33.8223C35.2158 32.9417 34.8676 32.603 34.2773 32.2256ZM20.0029 20.7676C15.9774 20.7676 13.2292 21.3292 10.5391 22.084C9.5423 22.3646 9.03907 23.0515 9.03906 24.0869C9.03906 25.1224 9.88057 25.9648 10.916 25.9648C11.3514 25.9648 11.6031 25.8387 12.0674 25.7129C20.09 23.5355 29.1098 24.977 35.1582 28.5576C35.5066 28.7415 35.8454 28.9648 36.3486 28.9648C37.4033 28.9647 38.2159 28.1222 38.2256 27.0771C38.2256 26.2353 37.9157 25.6354 37.1318 25.1709C32.3512 22.3258 26.2835 20.7676 20.0029 20.7676ZM20.4678 12.5225C16.3162 12.5225 12.5031 12.9964 9.09668 13.9932C8.22571 14.2448 7.41309 14.9905 7.41309 16.3066C7.41325 17.5936 8.39066 18.5898 9.66797 18.5898C10.1323 18.5898 10.5677 18.4356 10.916 18.3389C18.8901 16.1131 31.2092 17.1001 38.0996 21.2129C38.5351 21.4645 38.8454 21.5898 39.3486 21.5898C40.5292 21.5897 41.5938 20.651 41.5938 19.335C41.5936 18.1836 41.0995 17.5839 40.3447 17.1484C34.9351 13.9937 27.5322 12.5225 20.4678 12.5225Z"/>
  </symbol>
  <symbol id="icon-linkedin" viewBox="0 0 16 16">
    <path fill-rule="evenodd" clip-rule="evenodd" d="M3.54 0H44.448C46.4053 0 47.9987 1.54933 47.9987 3.46133V44.536C47.9987 46.448 46.4053 48 44.448 48H3.54C1.58667 48 0 46.448 0 44.536V3.46133C0 1.54933 1.58667 0 3.54 0ZM6.54667 10.736C6.54667 13.016 8.39067 14.8653 10.6773 14.8653C12.9547 14.8653 14.8027 13.016 14.8027 10.736C14.8027 8.45733 12.9547 6.608 10.6773 6.608C8.39067 6.608 6.54667 8.45733 6.54667 10.736ZM33.784 40.9013H40.9027V28.3387C40.9027 22.1693 39.5707 17.4267 32.3613 17.4267C28.8987 17.4267 26.576 19.3253 25.6267 21.1267H25.528V17.9947H18.704V40.9013H25.8147V29.572C25.8147 26.5827 26.38 23.688 30.0853 23.688C33.7387 23.688 33.784 27.1053 33.784 29.7613V40.9013ZM7.112 40.9013H14.2387V17.9947H7.112V40.9013Z"/>
  </symbol>
  <symbol id="icon-dribble" viewBox="0 0 16 16">
    <path fill-rule="evenodd" clip-rule="evenodd" d="M24 0C10.7506 0 0 10.7506 0 24C0 37.2494 10.7506 48 24 48C37.2235 48 48 37.2494 48 24C48 10.7506 37.2235 0 24 0ZM39.8525 11.063C42.7157 14.5507 44.4341 19.0022 44.4859 23.8176L44.4169 23.8042C43.4391 23.6138 36.8547 22.3315 30.2213 23.1672C30.1302 22.9696 30.0478 22.763 29.9639 22.5528C29.9041 22.4029 29.8436 22.2513 29.7787 22.0997C29.3621 21.1104 28.8936 20.0957 28.4251 19.1323C35.9741 16.0608 39.4099 11.6357 39.8525 11.063ZM37.5878 8.69424C33.9696 5.49216 29.2061 3.54 24 3.54C22.3339 3.54 20.7202 3.7224 19.1842 4.08672L19.2119 4.12454C19.8679 5.01871 23.5293 10.0099 26.8373 16.0867C34.1256 13.3536 37.2235 9.21456 37.5878 8.69424ZM15.2798 5.46624C15.8266 6.19536 19.4707 11.2714 22.8806 17.3102C13.4654 19.8172 5.13203 19.8101 3.98418 19.8092L3.93072 19.8091C5.25792 13.4578 9.55296 8.17344 15.2798 5.46624ZM3.48816 23.4014V24.0259C3.48816 29.2843 5.49264 34.0997 8.74608 37.7179C9.21456 36.937 14.8373 27.6182 25.4054 24.2083C25.5358 24.1692 25.6724 24.1302 25.8091 24.0912C25.9458 24.0522 26.0825 24.0132 26.2128 23.9741C25.692 22.8024 25.1453 21.6312 24.5467 20.4859C14.3165 23.5574 4.37328 23.4274 3.48816 23.4014ZM24 44.5118C19.2624 44.5118 14.8896 42.8981 11.4274 40.1909C11.7917 39.4358 15.9566 31.4189 27.5141 27.384C27.5398 27.3713 27.5591 27.3648 27.5782 27.3584C27.5981 27.3517 27.6178 27.3451 27.6442 27.3317C30.5338 34.8024 31.705 41.076 32.0174 42.8722C29.5445 43.9392 26.8373 44.5118 24 44.5118ZM31.4448 26.3947C34.1256 33.7613 35.219 39.7483 35.4274 40.9978C40.0349 37.9003 43.3147 32.9803 44.1994 27.2798C43.4966 27.0456 37.8744 25.3795 31.4448 26.3947Z"/>
  </symbol>
  <symbol id="icon-youtube" viewBox="0 0 16 16">
    <path d="M24.2263 0C24.2263 0 39.3746 -0.000118304 43.1384 1.02637C44.1663 1.30459 45.1031 1.84761 45.8562 2.60059C46.6093 3.35371 47.1522 4.29125 47.4304 5.31934C49.0322 11.7674 48.6624 21.9515 47.4616 28.6484C47.1834 29.6764 46.6404 30.6132 45.8874 31.3662C45.1343 32.1193 44.1968 32.6622 43.1687 32.9404C39.4113 33.9649 24.3126 33.9668 24.2575 33.9668C24.2575 33.9668 9.10939 33.9669 5.34542 32.9404C4.31734 32.6622 3.37976 32.1193 2.62667 31.3662C1.87376 30.6132 1.33064 29.6763 1.05245 28.6484C-0.558869 22.2286 -0.117215 12.0381 1.0212 5.35059C1.29935 4.32252 1.84238 3.38498 2.59542 2.63184C3.34851 1.87867 4.28607 1.33587 5.31417 1.05762C9.06998 0.0334071 24.1605 0.000139735 24.2263 0ZM19.405 24.2617L31.9714 16.9834L19.405 9.70508V24.2617Z"/>
  </symbol>
  <symbol id="icon-apple-music" viewBox="0 0 16 16">
    <path d="M32.0957 0C32.6533 1.67702e-10 33.2109 0.000265076 33.7686 0.00292969C34.2382 0.00559635 34.7081 0.0110811 35.1777 0.0244141C36.2013 0.0524146 37.2342 0.115087 38.2461 0.301758C39.2722 0.492423 40.2284 0.801116 41.1611 1.28906C42.0784 1.76907 42.9177 2.39652 43.6455 3.14453C44.3732 3.8925 44.9832 4.7537 45.4502 5.69629C45.925 6.65626 46.2269 7.63935 46.4111 8.69531C46.5927 9.73513 46.6544 10.7949 46.6816 11.8467C46.6946 12.3294 46.6996 12.8123 46.7021 13.2949C46.7047 13.8682 46.7051 14.4414 46.7051 15.0146L46.7031 32.9844C46.7031 33.5577 46.7051 34.1317 46.7012 34.7051C46.6986 35.1875 46.6926 35.6699 46.6797 36.1523C46.6524 37.203 46.5918 38.2647 46.4102 39.3047C46.2259 40.3607 45.924 41.3437 45.4492 42.3037C44.9822 43.2463 44.3723 44.1075 43.6445 44.8555C42.9168 45.6034 42.0772 46.23 41.1602 46.71C40.2275 47.1979 39.2725 47.5089 38.2451 47.6982C37.2333 47.8849 36.2003 47.9476 35.1768 47.9756C34.7071 47.9889 34.2372 47.9944 33.7676 47.9971C33.2097 48 32.6516 48 32.0938 48H14.6094C14.0518 48 13.4941 48.0011 12.9365 47.9971C12.4669 47.9944 11.9969 47.9889 11.5273 47.9756C10.5037 47.9476 9.47091 47.8849 8.45898 47.6982C7.43278 47.5076 6.47674 47.198 5.54395 46.71C4.62675 46.23 3.78737 45.6035 3.05957 44.8555C2.3318 44.1075 1.72192 43.2463 1.25488 42.3037C0.780055 41.3437 0.478168 40.3607 0.293945 39.3047C0.112322 38.2647 0.0506814 37.2044 0.0234375 36.1523C0.0104753 35.6699 0.00552431 35.1875 0.00292969 34.7051C0.000334997 34.1317 0 33.5577 0 32.9844V15.0146C0 14.4414 0.000335489 13.8678 0.00292969 13.2959C0.00552434 12.8135 0.0104752 12.3311 0.0234375 11.8486C0.0506815 10.798 0.112321 9.7363 0.293945 8.69629C0.478168 7.64027 0.780055 6.65729 1.25488 5.69727C1.72192 4.75465 2.33181 3.89348 3.05957 3.14551C3.78737 2.39751 4.62675 1.77102 5.54395 1.29102C6.47674 0.803006 7.43149 0.492072 8.45898 0.302734C9.47091 0.114733 10.5037 0.0537478 11.5273 0.0244141C11.9969 0.0110837 12.4669 0.00559612 12.9365 0.00292969C13.4941 0.000265484 14.0518 0 14.6094 0H32.0957ZM32.7725 6.55176C32.657 6.5625 31.6352 6.74489 31.5107 6.77051L17.3408 9.65527L17.335 9.65723C16.9657 9.73604 16.6759 9.86801 16.4521 10.0576C16.182 10.2861 16.0316 10.6095 15.9746 10.9863C15.9627 11.0665 15.9434 11.2294 15.9434 11.4697C15.9434 11.4697 15.9434 26.078 15.9434 29.3652C15.9434 29.7835 15.9106 30.1901 15.6299 30.5361C15.3491 30.8822 15.0013 30.9865 14.5947 31.0693C14.2864 31.1321 13.9782 31.1951 13.6699 31.2578C12.4992 31.4957 11.7368 31.6568 11.0469 31.9268C10.3876 32.1846 9.89421 32.5139 9.50098 32.9307C8.72096 33.7551 8.4041 34.8733 8.5127 35.9209C8.60539 36.8147 9.00396 37.6697 9.68848 38.3018C10.1507 38.7294 10.7285 39.0547 11.4092 39.1924C12.1148 39.3353 12.867 39.2859 13.9658 39.0615C14.551 38.9426 15.0994 38.7565 15.6211 38.4453C16.1376 38.138 16.5801 37.7273 16.9258 37.2275C17.2727 36.7265 17.497 36.1691 17.6201 35.5771C17.7472 34.9666 17.7773 34.4148 17.7773 33.8057V18.2852C17.7773 17.454 18.011 17.2343 18.6758 17.0713C18.7672 17.0527 30.4513 14.6751 31.0029 14.5664C31.7696 14.4181 32.1318 14.6383 32.1318 15.4492V26.0449C32.1318 26.4644 32.1271 26.889 31.8438 27.2363C31.563 27.5824 31.2161 27.6867 30.8096 27.7695C30.5011 27.8323 30.1923 27.8952 29.8838 27.958C28.7133 28.1958 27.9516 28.358 27.2617 28.6279C26.6024 28.8858 26.1081 29.214 25.7148 29.6309C24.9349 30.4553 24.5906 31.5745 24.6992 32.6221C24.792 33.5159 25.2188 34.371 25.9033 35.0029C26.3655 35.4305 26.9433 35.7458 27.624 35.8848C28.3297 36.0276 29.0818 35.977 30.1807 35.7539C30.766 35.635 31.3142 35.4568 31.8359 35.1455C32.3524 34.8382 32.795 34.4284 33.1406 33.9287C33.4876 33.4276 33.7118 32.8703 33.835 32.2783C33.9621 31.6678 33.9668 31.116 33.9668 30.5068V7.81543C33.9694 6.9923 33.5392 6.48494 32.7725 6.55176Z"/>
  </symbol>
  <symbol id="icon-amazon-music" viewBox="0 0 16 16">
    <g clip-path="url(#clip0_2601_3975)">
<path d="M36.7013 9.974C36.3295 9.974 36.0617 10.0873 35.849 10.31C35.6366 10.5324 35.5325 10.8089 35.5325 11.1428C35.5325 11.4768 35.6366 11.8088 35.849 11.9757C36.0617 12.1984 36.3295 12.3117 36.7013 12.3117C37.0732 12.3117 37.3409 12.1984 37.5536 11.9757C37.766 11.7533 37.8701 11.4768 37.8701 11.1428C37.8701 10.8089 37.815 10.4769 37.6023 10.31C37.3898 10.0873 37.0732 9.974 36.7013 9.974ZM5.82469 13.7143C4.63436 13.7143 3.44495 14.1421 2.25493 14.9464L2.14288 14.3571C2.14288 14.1963 2.09036 14.1428 1.9822 14.0892C1.92812 14.0356 1.82246 14.0356 1.71431 14.0356H0.847344C0.576954 14.0358 0.467552 14.1428 0.467552 14.4109V23.3135C0.467552 23.5815 0.576799 23.6884 0.8475 23.6884H1.98205C2.2529 23.6884 2.36199 23.5817 2.36199 23.3135V16.0716C3.28194 15.5353 4.20314 15.2144 5.17701 15.2144C5.71779 15.2144 6.0954 15.3749 6.31171 15.6966C6.52817 16.0184 6.69166 16.4509 6.69166 17.0944V23.2599C6.69166 23.5279 6.79607 23.6348 7.06662 23.6348H8.20615C8.47669 23.6348 8.58127 23.5281 8.58127 23.2599V16.0716C9.55529 15.4817 10.4763 15.2144 11.3961 15.2144C11.9372 15.2144 12.3145 15.3749 12.5308 15.6966C12.7474 16.0184 12.9108 16.4509 12.9108 17.0944V23.2599C12.9108 23.5279 13.02 23.6348 13.2906 23.6348H14.4253C14.696 23.6348 14.8052 23.5281 14.8052 23.2599V16.5586C14.8052 15.6469 14.5908 14.9471 14.1039 14.4643C13.6169 13.9817 12.9638 13.7143 12.0438 13.7143C10.7994 13.7143 9.50418 14.1421 8.25976 15.0536C7.82698 14.1419 7.01503 13.7143 5.82469 13.7143ZM30.9108 13.7143C29.8936 13.7143 29.0402 13.9845 28.3978 14.4692C27.7554 14.9538 27.4334 15.6533 27.4334 16.461C27.4334 17.6997 28.1308 18.6156 29.5228 19.1542L31.1251 19.7436C31.6604 19.9591 31.9824 20.1223 32.1965 20.3376C32.4106 20.553 32.4644 20.7695 32.4642 21.0925C32.4642 21.5235 32.3036 21.8998 31.9822 22.1152C31.661 22.3306 31.1829 22.4903 30.5941 22.4902C29.684 22.4902 28.8257 22.3846 27.9692 22.1152C27.7551 22.0614 27.5941 22.0081 27.487 22.0081C27.3265 22.0081 27.2727 22.1139 27.2727 22.3295V22.8701C27.2727 23.0317 27.3265 23.1372 27.38 23.2451C27.4334 23.2988 27.5406 23.4054 27.7013 23.4593C28.5578 23.8362 29.5236 24 30.5941 24C31.7184 24 32.5721 23.7299 33.2679 23.1915C33.9641 22.6527 34.2857 21.9544 34.2857 21.0389C34.2857 20.3926 34.1249 19.9064 33.8036 19.4757C33.4825 19.0987 32.9459 18.7222 32.1965 18.4529L30.7013 17.8588C30.1124 17.6432 29.6833 17.4313 29.5228 17.2159C29.3085 17.0005 29.2013 16.7844 29.2013 16.4074C29.2013 15.5997 29.7865 15.1705 31.0178 15.1705C31.7137 15.1705 32.4112 15.2764 33.0536 15.4918C33.2678 15.5457 33.4287 15.599 33.4822 15.599C33.6427 15.599 33.7501 15.4931 33.7499 15.2775V14.7369C33.7499 14.5756 33.6963 14.4696 33.6429 14.3619C33.5893 14.2541 33.482 14.1968 33.3214 14.1428C32.5183 13.8737 31.7135 13.7143 30.9108 13.7143ZM44.4839 13.7143C42.9745 13.7143 41.8446 14.1472 40.9822 15.0632C40.1737 15.9254 39.7403 17.2164 39.7403 18.8328C39.7403 20.4492 40.1152 21.6865 40.9238 22.5488C41.7323 23.4109 42.8674 23.8441 44.3766 23.8441C45.1852 23.8441 45.9412 23.7386 46.5341 23.4692C46.6959 23.4152 46.8017 23.3576 46.8555 23.25C46.9094 23.196 46.9091 23.0365 46.9091 22.8749V22.3343C46.9091 22.065 46.803 21.9593 46.6412 21.9593C46.5874 21.9593 46.4763 21.959 46.3685 22.013C45.7757 22.1746 45.1834 22.2809 44.6445 22.2809C43.6203 22.2809 42.865 22.0112 42.38 21.4723C41.8948 20.9336 41.6787 20.0713 41.6787 18.9399V18.672C41.7326 17.4866 41.9484 16.6248 42.4334 16.0861C42.9186 15.5471 43.6736 15.2775 44.7516 15.2775C45.2908 15.2775 45.83 15.33 46.315 15.4918C46.4768 15.5456 46.5334 15.5454 46.6412 15.5454C46.8028 15.5454 46.9091 15.4399 46.9091 15.1705V14.6298C46.9091 14.4681 46.856 14.3086 46.8019 14.2549C46.748 14.201 46.6372 14.0897 46.5292 14.0358C45.8286 13.874 45.1306 13.7143 44.4839 13.7143ZM17.5228 14.0259C17.2527 14.0259 17.1429 14.1361 17.1429 14.4059V21.0876C17.1429 22.0042 17.3584 22.7598 17.8442 23.2451C18.3301 23.7302 19.0303 24 19.9481 24C21.1897 24 22.4324 23.5672 23.6201 22.7046L23.7273 23.3523C23.7273 23.5139 23.7848 23.5709 23.8928 23.625C23.9469 23.6788 24.0524 23.6786 24.2143 23.6786H25.0227C25.2927 23.6786 25.4026 23.5681 25.4026 23.2987V14.4057C25.4026 14.1361 25.2927 14.0259 25.0227 14.0259H23.8928C23.5688 14.0259 23.4594 14.1901 23.4594 14.4059V21.5747C22.5415 22.1679 21.6256 22.4902 20.7078 22.4902C20.114 22.4902 19.6822 22.3267 19.4123 22.0033C19.1424 21.6796 19.0325 21.1942 19.0325 20.4935V14.4057C19.0325 14.1361 18.9226 14.0259 18.6527 14.0259H17.5228ZM36.2191 14.0259C35.952 14.0259 35.8442 14.1325 35.8442 14.4009V23.3133C35.8442 23.5817 35.952 23.6883 36.2191 23.6883H37.3393C37.6065 23.6883 37.7143 23.5817 37.7143 23.3133V14.4009C37.7143 14.1862 37.6065 14.0259 37.3393 14.0259H36.2191ZM44.6251 27.2727C42.8966 27.2727 40.844 27.6512 39.2776 28.7337C38.7913 29.0585 38.8986 29.4939 39.3848 29.4399C41.0593 29.2232 44.8386 28.7881 45.5406 29.6542C46.189 30.52 44.7862 34.0943 44.138 35.664C43.976 36.1511 44.3531 36.3101 44.8393 35.9853C47.6481 33.6039 48.4043 28.6781 47.81 27.9204C47.54 27.5956 46.2455 27.2727 44.6251 27.2727ZM0.413942 28.2078C0.0361753 28.2078 -0.178266 28.6357 0.199656 29.0113C6.46038 34.6444 14.7711 38.0259 23.9464 38.0259C30.5311 38.0259 38.1382 35.9863 43.3733 32.1233C44.2911 31.4796 43.5362 30.5157 42.6186 30.8912C36.7354 33.3592 30.3161 34.5925 24.487 34.5925C15.8514 34.5925 7.4821 32.2315 0.735448 28.315C0.627448 28.2612 0.521941 28.2078 0.413942 28.2078Z"/>
</g>
<defs>
<clipPath id="clip0_2601_3975">
<rect width="48" height="48"/>
</clipPath>
</defs>
  </symbol>
  <symbol id="icon-soundcloud" viewBox="0 0 16 16">
    <path d="M40.7998 0C44.7763 0 48 3.22374 48 7.2002V40.7998C48 44.7763 44.7763 48 40.7998 48H7.2002C3.22374 48 0 44.7763 0 40.7998V7.2002C0 3.22374 3.22374 0 7.2002 0H40.7998ZM13.3125 21.1875C13.3125 20.7188 12.75 20.7188 12.75 21.1875L12.4688 27.375L12.6562 31.125C12.6562 31.875 13.3125 31.875 13.3125 31.125L13.6875 27.375L13.3125 21.1875ZM14.9062 19.7812C14.9062 19.2188 14.25 19.2188 14.25 19.7812L13.9688 27.375L14.1562 31.125C14.1562 31.875 14.9062 31.875 14.9062 31.125L15.1875 27.375L14.9062 19.7812ZM16.4062 19.125C16.4062 18.5625 15.75 18.5625 15.75 19.125L15.4688 27.375L15.6562 31.125C15.6562 31.875 16.4062 31.875 16.4062 31.125L16.6875 27.375L16.4062 19.125ZM18 18.8438C18 18.2813 17.25 18.2813 17.25 18.8438L16.9688 27.375L17.25 31.125C17.25 31.875 18 31.875 18 31.125L18.2812 27.375L18 18.8438ZM19.5938 19.0312C19.5937 18.4688 18.75 18.4688 18.75 19.0312L18.5625 27.375L18.75 31.125C18.75 31.875 19.5938 31.875 19.5938 31.125L19.875 27.375L19.5938 19.0312ZM21.1875 19.4062C21.1875 18.75 20.3438 18.75 20.3438 19.4062L20.1562 27.375L20.25 31.125C20.25 31.875 21.1875 31.875 21.1875 31.125L21.375 27.375L21.1875 19.4062ZM22.7812 17.8125C22.7812 17.1563 21.8438 17.1563 21.8438 17.8125L21.6562 27.375L21.8438 31.125C21.8438 31.875 22.7812 31.875 22.7812 31.125L22.9688 27.375L22.7812 17.8125ZM24.375 16.9688C24.375 16.3125 23.4375 16.3125 23.4375 16.9688L23.1562 27.375L23.4375 31.125C23.4375 31.875 24.375 31.875 24.375 31.125L24.6562 27.375L24.375 16.9688ZM36.375 22.7812C35.9062 17.4375 30.375 13.9688 25.3125 15.9375C24.9375 16.125 24.8438 16.2188 24.8438 16.5V31.125C24.8438 31.4062 25.0312 31.6875 25.3125 31.6875H38.1562C40.6875 31.6875 42.75 29.625 42.75 27.0938C42.75 23.625 39.4688 21.75 36.375 22.7812ZM11.8125 23.5312C11.8125 23.25 11.25 23.25 11.25 23.5312L10.9688 27.375L11.25 31.125C11.25 31.7812 11.8125 31.7812 11.8125 31.125L12.0938 27.375L11.8125 23.5312ZM10.2188 23.25C10.2187 22.9688 9.84375 22.9688 9.84375 23.25L9.46875 27.375L9.75 31.125C9.75 31.6875 10.2188 31.6875 10.2188 31.125L10.5938 27.375L10.2188 23.25ZM8.71875 23.3438C8.71875 23.0625 8.34375 23.0625 8.34375 23.3438L7.96875 27.375L8.34375 31.125C8.34375 31.5 8.71875 31.5 8.71875 31.125L9.09375 27.375L8.71875 23.3438ZM7.21875 24C7.21875 23.7188 6.9375 23.7188 6.9375 24L6.46875 27.375L6.84375 30.6562C6.84375 30.9375 7.21875 30.9375 7.21875 30.6562L7.59375 27.375L7.21875 24ZM5.8125 25.3125C5.8125 25.0313 5.53125 25.0313 5.53125 25.3125L5.25 27.375L5.53125 29.4375C5.53125 29.625 5.8125 29.625 5.8125 29.4375L6.09375 27.375L5.8125 25.3125Z"/>
  </symbol>
  <symbol id="icon-deezer" viewBox="0 0 16 16">
    <path d="M37.21 11.45C37.57 9.35902 38.1 8.04402 38.686 8.04102C39.78 8.04502 40.667 12.606 40.667 18.237C40.667 23.868 39.78 28.432 38.685 28.432C38.236 28.432 37.822 27.657 37.489 26.358C36.962 31.113 35.868 34.381 34.602 34.381C33.622 34.381 32.743 32.418 32.153 29.321C31.75 35.21 30.736 39.388 29.551 39.388C28.807 39.388 28.128 37.732 27.626 35.037C27.022 40.601 25.627 44.5 24.001 44.5C22.375 44.5 20.976 40.602 20.375 35.037C19.876 37.732 19.198 39.387 18.451 39.387C17.265 39.387 16.253 35.21 15.848 29.322C15.258 32.418 14.381 34.382 13.399 34.382C12.134 34.382 11.039 31.114 10.512 26.358C10.182 27.661 9.765 28.432 9.316 28.432C8.221 28.432 7.333 23.868 7.333 18.237C7.333 12.606 8.221 8.04002 9.316 8.04002C9.904 8.04002 10.429 9.35902 10.794 11.45C11.378 7.84302 12.327 5.49902 13.399 5.49902C14.672 5.49902 15.776 8.81402 16.298 13.627C16.808 10.124 17.584 7.89102 18.452 7.89102C19.668 7.89102 20.702 12.283 21.085 18.411C21.805 15.269 22.849 13.298 24.003 13.298C25.157 13.298 26.2 15.27 26.919 18.41C27.304 12.283 28.337 7.89002 29.553 7.89002C30.42 7.89002 31.193 10.124 31.707 13.627C32.227 8.81402 33.331 5.49902 34.605 5.49902C35.673 5.49902 36.625 7.84502 37.21 11.45ZM4.5 17.234C4.5 14.717 5.136 12.676 5.921 12.676C6.706 12.676 7.343 14.716 7.343 17.234C7.343 19.752 6.707 21.792 5.921 21.792C5.135 21.792 4.5 19.752 4.5 17.234ZM40.669 17.234C40.669 14.717 41.303 12.676 42.085 12.676C42.867 12.676 43.501 14.716 43.501 17.234C43.501 19.752 42.867 21.792 42.085 21.792C41.303 21.792 40.669 19.752 40.669 17.234Z"/>
  </symbol>
  <symbol id="icon-facebook" viewBox="0 0 16 16">
    <g clip-path="url(#clip0_2601_3986)">
<mask id="mask0_2601_3986" style="mask-type:luminance" maskUnits="userSpaceOnUse" x="-10" y="-10" width="68" height="68">
<path d="M-9.59998 -9.59998H57.6V57.6H-9.59998V-9.59998Z"/>
</mask>
<g mask="url(#mask0_2601_3986)">
<path d="M27.4623 47.7506C39.0764 46.0723 48.0004 36.0785 48.0004 23.9996C48.0001 10.7452 37.2549 -0.000164032 24.0004 -0.000366211C10.7457 -0.000366211 0.000604873 10.745 0.000366211 23.9996C0.000366211 35.2551 7.74899 44.7 18.2025 47.2936V31.3346H13.2533V23.9996H18.2025V20.8395C18.2026 17.0107 19.0146 14.1448 20.7035 12.1803C20.8161 12.0493 20.9327 11.9224 21.0531 11.7994C21.4143 11.4305 21.8104 11.0971 22.2426 10.7994C22.3867 10.7002 22.5348 10.6047 22.6869 10.5133C23.0671 10.2848 23.4723 10.0808 23.9027 9.901C24.1608 9.79321 24.4282 9.69458 24.7045 9.60413C25.9945 9.18185 27.4838 8.94804 29.1791 8.89612C29.4213 8.8887 29.6677 8.8844 29.9183 8.8844C30.1084 8.8844 30.3162 8.88934 30.5355 8.89807C32.0709 8.95921 34.197 9.22018 35.1361 9.48108V16.1295C34.9946 16.1146 34.827 16.1016 34.6361 16.0905C34.2541 16.0681 33.7789 16.053 33.2328 16.0455C32.9598 16.0418 32.6692 16.0397 32.3636 16.0397C32.2406 16.0397 32.1197 16.0416 32.0013 16.0446C28.453 16.1328 27.0025 17.5553 26.9125 21.0494C26.9095 21.1659 26.9076 21.2847 26.9076 21.4059V23.9996H34.7465L33.3998 31.3346H26.9076V47.8239L27.4623 47.7506Z"/>
</g>
</g>
<defs>
<clipPath id="clip0_2601_3986">
<rect width="48" height="48"/>
</clipPath>
</defs>
  </symbol>
  <symbol id="icon-instagram" viewBox="0 0 16 16">
    <path d="M31.82 0C37.5565 0.00996087 37.7799 0.0576146 38.9011 0.219727C41.215 0.553536 43.157 1.4772 44.7448 2.99414C45.6343 3.85034 46.2467 4.68823 46.7985 5.80957C47.4711 7.17948 47.8015 8.47585 47.9528 10.4033C47.9853 10.8212 48.0007 17.4006 48.0007 23.9844C48.0007 30.5694 47.9872 37.1636 47.9548 37.5771C47.8052 39.4739 47.4744 40.781 46.8229 42.125C45.5272 44.7984 43.1459 46.748 40.2702 47.4902C39.2273 47.7598 38.2841 47.8864 36.6598 47.9629C36.0803 47.9924 30.0184 48 23.9567 48C17.8952 48 11.8372 47.9819 11.2428 47.9561C9.84026 47.8896 8.74771 47.7489 7.75847 47.4941C4.90115 46.7556 2.47566 44.7762 1.20574 42.1396C0.541271 40.7623 0.22733 39.5033 0.0612071 37.502C0.0132041 36.9333 0.00163679 34.0046 0.00163679 23.9902C0.00163654 20.6165 -0.00204586 18.1007 0.00163679 16.1895C0.0112356 10.456 0.0589448 10.227 0.221363 9.10449C0.555453 6.79226 1.47799 4.84677 3.00066 3.26562C3.8367 2.39871 4.68443 1.78063 5.75847 1.24707C7.15245 0.552877 8.43272 0.228585 10.4889 0.0576172C11.0597 0.0103913 13.9915 0 24.0085 0H31.82ZM24.0075 6.16309C19.1631 6.16309 18.5544 6.18493 16.6511 6.27148C14.7514 6.35844 13.4547 6.65864 12.32 7.09961C11.1462 7.55509 10.1499 8.16464 9.15789 9.15625C8.16544 10.1473 7.55557 11.1421 7.09832 12.3145C6.65586 13.4487 6.35472 14.7458 6.26922 16.6436C6.18409 18.5454 6.16179 19.1542 6.16179 23.9971C6.16179 28.8402 6.18395 29.4464 6.27019 31.3486C6.3576 33.247 6.65837 34.5429 7.09929 35.6768C7.55548 36.8496 8.16467 37.8448 9.15691 38.8359C10.1485 39.8279 11.145 40.439 12.318 40.8945C13.4534 41.3354 14.7508 41.6357 16.6501 41.7227C18.5535 41.8092 19.1616 41.8301 24.0075 41.8301C28.8544 41.8301 29.4616 41.8092 31.3649 41.7227C33.2647 41.6357 34.5635 41.3355 35.6989 40.8945C36.8722 40.4391 37.8665 39.8278 38.8581 38.8359C39.8508 37.8447 40.4613 36.8493 40.9186 35.6768C41.3573 34.5426 41.6585 33.2462 41.7477 31.3486C41.8332 29.4465 41.8552 28.8401 41.8552 23.9971C41.8552 19.1538 41.8332 18.5457 41.7477 16.6436C41.6585 14.7452 41.3573 13.4492 40.9186 12.3154C40.4613 11.1425 39.8508 10.1475 38.8581 9.15625C37.8653 8.16426 36.8728 7.55473 35.6979 7.09961C34.5602 6.65863 33.2627 6.35844 31.363 6.27148C29.4597 6.18493 28.8532 6.16309 24.0075 6.16309ZM22.4089 9.37695C22.8841 9.37621 23.4148 9.37695 24.0104 9.37695C28.775 9.37695 29.34 9.39406 31.2214 9.47949C32.961 9.55899 33.9057 9.84969 34.5348 10.0938C35.3677 10.417 35.9623 10.8036 36.5866 11.4277C37.2111 12.0518 37.5974 12.6464 37.9216 13.4785C38.1658 14.1064 38.4576 15.0503 38.5368 16.7891C38.6223 18.6687 38.6403 19.2341 38.6403 23.9932C38.6403 28.7517 38.6223 29.3168 38.5368 31.1963C38.4572 32.9349 38.1658 33.879 37.9216 34.5068C37.5981 35.339 37.2111 35.932 36.5866 36.5557C35.962 37.1798 35.3681 37.5664 34.5348 37.8896C33.9065 38.1348 32.961 38.4244 31.2214 38.5039C29.3404 38.5893 28.775 38.6084 24.0104 38.6084C19.245 38.6084 18.6799 38.5894 16.7985 38.5039C15.0587 38.4237 14.1145 38.1328 13.485 37.8887C12.6522 37.5655 12.0569 37.1797 11.4323 36.5557C10.8077 35.9315 10.4206 35.3384 10.0964 34.5059C9.85209 33.878 9.5613 32.934 9.48211 31.1953C9.39659 29.3154 9.37957 28.7506 9.37957 23.9883C9.37957 19.226 9.39659 18.6641 9.48211 16.7842C9.56166 15.0459 9.85213 14.1022 10.0964 13.4736C10.4198 12.6415 10.8078 12.0469 11.4323 11.4229C12.0569 10.7987 12.6522 10.4119 13.485 10.0879C14.1141 9.8427 15.0588 9.55255 16.7985 9.47266C18.4448 9.39835 19.083 9.37679 22.4089 9.37305V9.37695ZM24.0094 14.8389C18.9484 14.8393 14.8454 18.9397 14.8454 23.9971C14.8455 29.0546 18.9491 33.1533 24.0104 33.1533C29.0717 33.1532 33.1734 29.0545 33.1735 23.9971C33.1735 18.9394 29.0709 14.8389 24.0094 14.8389ZM24.0104 18.0527C27.2956 18.0529 29.9587 20.7139 29.9587 23.9971C29.9585 27.2797 27.2955 29.9413 24.0104 29.9414C20.7249 29.9414 18.0613 27.2798 18.0612 23.9971C18.0612 20.7139 20.7248 18.0527 24.0104 18.0527ZM33.318 12.3496C32.2383 12.459 31.3952 13.3695 31.3952 14.4775C31.3952 15.659 32.3545 16.6172 33.5368 16.6172C34.719 16.6171 35.6783 15.6589 35.6784 14.4775C35.6784 13.2961 34.7191 12.338 33.5368 12.3379L33.318 12.3496Z"/>
  </symbol>
  <symbol id="icon-phone-square" viewBox="0 0 16 16">
    <path d="M44 0C46.2091 0 48 1.79086 48 4V44C48 46.2091 46.2091 48 44 48H4C1.79086 48 6.44266e-08 46.2091 0 44V4C0 1.79086 1.79086 6.44256e-08 4 0H44ZM16.125 7.5C15.5037 7.5 15 8.00368 15 8.625V39.375C15 39.9963 15.5037 40.5 16.125 40.5H32.7324C33.3536 40.4999 33.8574 39.9962 33.8574 39.375V8.625C33.8574 8.00377 33.3536 7.50015 32.7324 7.5H16.125ZM24.4287 36.375C25.0072 36.3751 25.4766 36.8368 25.4766 37.4062C25.4766 37.9757 25.0072 38.4374 24.4287 38.4375C23.8501 38.4375 23.3809 37.9758 23.3809 37.4062C23.3809 36.8367 23.8501 36.375 24.4287 36.375ZM31.7617 13.6875V34.3125H17.0957V13.6875H31.7617ZM25.1953 10.0781C25.3505 10.0783 25.4766 10.2042 25.4766 10.3594V10.8281C25.4766 10.9833 25.3505 11.1092 25.1953 11.1094H19.4717C19.3164 11.1094 19.1904 10.9834 19.1904 10.8281V10.3594C19.1904 10.2041 19.3164 10.0781 19.4717 10.0781H25.1953ZM29.1426 10.0781C29.4319 10.0781 29.667 10.309 29.667 10.5938C29.667 10.8785 29.4319 11.1094 29.1426 11.1094C28.8534 11.1092 28.6191 10.8784 28.6191 10.5938C28.6191 10.3091 28.8534 10.0783 29.1426 10.0781Z"/>
  </symbol>
  <symbol id="icon-menu" viewBox="0 0 16 16">
    <path d="M44 0C46.2091 0 48 1.79086 48 4V44C48 46.2091 46.2091 48 44 48H4C1.79086 48 6.44266e-08 46.2091 0 44V4C0 1.79086 1.79086 6.44256e-08 4 0H44ZM7.5 31.5C6.67157 31.5 6 32.1716 6 33C6 33.8284 6.67157 34.5 7.5 34.5H40.5C41.3284 34.5 42 33.8284 42 33C42 32.1716 41.3284 31.5 40.5 31.5H7.5ZM7.5 22.5C6.67157 22.5 6 23.1716 6 24C6 24.8284 6.67157 25.5 7.5 25.5H40.5C41.3284 25.5 42 24.8284 42 24C42 23.1716 41.3284 22.5 40.5 22.5H7.5ZM7.5 13.5C6.67157 13.5 6 14.1716 6 15C6 15.8284 6.67157 16.5 7.5 16.5H40.5C41.3284 16.5 42 15.8284 42 15C42 14.1716 41.3284 13.5 40.5 13.5H7.5Z"/>
  </symbol>
  <symbol id="icon-close-square" viewBox="0 0 16 16">
    <path d="M44 0C46.2091 0 48 1.79086 48 4V44C48 46.2091 46.2091 48 44 48H4C1.79086 48 6.44266e-08 46.2091 0 44V4C0 1.79086 1.79086 6.44256e-08 4 0H44ZM16.707 15.707C16.3165 15.3166 15.6835 15.3166 15.293 15.707C14.9025 16.0975 14.9025 16.7306 15.293 17.1211L22.5859 24.4141L15.707 31.293C15.3166 31.6835 15.3166 32.3165 15.707 32.707C16.0975 33.0975 16.7306 33.0975 17.1211 32.707L24 25.8281L30.8496 32.6777C31.2402 33.068 31.8732 33.0682 32.2637 32.6777C32.654 32.2873 32.654 31.6542 32.2637 31.2637L25.4141 24.4141L32.6777 17.1504C33.068 16.7598 33.0682 16.1268 32.6777 15.7363C32.2873 15.346 31.6542 15.346 31.2637 15.7363L24 23L16.707 15.707Z"/>
  </symbol>
  <symbol id="icon-close" viewBox="0 0 16 16">
    <path d="M4.85 48L0 43.2L19.4 24L0 4.8L4.85 0L24.25 19.2L43.65 0L48.5 4.8L29.1 24L48.5 43.2L43.65 48L24.25 28.8L4.85 48Z"/>
  </symbol>
  <symbol id="icon-logo-iconic" viewBox="0 0 16 16">
    <path d="M13.8545 2.74121C12.8453 2.74122 11.9262 2.84608 11.0967 3.05371C10.2809 3.24756 9.64477 3.58667 9.18848 4.07129C8.74609 4.55584 8.5589 5.22002 8.62793 6.06445L9.49902 14.5811C9.62342 15.744 9.55466 16.7063 9.29199 17.4678C9.02933 18.2292 8.58686 18.8247 7.96484 19.2539C7.35654 19.6831 6.57499 19.988 5.62109 20.168C6.58875 20.3341 7.38374 20.6247 8.00586 21.04C8.62808 21.4416 9.06361 22.0236 9.3125 22.7852C9.56133 23.5328 9.62343 24.5227 9.49902 25.7549L8.62793 34.2705C8.55879 35.129 8.74601 35.8015 9.18848 36.2861C9.63092 36.7705 10.2673 37.1099 11.0967 37.3037C11.9261 37.4975 12.8454 37.5937 13.8545 37.5938V40.3359C12.6932 40.3359 11.5802 40.2321 10.5156 40.0244C9.45094 39.8306 8.51013 39.4915 7.69434 39.0068C6.87864 38.5222 6.26341 37.8573 5.84863 37.0127C5.43383 36.1819 5.29533 35.1294 5.43359 33.8555L6.26367 25.9629C6.37428 25.0076 6.28443 24.2045 5.99414 23.5537C5.71762 22.9029 5.10908 22.4114 4.16895 22.0791C3.24253 21.7329 1.85282 21.5596 0 21.5596V18.7764C1.85278 18.7764 3.24253 18.6106 4.16895 18.2783C5.10918 17.946 5.7176 17.4535 5.99414 16.8027C6.28432 16.1521 6.37418 15.3562 6.26367 14.415L5.43359 6.48047C5.29533 5.2066 5.43385 4.15404 5.84863 3.32324C6.26344 2.4786 6.87188 1.81374 7.67383 1.3291C8.48962 0.844462 9.43043 0.50538 10.4951 0.311523C11.5734 0.103882 12.6932 1.20234e-05 13.8545 0V2.74121ZM34.6455 0C35.8068 1.20505e-05 36.9198 0.103854 37.9844 0.311523C39.0491 0.50538 39.9899 0.844462 40.8057 1.3291C41.6214 1.81373 42.2366 2.47866 42.6514 3.32324C43.08 4.15404 43.2185 5.2066 43.0664 6.48047L42.2363 14.415C42.1258 15.3563 42.2434 16.1521 42.5889 16.8027C42.9483 17.4535 43.598 17.946 44.5381 18.2783C45.4783 18.6106 46.7993 18.7764 48.5 18.7764V21.5596C46.8131 21.5596 45.4922 21.7329 44.5381 22.0791C43.5981 22.4114 42.9483 22.903 42.5889 23.5537C42.2433 24.2045 42.1257 25.0076 42.2363 25.9629L43.0664 33.8555C43.2047 35.1294 43.0662 36.1819 42.6514 37.0127C42.2366 37.8573 41.6214 38.5222 40.8057 39.0068C40.0037 39.4915 39.0629 39.8306 37.9844 40.0244C36.9198 40.2321 35.8068 40.3359 34.6455 40.3359V37.5938C35.6547 37.5937 36.5671 37.4975 37.3828 37.3037C38.2122 37.1099 38.8553 36.7705 39.3115 36.2861C39.7678 35.8015 39.955 35.129 39.8721 34.2705L39.001 25.7549C38.8766 24.5227 38.9454 23.5328 39.208 22.7852C39.4707 22.0237 39.9407 21.4416 40.6182 21.04C41.3095 20.6385 42.2159 20.3623 43.3359 20.21C42.2574 20.03 41.372 19.7175 40.6807 19.2744C40.0033 18.8313 39.5265 18.2292 39.25 17.4678C38.9735 16.7063 38.8904 15.7441 39.001 14.5811L39.8721 6.06445C39.9549 5.22002 39.7677 4.55584 39.3115 4.07129C38.8552 3.58667 38.2191 3.24756 37.4033 3.05371C36.5877 2.84608 35.6685 2.74122 34.6455 2.74121V0ZM24.2295 16.5488C24.9346 16.5488 25.5641 16.7146 26.1172 17.0469C26.6702 17.3653 27.1058 17.8017 27.4238 18.3555C27.7418 18.8955 27.9004 19.5051 27.9004 20.1836C27.9004 20.862 27.7418 21.4851 27.4238 22.0527C27.1059 22.6065 26.6701 23.0495 26.1172 23.3818C25.5641 23.7003 24.9346 23.8594 24.2295 23.8594C23.5381 23.8594 22.9154 23.7003 22.3623 23.3818C21.8233 23.0496 21.3951 22.6064 21.0771 22.0527C20.7591 21.4851 20.5996 20.862 20.5996 20.1836C20.5996 19.5051 20.7591 18.8955 21.0771 18.3555C21.3951 17.8018 21.8232 17.3653 22.3623 17.0469C22.9154 16.7146 23.5381 16.5488 24.2295 16.5488Z"/>
  </symbol>
  <symbol id="icon-play" viewBox="0 0 16 16">
    <path d="M24.25 0C37.6428 0 48.5 10.746 48.5 24.001C48.4999 37.2558 37.6427 48.001 24.25 48.001C10.8574 48.0008 0.000133319 37.2558 0 24.001C0 10.7461 10.8573 0.00012855 24.25 0ZM17.0605 34.7705L35.9092 23.9658L17.0605 13.1611V34.7705Z"/>
  </symbol>
  <symbol id="icon-pause" viewBox="0 0 16 16">
    <path d="M24 0C37.2548 0 48 10.7452 48 24C48 37.2548 37.2548 48 24 48C10.7452 48 0 37.2548 0 24C0 10.7452 10.7452 0 24 0ZM15 33H21V15H15V33ZM27 15V33H33V15H27Z"/>
  </symbol>
  <symbol id="icon-warning" viewBox="0 0 16 16">
    <path d="M0 41.8864L24.25 0L48.5 41.8864H0ZM25.8207 34.6389C26.2433 34.2164 26.4545 33.6928 26.4545 33.0682C26.4545 32.4436 26.2433 31.92 25.8207 31.4974C25.3982 31.0749 24.8746 30.8636 24.25 30.8636C23.6254 30.8636 23.1018 31.0749 22.6793 31.4974C22.2567 31.92 22.0455 32.4436 22.0455 33.0682C22.0455 33.6928 22.2567 34.2164 22.6793 34.6389C23.1018 35.0615 23.6254 35.2727 24.25 35.2727C24.8746 35.2727 25.3982 35.0615 25.8207 34.6389ZM22.0455 28.6591H26.4545V17.6364H22.0455V28.6591Z"/>
  </symbol>
  <symbol id="icon-success" viewBox="0 0 16 16">
    <path d="M20.855 35.405L37.9513 18.3088L34.5563 14.9138L20.855 28.615L13.9438 21.7038L10.5487 25.0988L20.855 35.405ZM24.25 48.5C20.8954 48.5 17.7429 47.8634 14.7925 46.5903C11.8421 45.3172 9.27563 43.5894 7.09313 41.4069C4.91062 39.2244 3.18281 36.6579 1.90969 33.7075C0.636563 30.7571 0 27.6046 0 24.25C0 20.8954 0.636563 17.7429 1.90969 14.7925C3.18281 11.8421 4.91062 9.27563 7.09313 7.09313C9.27563 4.91062 11.8421 3.18281 14.7925 1.90969C17.7429 0.636563 20.8954 0 24.25 0C27.6046 0 30.7571 0.636563 33.7075 1.90969C36.6579 3.18281 39.2244 4.91062 41.4069 7.09313C43.5894 9.27563 45.3172 11.8421 46.5903 14.7925C47.8634 17.7429 48.5 20.8954 48.5 24.25C48.5 27.6046 47.8634 30.7571 46.5903 33.7075C45.3172 36.6579 43.5894 39.2244 41.4069 41.4069C39.2244 43.5894 36.6579 45.3172 33.7075 46.5903C30.7571 47.8634 27.6046 48.5 24.25 48.5Z"/>
  </symbol>
  <symbol id="icon-success-filled" viewBox="0 0 16 16">
    <path d="M20.855 35.405L37.9513 18.3088L34.5563 14.9138L20.855 28.615L13.9438 21.7038L10.5487 25.0988L20.855 35.405ZM24.25 48.5C20.8954 48.5 17.7429 47.8634 14.7925 46.5903C11.8421 45.3172 9.27563 43.5894 7.09313 41.4069C4.91063 39.2244 3.18281 36.6579 1.90969 33.7075C0.636562 30.7571 0 27.6046 0 24.25C0 20.8954 0.636562 17.7429 1.90969 14.7925C3.18281 11.8421 4.91063 9.27563 7.09313 7.09313C9.27563 4.91063 11.8421 3.18281 14.7925 1.90969C17.7429 0.636562 20.8954 0 24.25 0C27.6046 0 30.7571 0.636562 33.7075 1.90969C36.6579 3.18281 39.2244 4.91063 41.4069 7.09313C43.5894 9.27563 45.3172 11.8421 46.5903 14.7925C47.8634 17.7429 48.5 20.8954 48.5 24.25C48.5 27.6046 47.8634 30.7571 46.5903 33.7075C45.3172 36.6579 43.5894 39.2244 41.4069 41.4069C39.2244 43.5894 36.6579 45.3172 33.7075 46.5903C30.7571 47.8634 27.6046 48.5 24.25 48.5Z"/>
<path d="M20.855 35.405L37.9513 18.3088L34.5563 14.9138L20.855 28.615L13.9438 21.7038L10.5487 25.0988L20.855 35.405Z"/>
  </symbol>
  <symbol id="icon-error" viewBox="0 0 16 16">
    <path d="M25.9778 35.6778C26.4426 35.213 26.675 34.6371 26.675 33.95C26.675 33.2629 26.4426 32.687 25.9778 32.2222C25.513 31.7574 24.9371 31.525 24.25 31.525C23.5629 31.525 22.987 31.7574 22.5222 32.2222C22.0574 32.687 21.825 33.2629 21.825 33.95C21.825 34.6371 22.0574 35.213 22.5222 35.6778C22.987 36.1426 23.5629 36.375 24.25 36.375C24.9371 36.375 25.513 36.1426 25.9778 35.6778ZM21.825 26.675H26.675V12.125H21.825V26.675ZM24.25 48.5C20.8954 48.5 17.7429 47.8634 14.7925 46.5903C11.8421 45.3172 9.27563 43.5894 7.09313 41.4069C4.91062 39.2244 3.18281 36.6579 1.90969 33.7075C0.636563 30.7571 0 27.6046 0 24.25C0 20.8954 0.636563 17.7429 1.90969 14.7925C3.18281 11.8421 4.91062 9.27563 7.09313 7.09313C9.27563 4.91062 11.8421 3.18281 14.7925 1.90969C17.7429 0.636563 20.8954 0 24.25 0C27.6046 0 30.7571 0.636563 33.7075 1.90969C36.6579 3.18281 39.2244 4.91062 41.4069 7.09313C43.5894 9.27563 45.3172 11.8421 46.5903 14.7925C47.8634 17.7429 48.5 20.8954 48.5 24.25C48.5 27.6046 47.8634 30.7571 46.5903 33.7075C45.3172 36.6579 43.5894 39.2244 41.4069 41.4069C39.2244 43.5894 36.6579 45.3172 33.7075 46.5903C30.7571 47.8634 27.6046 48.5 24.25 48.5Z"/>
  </symbol>
  <symbol id="icon-info" viewBox="0 0 16 16">
    <path d="M21.825 36.375H26.675V21.825H21.825V36.375ZM25.9778 16.2778C26.4426 15.813 26.675 15.2371 26.675 14.55C26.675 13.8629 26.4426 13.287 25.9778 12.8222C25.513 12.3574 24.9371 12.125 24.25 12.125C23.5629 12.125 22.987 12.3574 22.5222 12.8222C22.0574 13.287 21.825 13.8629 21.825 14.55C21.825 15.2371 22.0574 15.813 22.5222 16.2778C22.987 16.7426 23.5629 16.975 24.25 16.975C24.9371 16.975 25.513 16.7426 25.9778 16.2778ZM24.25 48.5C20.8954 48.5 17.7429 47.8634 14.7925 46.5903C11.8421 45.3172 9.27563 43.5894 7.09313 41.4069C4.91062 39.2244 3.18281 36.6579 1.90969 33.7075C0.636563 30.7571 0 27.6046 0 24.25C0 20.8954 0.636563 17.7429 1.90969 14.7925C3.18281 11.8421 4.91062 9.27563 7.09313 7.09313C9.27563 4.91062 11.8421 3.18281 14.7925 1.90969C17.7429 0.636563 20.8954 0 24.25 0C27.6046 0 30.7571 0.636563 33.7075 1.90969C36.6579 3.18281 39.2244 4.91062 41.4069 7.09313C43.5894 9.27563 45.3172 11.8421 46.5903 14.7925C47.8634 17.7429 48.5 20.8954 48.5 24.25C48.5 27.6046 47.8634 30.7571 46.5903 33.7075C45.3172 36.6579 43.5894 39.2244 41.4069 41.4069C39.2244 43.5894 36.6579 45.3172 33.7075 46.5903C30.7571 47.8634 27.6046 48.5 24.25 48.5Z"/>
  </symbol>
  <symbol id="icon-lock" viewBox="0 0 16 16">
    <path d="M4.57143 48C3.31429 48 2.2381 47.5524 1.34286 46.6571C0.447619 45.7619 0 44.6857 0 43.4286V20.5714C0 19.3143 0.447619 18.2381 1.34286 17.3429C2.2381 16.4476 3.31429 16 4.57143 16H6.85714V11.4286C6.85714 8.26667 7.97143 5.57143 10.2 3.34286C12.4286 1.11429 15.1238 0 18.2857 0C21.4476 0 24.1429 1.11429 26.3714 3.34286C28.6 5.57143 29.7143 8.26667 29.7143 11.4286V16H32C33.2571 16 34.3333 16.4476 35.2286 17.3429C36.1238 18.2381 36.5714 19.3143 36.5714 20.5714V43.4286C36.5714 44.6857 36.1238 45.7619 35.2286 46.6571C34.3333 47.5524 33.2571 48 32 48H4.57143ZM21.5143 35.2286C22.4095 34.3333 22.8571 33.2571 22.8571 32C22.8571 30.7429 22.4095 29.6667 21.5143 28.7714C20.619 27.8762 19.5429 27.4286 18.2857 27.4286C17.0286 27.4286 15.9524 27.8762 15.0571 28.7714C14.1619 29.6667 13.7143 30.7429 13.7143 32C13.7143 33.2571 14.1619 34.3333 15.0571 35.2286C15.9524 36.1238 17.0286 36.5714 18.2857 36.5714C19.5429 36.5714 20.619 36.1238 21.5143 35.2286ZM11.4286 16H25.1429V11.4286C25.1429 9.52381 24.4762 7.90476 23.1429 6.57143C21.8095 5.2381 20.1905 4.57143 18.2857 4.57143C16.381 4.57143 14.7619 5.2381 13.4286 6.57143C12.0952 7.90476 11.4286 9.52381 11.4286 11.4286V16Z"/>
  </symbol>
  <symbol id="icon-unlock" viewBox="0 0 16 16">
    <path d="M4.57143 16H25.1429V11.4286C25.1429 9.52381 24.4762 7.90476 23.1429 6.57143C21.8095 5.2381 20.1905 4.57143 18.2857 4.57143C16.381 4.57143 14.7619 5.2381 13.4286 6.57143C12.0952 7.90476 11.4286 9.52381 11.4286 11.4286H6.85714C6.85714 8.26667 7.97143 5.57143 10.2 3.34286C12.4286 1.11429 15.1238 0 18.2857 0C21.4476 0 24.1429 1.11429 26.3714 3.34286C28.6 5.57143 29.7143 8.26667 29.7143 11.4286V16H32C33.2571 16 34.3333 16.4476 35.2286 17.3429C36.1238 18.2381 36.5714 19.3143 36.5714 20.5714V43.4286C36.5714 44.6857 36.1238 45.7619 35.2286 46.6571C34.3333 47.5524 33.2571 48 32 48H4.57143C3.31429 48 2.2381 47.5524 1.34286 46.6571C0.447619 45.7619 0 44.6857 0 43.4286V20.5714C0 19.3143 0.447619 18.2381 1.34286 17.3429C2.2381 16.4476 3.31429 16 4.57143 16ZM21.5143 35.2286C22.4095 34.3333 22.8571 33.2571 22.8571 32C22.8571 30.7429 22.4095 29.6667 21.5143 28.7714C20.619 27.8762 19.5429 27.4286 18.2857 27.4286C17.0286 27.4286 15.9524 27.8762 15.0571 28.7714C14.1619 29.6667 13.7143 30.7429 13.7143 32C13.7143 33.2571 14.1619 34.3333 15.0571 35.2286C15.9524 36.1238 17.0286 36.5714 18.2857 36.5714C19.5429 36.5714 20.619 36.1238 21.5143 35.2286Z"/>
  </symbol>
  <symbol id="icon-arrow-forward" viewBox="0 0 16 16">
    <path d="M36.525 27H0V21H36.525L19.725 4.2L24 0L48 24L24 48L19.725 43.8L36.525 27Z"/>
  </symbol>
  <symbol id="icon-arrow-upward" viewBox="0 0 16 16">
    <path d="M21 48V11.475L4.2 28.275L0 24L24 0L48 24L43.8 28.275L27 11.475V48H21Z"/>
  </symbol>
  <symbol id="icon-export" viewBox="0 0 16 16">
    <path d="M31.68 42L38.4 35.28V40.8H40.8V31.2H31.2V33.6H36.72L30 40.32L31.68 42ZM4.8 43.2C3.48 43.2 2.35 42.73 1.41 41.79C0.47 40.85 0 39.72 0 38.4V4.8C0 3.48 0.47 2.35 1.41 1.41C2.35 0.47 3.48 0 4.8 0H38.4C39.72 0 40.85 0.47 41.79 1.41C42.73 2.35 43.2 3.48 43.2 4.8V20.88C42.44 20.52 41.66 20.21 40.86 19.95C40.06 19.69 39.24 19.5 38.4 19.38V4.8H4.8V38.4H19.32C19.44 39.28 19.63 40.12 19.89 40.92C20.15 41.72 20.46 42.48 20.82 43.2H4.8ZM4.8 36V38.4V4.8V19.38V19.2V36ZM9.6 33.6H19.38C19.5 32.76 19.69 31.94 19.95 31.14C20.21 30.34 20.5 29.56 20.82 28.8H9.6V33.6ZM9.6 24H24.24C25.52 22.8 26.95 21.8 28.53 21C30.11 20.2 31.8 19.66 33.6 19.38V19.2H9.6V24ZM9.6 14.4H33.6V9.6H9.6V14.4ZM36 48C32.68 48 29.85 46.83 27.51 44.49C25.17 42.15 24 39.32 24 36C24 32.68 25.17 29.85 27.51 27.51C29.85 25.17 32.68 24 36 24C39.32 24 42.15 25.17 44.49 27.51C46.83 29.85 48 32.68 48 36C48 39.32 46.83 42.15 44.49 44.49C42.15 46.83 39.32 48 36 48Z"/>
  </symbol>
  <symbol id="icon-download" viewBox="0 0 16 16">
    <path d="M24.25 36.375L9.09375 21.2188L13.3375 16.8234L21.2188 24.7047V0H27.2812V24.7047L35.1625 16.8234L39.4062 21.2188L24.25 36.375ZM6.0625 48.5C4.39531 48.5 2.9681 47.9064 1.78086 46.7191C0.59362 45.5319 0 44.1047 0 42.4375V33.3438H6.0625V42.4375H42.4375V33.3438H48.5V42.4375C48.5 44.1047 47.9064 45.5319 46.7191 46.7191C45.5319 47.9064 44.1047 48.5 42.4375 48.5H6.0625Z"/>
  </symbol>
  <symbol id="icon-metadata" viewBox="0 0 16 16">
    <path d="M32.8 19.6176L42.2 10.0118L40.3333 8.11765L32.8 15.7618L29 11.9059L27.1333 13.8676L32.8 19.6176ZM0 46V40.5882H32V46H0ZM25.2333 23.1015C22.6333 20.4632 21.3333 17.2725 21.3333 13.5294C21.3333 9.78628 22.6333 6.59559 25.2333 3.95735C27.8333 1.31912 30.9778 0 34.6667 0C38.3556 0 41.5 1.31912 44.1 3.95735C46.7 6.59559 48 9.78628 48 13.5294C48 17.2725 46.7 20.4632 44.1 23.1015C41.5 25.7397 38.3556 27.0588 34.6667 27.0588C30.9778 27.0588 27.8333 25.7397 25.2333 23.1015ZM0 24.3529V18.9412H16.8C17.1111 19.9333 17.4667 20.8804 17.8667 21.7824C18.2667 22.6843 18.7556 23.5412 19.3333 24.3529H0ZM0 35.1765V29.7647H25.0667C26.0889 30.3961 27.1778 30.926 28.3333 31.3544C29.4889 31.7828 30.7111 32.0873 32 32.2676V35.1765H0Z"/>
  </symbol>
  <symbol id="icon-search" viewBox="0 0 16 16">
    <path d="M44.2667 48L27.4667 31.2C26.1333 32.2667 24.6 33.1111 22.8667 33.7333C21.1333 34.3556 19.2889 34.6667 17.3333 34.6667C12.4889 34.6667 8.38889 32.9889 5.03333 29.6333C1.67778 26.2778 0 22.1778 0 17.3333C0 12.4889 1.67778 8.38889 5.03333 5.03333C8.38889 1.67778 12.4889 0 17.3333 0C22.1778 0 26.2778 1.67778 29.6333 5.03333C32.9889 8.38889 34.6667 12.4889 34.6667 17.3333C34.6667 19.2889 34.3556 21.1333 33.7333 22.8667C33.1111 24.6 32.2667 26.1333 31.2 27.4667L48 44.2667L44.2667 48ZM17.3333 29.3333C20.6667 29.3333 23.5 28.1667 25.8333 25.8333C28.1667 23.5 29.3333 20.6667 29.3333 17.3333C29.3333 14 28.1667 11.1667 25.8333 8.83333C23.5 6.5 20.6667 5.33333 17.3333 5.33333C14 5.33333 11.1667 6.5 8.83333 8.83333C6.5 11.1667 5.33333 14 5.33333 17.3333C5.33333 20.6667 6.5 23.5 8.83333 25.8333C11.1667 28.1667 14 29.3333 17.3333 29.3333Z"/>
  </symbol>
  <symbol id="icon-add" viewBox="0 0 16 16">
    <path d="M21.6 36H26.4V26.4H36V21.6H26.4V12H21.6V21.6H12V26.4H21.6V36ZM24 48C20.68 48 17.56 47.37 14.64 46.11C11.72 44.85 9.18 43.14 7.02 40.98C4.86 38.82 3.15 36.28 1.89 33.36C0.63 30.44 0 27.32 0 24C0 20.68 0.63 17.56 1.89 14.64C3.15 11.72 4.86 9.18 7.02 7.02C9.18 4.86 11.72 3.15 14.64 1.89C17.56 0.63 20.68 0 24 0C27.32 0 30.44 0.63 33.36 1.89C36.28 3.15 38.82 4.86 40.98 7.02C43.14 9.18 44.85 11.72 46.11 14.64C47.37 17.56 48 20.68 48 24C48 27.32 47.37 30.44 46.11 33.36C44.85 36.28 43.14 38.82 40.98 40.98C38.82 43.14 36.28 44.85 33.36 46.11C30.44 47.37 27.32 48 24 48Z"/>
  </symbol>
  <symbol id="icon-upload" viewBox="0 0 16 16">
    <path d="M21 36V11.55L13.2 19.35L9 15L24 0L39 15L34.8 19.35L27 11.55V36H21ZM6 48C4.35 48 2.9375 47.4125 1.7625 46.2375C0.5875 45.0625 0 43.65 0 42V33H6V42H42V33H48V42C48 43.65 47.4125 45.0625 46.2375 46.2375C45.0625 47.4125 43.65 48 42 48H6Z"/>
  </symbol>
  <symbol id="icon-ams" viewBox="0 0 16 16">
    <path d="M26.4121 48C29.4673 47.6784 32.3116 46.8442 34.9447 45.4975C37.5779 44.1508 39.8794 42.402 41.8493 40.2513C43.8191 38.1005 45.3668 35.6382 46.4925 32.8643C47.6181 30.0905 48.1809 27.1357 48.1809 24C48.1809 17.6884 46.0804 12.2613 41.8794 7.71859C37.6784 3.17588 32.5226 0.603015 26.4121 0V4.88442C31.196 5.48744 35.2161 7.58794 38.4724 11.1859C41.7287 14.7839 43.3568 19.0553 43.3568 24C43.3568 28.9447 41.7287 33.2161 38.4724 36.8141C35.2161 40.4121 31.196 42.5126 26.4121 43.1156V48ZM21.5879 48V43.1156C19.8191 42.9146 18.1407 42.4724 16.5528 41.7889C14.9648 41.1055 13.5075 40.2412 12.1809 39.196L8.74373 42.6935C10.5528 44.1407 12.5427 45.3266 14.7136 46.2513C16.8844 47.1759 19.1759 47.7588 21.5879 48ZM12.2412 8.80402C13.5679 7.75879 15.0151 6.89447 16.5829 6.21106C18.1508 5.52764 19.8191 5.08543 21.5879 4.88442V0C19.1759 0.241206 16.8844 0.824121 14.7136 1.74874C12.5427 2.67337 10.5528 3.8593 8.74373 5.30653L12.2412 8.80402ZM5.36684 39.2563L8.80403 35.8191C7.7588 34.4925 6.89448 33.0352 6.21107 31.4472C5.52765 29.8593 5.08543 28.1809 4.88443 26.4121H7.62939e-06C0.241215 28.8241 0.834179 31.1156 1.7789 33.2864C2.72363 35.4573 3.91961 37.4472 5.36684 39.2563ZM4.88443 21.5879C5.08543 19.8191 5.52765 18.1407 6.21107 16.5528C6.89448 14.9648 7.7588 13.5075 8.80403 12.1809L5.36684 8.74372C3.91961 10.5528 2.72363 12.5427 1.7789 14.7136C0.834179 16.8844 0.241215 19.1759 7.62939e-06 21.5879H4.88443Z"/>
  </symbol>
  <symbol id="icon-browse" viewBox="0 0 16 16">
    <path d="M31.8557 26.5648L34.2807 24.25L29.6511 19.6205C30.0553 18.9958 30.3584 18.3345 30.5605 17.6364C30.7626 16.9383 30.8636 16.2034 30.8636 15.4318C30.8636 13.264 30.1012 11.4361 28.5764 9.94801C27.0516 8.45994 25.242 7.71591 23.1477 7.71591C21.0534 7.71591 19.2438 8.45994 17.719 9.94801C16.1942 11.4361 15.4318 13.264 15.4318 15.4318C15.4318 17.5996 16.1942 19.4276 17.719 20.9156C19.2438 22.4037 21.0534 23.1477 23.1477 23.1477C23.9193 23.1477 24.645 23.0467 25.3247 22.8446C26.0044 22.6425 26.675 22.3394 27.3364 21.9352L31.8557 26.5648ZM23.1477 19.8409C21.9352 19.8409 20.8973 19.4092 20.0338 18.5457C19.1704 17.6823 18.7386 16.6443 18.7386 15.4318C18.7386 14.2193 19.1704 13.1813 20.0338 12.3179C20.8973 11.4545 21.9352 11.0227 23.1477 11.0227C24.3235 11.0227 25.3523 11.4545 26.2341 12.3179C27.1159 13.1813 27.5568 14.2193 27.5568 15.4318C27.5568 16.6443 27.1251 17.6823 26.2616 18.5457C25.3982 19.4092 24.3602 19.8409 23.1477 19.8409ZM6.61364 33.0682C5.40114 33.0682 4.36316 32.6365 3.49972 31.773C2.63627 30.9096 2.20455 29.8716 2.20455 28.6591V4.40909C2.20455 3.19659 2.63627 2.15862 3.49972 1.29517C4.36316 0.431724 5.40114 0 6.61364 0H41.8864C43.0989 0 44.1368 0.431724 45.0003 1.29517C45.8637 2.15862 46.2955 3.19659 46.2955 4.40909V28.6591C46.2955 29.8716 45.8637 30.9096 45.0003 31.773C44.1368 32.6365 43.0989 33.0682 41.8864 33.0682H6.61364ZM0 39.6818V35.2727H48.5V39.6818H0Z"/>
  </symbol>
  <symbol id="icon-check-box-checked" viewBox="0 0 16 16">
    <path d="M20.2667 35.2L39.0667 16.4L35.3333 12.6667L20.2667 27.7333L12.6667 20.1333L8.93333 23.8667L20.2667 35.2ZM5.33333 48C3.86667 48 2.61111 47.4778 1.56667 46.4333C0.522222 45.3889 0 44.1333 0 42.6667V5.33333C0 3.86667 0.522222 2.61111 1.56667 1.56667C2.61111 0.522222 3.86667 0 5.33333 0H42.6667C44.1333 0 45.3889 0.522222 46.4333 1.56667C47.4778 2.61111 48 3.86667 48 5.33333V42.6667C48 44.1333 47.4778 45.3889 46.4333 46.4333C45.3889 47.4778 44.1333 48 42.6667 48H5.33333Z"/>
  </symbol>
  <symbol id="icon-check-box" viewBox="0 0 16 16">
    <path d="M5.33333 48C3.86667 48 2.61111 47.4778 1.56667 46.4333C0.522222 45.3889 0 44.1333 0 42.6667V5.33333C0 3.86667 0.522222 2.61111 1.56667 1.56667C2.61111 0.522222 3.86667 0 5.33333 0H42.6667C44.1333 0 45.3889 0.522222 46.4333 1.56667C47.4778 2.61111 48 3.86667 48 5.33333V42.6667C48 44.1333 47.4778 45.3889 46.4333 46.4333C45.3889 47.4778 44.1333 48 42.6667 48H5.33333ZM5.33333 42.6667H42.6667V5.33333H5.33333V42.6667Z"/>
  </symbol>
  <symbol id="icon-cancel" viewBox="0 0 16 16">
    <path d="M15.36 36L24 27.36L32.64 36L36 32.64L27.36 24L36 15.36L32.64 12L24 20.64L15.36 12L12 15.36L20.64 24L12 32.64L15.36 36ZM24 48C20.68 48 17.56 47.37 14.64 46.11C11.72 44.85 9.18 43.14 7.02 40.98C4.86 38.82 3.15 36.28 1.89 33.36C0.63 30.44 0 27.32 0 24C0 20.68 0.63 17.56 1.89 14.64C3.15 11.72 4.86 9.18 7.02 7.02C9.18 4.86 11.72 3.15 14.64 1.89C17.56 0.63 20.68 0 24 0C27.32 0 30.44 0.63 33.36 1.89C36.28 3.15 38.82 4.86 40.98 7.02C43.14 9.18 44.85 11.72 46.11 14.64C47.37 17.56 48 20.68 48 24C48 27.32 47.37 30.44 46.11 33.36C44.85 36.28 43.14 38.82 40.98 40.98C38.82 43.14 36.28 44.85 33.36 46.11C30.44 47.37 27.32 48 24 48Z"/>
  </symbol>
  <symbol id="icon-timer-80" viewBox="0 0 16 16">
    <path d="M14.64 46.11C11.72 44.85 9.18 43.14 7.02 40.98C4.86 38.82 3.15 36.28 1.89 33.36C0.63 30.44 0 27.32 0 24C0 20.68 0.63 17.56 1.89 14.64C3.15 11.72 4.86 9.18 7.02 7.02C9.18 4.86 11.72 3.15 14.64 1.89C17.56 0.63 20.68 0 24 0C27.32 0 30.44 0.63 33.36 1.89C36.28 3.15 38.82 4.86 40.98 7.02C43.14 9.18 44.85 11.72 46.11 14.64C47.37 17.56 48 20.68 48 24C48 27.32 47.37 30.44 46.11 33.36C44.85 36.28 43.14 38.82 40.98 40.98C38.82 43.14 36.28 44.85 33.36 46.11C30.44 47.37 27.32 48 24 48C20.68 48 17.56 47.37 14.64 46.11ZM4.8 24H24V4.8C18.64 4.8 14.1 6.66 10.38 10.38C6.66 14.1 4.8 18.64 4.8 24Z"/>
  </symbol>
  <symbol id="icon-timer-0" viewBox="0 0 16 16">
    <path d="M24 48C20.68 48 17.56 47.37 14.64 46.11C11.72 44.85 9.18 43.14 7.02 40.98C4.86 38.82 3.15 36.28 1.89 33.36C0.63 30.44 0 27.32 0 24C0 20.68 0.63 17.56 1.89 14.64C3.15 11.72 4.86 9.18 7.02 7.02C9.18 4.86 11.72 3.15 14.64 1.89C17.56 0.63 20.68 0 24 0C27.32 0 30.44 0.63 33.36 1.89C36.28 3.15 38.82 4.86 40.98 7.02C43.14 9.18 44.85 11.72 46.11 14.64C47.37 17.56 48 20.68 48 24C48 27.32 47.37 30.44 46.11 33.36C44.85 36.28 43.14 38.82 40.98 40.98C38.82 43.14 36.28 44.85 33.36 46.11C30.44 47.37 27.32 48 24 48ZM24 43.2C29.36 43.2 33.9 41.34 37.62 37.62C41.34 33.9 43.2 29.36 43.2 24C43.2 18.64 41.34 14.1 37.62 10.38C33.9 6.66 29.36 4.8 24 4.8C18.64 4.8 14.1 6.66 10.38 10.38C6.66 14.1 4.8 18.64 4.8 24C4.8 29.36 6.66 33.9 10.38 37.62C14.1 41.34 18.64 43.2 24 43.2Z"/>
  </symbol>
  <symbol id="icon-album" viewBox="0 0 16 16">
    <path d="M24 34.8C27 34.8 29.55 33.75 31.65 31.65C33.75 29.55 34.8 27 34.8 24C34.8 21 33.75 18.45 31.65 16.35C29.55 14.25 27 13.2 24 13.2C21 13.2 18.45 14.25 16.35 16.35C14.25 18.45 13.2 21 13.2 24C13.2 27 14.25 29.55 16.35 31.65C18.45 33.75 21 34.8 24 34.8ZM22.29 25.71C21.83 25.25 21.6 24.68 21.6 24C21.6 23.32 21.83 22.75 22.29 22.29C22.75 21.83 23.32 21.6 24 21.6C24.68 21.6 25.25 21.83 25.71 22.29C26.17 22.75 26.4 23.32 26.4 24C26.4 24.68 26.17 25.25 25.71 25.71C25.25 26.17 24.68 26.4 24 26.4C23.32 26.4 22.75 26.17 22.29 25.71ZM24 48C20.68 48 17.56 47.37 14.64 46.11C11.72 44.85 9.18 43.14 7.02 40.98C4.86 38.82 3.15 36.28 1.89 33.36C0.63 30.44 0 27.32 0 24C0 20.68 0.63 17.56 1.89 14.64C3.15 11.72 4.86 9.18 7.02 7.02C9.18 4.86 11.72 3.15 14.64 1.89C17.56 0.63 20.68 0 24 0C27.32 0 30.44 0.63 33.36 1.89C36.28 3.15 38.82 4.86 40.98 7.02C43.14 9.18 44.85 11.72 46.11 14.64C47.37 17.56 48 20.68 48 24C48 27.32 47.37 30.44 46.11 33.36C44.85 36.28 43.14 38.82 40.98 40.98C38.82 43.14 36.28 44.85 33.36 46.11C30.44 47.37 27.32 48 24 48ZM24 43.2C29.36 43.2 33.9 41.34 37.62 37.62C41.34 33.9 43.2 29.36 43.2 24C43.2 18.64 41.34 14.1 37.62 10.38C33.9 6.66 29.36 4.8 24 4.8C18.64 4.8 14.1 6.66 10.38 10.38C6.66 14.1 4.8 18.64 4.8 24C4.8 29.36 6.66 33.9 10.38 37.62C14.1 41.34 18.64 43.2 24 43.2Z"/>
  </symbol>
  <symbol id="icon-tag" viewBox="0 0 16 16">
    <path d="M4.85 38.8C3.51625 38.8 2.37448 38.3251 1.42469 37.3753C0.474896 36.4255 0 35.2837 0 33.95V4.85C0 3.51625 0.474896 2.37448 1.42469 1.42469C2.37448 0.474896 3.51625 0 4.85 0H31.525C32.2929 0 33.0204 0.171771 33.7075 0.515312C34.3946 0.858854 34.9604 1.33375 35.405 1.94L48.5 19.4L35.405 36.86C34.9604 37.4662 34.3946 37.9411 33.7075 38.2847C33.0204 38.6282 32.2929 38.8 31.525 38.8H4.85Z"/>
  </symbol>
  <symbol id="icon-arrow-drop-down" viewBox="0 0 16 16">
    <path d="M24.25 24.25L0 0H48.5L24.25 24.25Z"/>
  </symbol>
  <symbol id="icon-edit" viewBox="0 0 16 16">
    <path d="M0 48V36.6667L35.2 1.53333C35.7333 1.04444 36.3222 0.666667 36.9667 0.4C37.6111 0.133333 38.2889 0 39 0C39.7111 0 40.4 0.133333 41.0667 0.4C41.7333 0.666667 42.3111 1.06667 42.8 1.6L46.4667 5.33333C47 5.82222 47.3889 6.4 47.6333 7.06667C47.8778 7.73333 48 8.4 48 9.06667C48 9.77778 47.8778 10.4556 47.6333 11.1C47.3889 11.7444 47 12.3333 46.4667 12.8667L11.3333 48H0ZM38.9333 12.8L42.6667 9.06667L38.9333 5.33333L35.2 9.06667L38.9333 12.8Z"/>
  </symbol>
  <symbol id="icon-view-source" viewBox="0 0 16 16">
    <path d="M4.61905 36.9524C3.34881 36.9524 2.26141 36.5001 1.35685 35.5955C0.452282 34.691 0 33.6036 0 32.3333V4.61905C0 3.34881 0.452282 2.26141 1.35685 1.35685C2.26141 0.452282 3.34881 0 4.61905 0H18.4762L23.0952 4.61905H41.5714C42.8417 4.61905 43.9291 5.07133 44.8336 5.97589C45.7382 6.88046 46.1905 7.96786 46.1905 9.23809V23.2107C45.4976 22.6718 44.7663 22.2292 43.9964 21.8827C43.2266 21.5363 42.4183 21.1706 41.5714 20.7857V9.23809H21.1899L16.5708 4.61905H4.61905V32.3333H11.5476V36.9524H4.61905ZM32.3333 43.881C28.8306 43.881 25.5972 42.9571 22.6333 41.1095C19.6694 39.2619 17.5139 36.7214 16.1667 33.4881C17.5139 30.2548 19.6694 27.7143 22.6333 25.8667C25.5972 24.019 28.8306 23.0952 32.3333 23.0952C35.8361 23.0952 39.0694 24.019 42.0333 25.8667C44.9972 27.7143 47.1528 30.2548 48.5 33.4881C47.1528 36.7214 44.9972 39.2619 42.0333 41.1095C39.0694 42.9571 35.8361 43.881 32.3333 43.881ZM38.5402 37.7607C40.484 36.7599 42.0718 35.3357 43.3036 33.4881C42.0718 31.6405 40.484 30.2163 38.5402 29.2155C36.5963 28.2147 34.5274 27.7143 32.3333 27.7143C30.1393 27.7143 28.0703 28.2147 26.1265 29.2155C24.1826 30.2163 22.5948 31.6405 21.3631 33.4881C22.5948 35.3357 24.1826 36.7599 26.1265 37.7607C28.0703 38.7615 30.1393 39.2619 32.3333 39.2619C34.5274 39.2619 36.5963 38.7615 38.5402 37.7607ZM29.8795 35.942C29.2059 35.2684 28.869 34.4504 28.869 33.4881C28.869 32.5258 29.2059 31.7078 29.8795 31.0342C30.5531 30.3606 31.371 30.0238 32.3333 30.0238C33.2956 30.0238 34.1136 30.3606 34.7872 31.0342C35.4608 31.7078 35.7976 32.5258 35.7976 33.4881C35.7976 34.4504 35.4608 35.2684 34.7872 35.942C34.1136 36.6156 33.2956 36.9524 32.3333 36.9524C31.371 36.9524 30.5531 36.6156 29.8795 35.942ZM4.61905 32.3333V4.61905V20.6125V18.4762V32.3333Z"/>
  </symbol>
  <symbol id="icon-arrow-drop-up" viewBox="0 0 16 16">
    <path d="M0 24.25L24.25 0L48.5 24.25H0Z"/>
  </symbol>
  <symbol id="icon-drag-handle" viewBox="0 0 16 16">
    <path d="M6 48C4.35 48 2.9375 47.4125 1.7625 46.2375C0.5875 45.0625 0 43.65 0 42C0 40.35 0.5875 38.9375 1.7625 37.7625C2.9375 36.5875 4.35 36 6 36C7.65 36 9.0625 36.5875 10.2375 37.7625C11.4125 38.9375 12 40.35 12 42C12 43.65 11.4125 45.0625 10.2375 46.2375C9.0625 47.4125 7.65 48 6 48ZM24 48C22.35 48 20.9375 47.4125 19.7625 46.2375C18.5875 45.0625 18 43.65 18 42C18 40.35 18.5875 38.9375 19.7625 37.7625C20.9375 36.5875 22.35 36 24 36C25.65 36 27.0625 36.5875 28.2375 37.7625C29.4125 38.9375 30 40.35 30 42C30 43.65 29.4125 45.0625 28.2375 46.2375C27.0625 47.4125 25.65 48 24 48ZM6 30C4.35 30 2.9375 29.4125 1.7625 28.2375C0.5875 27.0625 0 25.65 0 24C0 22.35 0.5875 20.9375 1.7625 19.7625C2.9375 18.5875 4.35 18 6 18C7.65 18 9.0625 18.5875 10.2375 19.7625C11.4125 20.9375 12 22.35 12 24C12 25.65 11.4125 27.0625 10.2375 28.2375C9.0625 29.4125 7.65 30 6 30ZM24 30C22.35 30 20.9375 29.4125 19.7625 28.2375C18.5875 27.0625 18 25.65 18 24C18 22.35 18.5875 20.9375 19.7625 19.7625C20.9375 18.5875 22.35 18 24 18C25.65 18 27.0625 18.5875 28.2375 19.7625C29.4125 20.9375 30 22.35 30 24C30 25.65 29.4125 27.0625 28.2375 28.2375C27.0625 29.4125 25.65 30 24 30ZM6 12C4.35 12 2.9375 11.4125 1.7625 10.2375C0.5875 9.0625 0 7.65 0 6C0 4.35 0.5875 2.9375 1.7625 1.7625C2.9375 0.5875 4.35 0 6 0C7.65 0 9.0625 0.5875 10.2375 1.7625C11.4125 2.9375 12 4.35 12 6C12 7.65 11.4125 9.0625 10.2375 10.2375C9.0625 11.4125 7.65 12 6 12ZM24 12C22.35 12 20.9375 11.4125 19.7625 10.2375C18.5875 9.0625 18 7.65 18 6C18 4.35 18.5875 2.9375 19.7625 1.7625C20.9375 0.5875 22.35 0 24 0C25.65 0 27.0625 0.5875 28.2375 1.7625C29.4125 2.9375 30 4.35 30 6C30 7.65 29.4125 9.0625 28.2375 10.2375C27.0625 11.4125 25.65 12 24 12Z"/>
  </symbol>
  <symbol id="icon-chevron-forward" viewBox="0 0 16 16">
    <path d="M18.4 24L0 5.6L5.6 0L29.6 24L5.6 48L0 42.4L18.4 24Z"/>
  </symbol>
  <symbol id="icon-help" viewBox="0 0 16 16">
    <path d="M26.01 37.53C26.59 36.95 26.88 36.24 26.88 35.4C26.88 34.56 26.59 33.85 26.01 33.27C25.43 32.69 24.72 32.4 23.88 32.4C23.04 32.4 22.33 32.69 21.75 33.27C21.17 33.85 20.88 34.56 20.88 35.4C20.88 36.24 21.17 36.95 21.75 37.53C22.33 38.11 23.04 38.4 23.88 38.4C24.72 38.4 25.43 38.11 26.01 37.53ZM21.72 29.16H26.16C26.16 27.84 26.31 26.8 26.61 26.04C26.91 25.28 27.76 24.24 29.16 22.92C30.2 21.88 31.02 20.89 31.62 19.95C32.22 19.01 32.52 17.88 32.52 16.56C32.52 14.32 31.7 12.6 30.06 11.4C28.42 10.2 26.48 9.6 24.24 9.6C21.96 9.6 20.11 10.2 18.69 11.4C17.27 12.6 16.28 14.04 15.72 15.72L19.68 17.28C19.88 16.56 20.33 15.78 21.03 14.94C21.73 14.1 22.8 13.68 24.24 13.68C25.52 13.68 26.48 14.03 27.12 14.73C27.76 15.43 28.08 16.2 28.08 17.04C28.08 17.84 27.84 18.59 27.36 19.29C26.88 19.99 26.28 20.64 25.56 21.24C23.8 22.8 22.72 23.98 22.32 24.78C21.92 25.58 21.72 27.04 21.72 29.16ZM24 48C20.68 48 17.56 47.37 14.64 46.11C11.72 44.85 9.18 43.14 7.02 40.98C4.86 38.82 3.15 36.28 1.89 33.36C0.63 30.44 0 27.32 0 24C0 20.68 0.63 17.56 1.89 14.64C3.15 11.72 4.86 9.18 7.02 7.02C9.18 4.86 11.72 3.15 14.64 1.89C17.56 0.63 20.68 0 24 0C27.32 0 30.44 0.63 33.36 1.89C36.28 3.15 38.82 4.86 40.98 7.02C43.14 9.18 44.85 11.72 46.11 14.64C47.37 17.56 48 20.68 48 24C48 27.32 47.37 30.44 46.11 33.36C44.85 36.28 43.14 38.82 40.98 40.98C38.82 43.14 36.28 44.85 33.36 46.11C30.44 47.37 27.32 48 24 48ZM24 43.2C29.36 43.2 33.9 41.34 37.62 37.62C41.34 33.9 43.2 29.36 43.2 24C43.2 18.64 41.34 14.1 37.62 10.38C33.9 6.66 29.36 4.8 24 4.8C18.64 4.8 14.1 6.66 10.38 10.38C6.66 14.1 4.8 18.64 4.8 24C4.8 29.36 6.66 33.9 10.38 37.62C14.1 41.34 18.64 43.2 24 43.2Z"/>
  </symbol>
  <symbol id="icon-email" viewBox="0 0 16 16">
    <path d="M4.85 38.8C3.51625 38.8 2.37448 38.3251 1.42469 37.3753C0.474896 36.4255 0 35.2837 0 33.95V4.85C0 3.51625 0.474896 2.37448 1.42469 1.42469C2.37448 0.474896 3.51625 0 4.85 0H43.65C44.9838 0 46.1255 0.474896 47.0753 1.42469C48.0251 2.37448 48.5 3.51625 48.5 4.85V33.95C48.5 35.2837 48.0251 36.4255 47.0753 37.3753C46.1255 38.3251 44.9838 38.8 43.65 38.8H4.85ZM24.25 21.825L4.85 9.7V33.95H43.65V9.7L24.25 21.825ZM24.25 16.975L43.65 4.85H4.85L24.25 16.975ZM4.85 9.7V4.85V33.95V9.7Z"/>
  </symbol>
  <symbol id="icon-chevron-backward" viewBox="0 0 16 16">
    <path d="M24 48L0 24L24 0L29.6 5.6L11.2 24L29.6 42.4L24 48Z"/>
  </symbol>
  <symbol id="icon-vertical-align-top" viewBox="0 0 16 16">
    <path d="M0 5.33333V0H42.6667V5.33333H0ZM18.6667 48V20.8L11.7333 27.7333L8 24L21.3333 10.6667L34.6667 24L30.9333 27.7333L24 20.8V48H18.6667Z"/>
  </symbol>
  <symbol id="icon-mobile" viewBox="0 0 16 16">
    <path d="M4.36364 48C3.16364 48 2.13636 47.5727 1.28182 46.7182C0.427273 45.8636 0 44.8364 0 43.6364V4.36364C0 3.16364 0.427273 2.13636 1.28182 1.28182C2.13636 0.427273 3.16364 0 4.36364 0H26.1818C27.3818 0 28.4091 0.427273 29.2636 1.28182C30.1182 2.13636 30.5455 3.16364 30.5455 4.36364V11.1273C31.2 11.3818 31.7273 11.7818 32.1273 12.3273C32.5273 12.8727 32.7273 13.4909 32.7273 14.1818V18.5455C32.7273 19.2364 32.5273 19.8545 32.1273 20.4C31.7273 20.9455 31.2 21.3455 30.5455 21.6V43.6364C30.5455 44.8364 30.1182 45.8636 29.2636 46.7182C28.4091 47.5727 27.3818 48 26.1818 48H4.36364ZM4.36364 43.6364H26.1818V4.36364H4.36364V43.6364ZM16.8273 10.2818C17.2455 9.86364 17.4545 9.34546 17.4545 8.72727C17.4545 8.10909 17.2455 7.59091 16.8273 7.17273C16.4091 6.75455 15.8909 6.54545 15.2727 6.54545C14.6545 6.54545 14.1364 6.75455 13.7182 7.17273C13.3 7.59091 13.0909 8.10909 13.0909 8.72727C13.0909 9.34546 13.3 9.86364 13.7182 10.2818C14.1364 10.7 14.6545 10.9091 15.2727 10.9091C15.8909 10.9091 16.4091 10.7 16.8273 10.2818Z"/>
  </symbol>
  <symbol id="icon-location" viewBox="0 0 16 16">
    <path d="M22.59 22.59C23.53 21.65 24 20.52 24 19.2C24 17.88 23.53 16.75 22.59 15.81C21.65 14.87 20.52 14.4 19.2 14.4C17.88 14.4 16.75 14.87 15.81 15.81C14.87 16.75 14.4 17.88 14.4 19.2C14.4 20.52 14.87 21.65 15.81 22.59C16.75 23.53 17.88 24 19.2 24C20.52 24 21.65 23.53 22.59 22.59ZM19.2 41.64C24.08 37.16 27.7 33.09 30.06 29.43C32.42 25.77 33.6 22.52 33.6 19.68C33.6 15.32 32.21 11.75 29.43 8.97C26.65 6.19 23.24 4.8 19.2 4.8C15.16 4.8 11.75 6.19 8.97 8.97C6.19 11.75 4.8 15.32 4.8 19.68C4.8 22.52 5.98 25.77 8.34 29.43C10.7 33.09 14.32 37.16 19.2 41.64ZM19.2 48C12.76 42.52 7.95 37.43 4.77 32.73C1.59 28.03 0 23.68 0 19.68C0 13.68 1.93 8.9 5.79 5.34C9.65 1.78 14.12 0 19.2 0C24.28 0 28.75 1.78 32.61 5.34C36.47 8.9 38.4 13.68 38.4 19.68C38.4 23.68 36.81 28.03 33.63 32.73C30.45 37.43 25.64 42.52 19.2 48Z"/>
  </symbol>
</svg>